<ttFont>
    <TTGlyph name="ampersand" xMin="83" yMin="-16" xMax="1433" yMax="1484">
      <contour>
        <pt x="675" y="1484" on="1"/>
        <pt x="756" y="1484" on="0"/>
        <pt x="889" y="1432" on="0"/>
        <pt x="986" y="1346" on="0"/>
        <pt x="1042" y="1232" on="0"/>
        <pt x="1047" y="1170" on="1"/>
        <pt x="933" y="1148" on="1"/>
        <pt x="928" y="1147" on="0"/>
        <pt x="924" y="1147" on="1"/>
        <pt x="910" y="1147" on="0"/>
        <pt x="887" y="1161" on="0"/>
        <pt x="882" y="1180" on="1"/>
        <pt x="875" y="1206" on="0"/>
        <pt x="843" y="1264" on="0"/>
        <pt x="793" y="1311" on="0"/>
        <pt x="722" y="1341" on="0"/>
        <pt x="675" y="1341" on="1"/>
        <pt x="624" y="1341" on="0"/>
        <pt x="542" y="1309" on="0"/>
        <pt x="483" y="1250" on="0"/>
        <pt x="452" y="1171" on="0"/>
        <pt x="452" y="1125" on="1"/>
        <pt x="452" y="1090" on="0"/>
        <pt x="469" y="1024" on="0"/>
        <pt x="504" y="957" on="0"/>
        <pt x="559" y="887" on="0"/>
        <pt x="598" y="848" on="1"/>
        <pt x="1020" y="419" on="1"/>
        <pt x="1059" y="487" on="0"/>
        <pt x="1105" y="638" on="0"/>
        <pt x="1113" y="714" on="1"/>
        <pt x="1115" y="733" on="0"/>
        <pt x="1136" y="756" on="0"/>
        <pt x="1154" y="756" on="1"/>
        <pt x="1267" y="756" on="1"/>
        <pt x="1265" y="638" on="0"/>
        <pt x="1193" y="411" on="0"/>
        <pt x="1125" y="311" on="1"/>
        <pt x="1433" y="0" on="1"/>
        <pt x="1257" y="0" on="1"/>
        <pt x="1227" y="0" on="0"/>
        <pt x="1190" y="14" on="0"/>
        <pt x="1167" y="37" on="1"/>
        <pt x="1020" y="185" on="1"/>
        <pt x="924" y="92" on="0"/>
        <pt x="673" y="-16" on="0"/>
        <pt x="522" y="-16" on="1"/>
        <pt x="440" y="-16" on="0"/>
        <pt x="283" y="39" on="0"/>
        <pt x="159" y="144" on="0"/>
        <pt x="83" y="296" on="0"/>
        <pt x="83" y="391" on="1"/>
        <pt x="83" y="463" on="0"/>
        <pt x="131" y="591" on="0"/>
        <pt x="216" y="699" on="0"/>
        <pt x="333" y="785" on="0"/>
        <pt x="402" y="816" on="1"/>
        <pt x="340" y="895" on="0"/>
        <pt x="281" y="1044" on="0"/>
        <pt x="281" y="1124" on="1"/>
        <pt x="281" y="1199" on="0"/>
        <pt x="335" y="1330" on="0"/>
        <pt x="437" y="1427" on="0"/>
        <pt x="584" y="1484" on="0"/>
      </contour>
      <contour>
        <pt x="268" y="406" on="1"/>
        <pt x="268" y="339" on="0"/>
        <pt x="317" y="238" on="0"/>
        <pt x="397" y="168" on="0"/>
        <pt x="500" y="132" on="0"/>
        <pt x="553" y="132" on="1"/>
        <pt x="668" y="132" on="0"/>
        <pt x="850" y="216" on="0"/>
        <pt x="920" y="286" on="1"/>
        <pt x="486" y="723" on="1"/>
        <pt x="378" y="665" on="0"/>
        <pt x="268" y="502" on="0"/>
      </contour>
    </TTGlyph>
    <TTGlyph name="asciitilde" xMin="118" yMin="424" xMax="1066" yMax="786">
      <contour>
        <pt x="776" y="628" on="1"/>
        <pt x="843" y="628" on="0"/>
        <pt x="918" y="715" on="0"/>
        <pt x="919" y="786" on="1"/>
        <pt x="1066" y="786" on="1"/>
        <pt x="1066" y="718" on="0"/>
        <pt x="1028" y="603" on="0"/>
        <pt x="958" y="521" on="0"/>
        <pt x="853" y="476" on="0"/>
        <pt x="788" y="476" on="1"/>
        <pt x="734" y="476" on="0"/>
        <pt x="630" y="509" on="0"/>
        <pt x="533" y="549" on="0"/>
        <pt x="445" y="583" on="0"/>
        <pt x="408" y="583" on="1"/>
        <pt x="341" y="583" on="0"/>
        <pt x="266" y="497" on="0"/>
        <pt x="265" y="424" on="1"/>
        <pt x="118" y="424" on="1"/>
        <pt x="118" y="493" on="0"/>
        <pt x="156" y="607" on="0"/>
        <pt x="227" y="689" on="0"/>
        <pt x="330" y="735" on="0"/>
        <pt x="397" y="735" on="1"/>
        <pt x="450" y="735" on="0"/>
        <pt x="554" y="701" on="0"/>
        <pt x="652" y="662" on="0"/>
        <pt x="740" y="628" on="0"/>
      </contour>
    </TTGlyph>
    <TTGlyph name="asterisk" xMin="98" yMin="884" xMax="716" yMax="1542">
      <contour>
        <pt x="362" y="884" on="1"/>
        <pt x="362" y="1085" on="1"/>
        <pt x="362" y="1105" on="0"/>
        <pt x="367" y="1140" on="0"/>
        <pt x="374" y="1156" on="1"/>
        <pt x="354" y="1130" on="0"/>
        <pt x="320" y="1110" on="1"/>
        <pt x="144" y="1009" on="1"/>
        <pt x="99" y="1085" on="1"/>
        <pt x="275" y="1188" on="1"/>
        <pt x="312" y="1209" on="0"/>
        <pt x="350" y="1212" on="1"/>
        <pt x="329" y="1214" on="0"/>
        <pt x="294" y="1226" on="0"/>
        <pt x="275" y="1238" on="1"/>
        <pt x="98" y="1341" on="1"/>
        <pt x="143" y="1418" on="1"/>
        <pt x="320" y="1316" on="1"/>
        <pt x="356" y="1295" on="0"/>
        <pt x="379" y="1263" on="1"/>
        <pt x="369" y="1281" on="0"/>
        <pt x="362" y="1319" on="0"/>
        <pt x="362" y="1339" on="1"/>
        <pt x="362" y="1542" on="1"/>
        <pt x="452" y="1542" on="1"/>
        <pt x="452" y="1340" on="1"/>
        <pt x="452" y="1298" on="0"/>
        <pt x="438" y="1267" on="1"/>
        <pt x="449" y="1282" on="0"/>
        <pt x="477" y="1305" on="0"/>
        <pt x="494" y="1316" on="1"/>
        <pt x="670" y="1417" on="1"/>
        <pt x="715" y="1340" on="1"/>
        <pt x="539" y="1238" on="1"/>
        <pt x="522" y="1227" on="0"/>
        <pt x="488" y="1214" on="0"/>
        <pt x="470" y="1212" on="1"/>
        <pt x="488" y="1210" on="0"/>
        <pt x="522" y="1199" on="0"/>
        <pt x="539" y="1188" on="1"/>
        <pt x="716" y="1084" on="1"/>
        <pt x="671" y="1008" on="1"/>
        <pt x="494" y="1110" on="1"/>
        <pt x="476" y="1121" on="0"/>
        <pt x="447" y="1144" on="0"/>
        <pt x="436" y="1160" on="1"/>
        <pt x="452" y="1126" on="0"/>
        <pt x="452" y="1086" on="1"/>
        <pt x="452" y="884" on="1"/>
      </contour>
    </TTGlyph>
    <TTGlyph name="at" xMin="88" yMin="-245" xMax="1601" yMax="1392">
      <contour>
        <pt x="1195" y="190" on="1"/>
        <pt x="1115" y="190" on="0"/>
        <pt x="1015" y="267" on="0"/>
        <pt x="1001" y="347" on="1"/>
        <pt x="942" y="264" on="0"/>
        <pt x="803" y="193" on="0"/>
        <pt x="723" y="193" on="1"/>
        <pt x="661" y="193" on="0"/>
        <pt x="571" y="234" on="0"/>
        <pt x="511" y="309" on="0"/>
        <pt x="481" y="412" on="0"/>
        <pt x="481" y="471" on="1"/>
        <pt x="481" y="558" on="0"/>
        <pt x="548" y="735" on="0"/>
        <pt x="679" y="878" on="0"/>
        <pt x="874" y="968" on="0"/>
        <pt x="1002" y="968" on="1"/>
        <pt x="1071" y="968" on="0"/>
        <pt x="1174" y="946" on="0"/>
        <pt x="1221" y="926" on="1"/>
        <pt x="1125" y="556" on="1"/>
        <pt x="1106" y="479" on="0"/>
        <pt x="1106" y="429" on="1"/>
        <pt x="1106" y="392" on="0"/>
        <pt x="1124" y="344" on="0"/>
        <pt x="1156" y="316" on="0"/>
        <pt x="1198" y="306" on="0"/>
        <pt x="1222" y="306" on="1"/>
        <pt x="1272" y="306" on="0"/>
        <pt x="1362" y="364" on="0"/>
        <pt x="1430" y="468" on="0"/>
        <pt x="1470" y="614" on="0"/>
        <pt x="1470" y="703" on="1"/>
        <pt x="1470" y="845" on="0"/>
        <pt x="1379" y="1058" on="0"/>
        <pt x="1221" y="1200" on="0"/>
        <pt x="1004" y="1271" on="0"/>
        <pt x="880" y="1271" on="1"/>
        <pt x="742" y="1271" on="0"/>
        <pt x="503" y="1166" on="0"/>
        <pt x="325" y="982" on="0"/>
        <pt x="222" y="730" on="0"/>
        <pt x="222" y="582" on="1"/>
        <pt x="222" y="408" on="0"/>
        <pt x="332" y="144" on="0"/>
        <pt x="521" y="-34" on="0"/>
        <pt x="776" y="-124" on="0"/>
        <pt x="923" y="-124" on="1"/>
        <pt x="1078" y="-124" on="0"/>
        <pt x="1317" y="-56" on="0"/>
        <pt x="1404" y="-4" on="1"/>
        <pt x="1419" y="5" on="0"/>
        <pt x="1431" y="5" on="1"/>
        <pt x="1453" y="5" on="0"/>
        <pt x="1463" y="-19" on="1"/>
        <pt x="1489" y="-87" on="1"/>
        <pt x="1379" y="-161" on="0"/>
        <pt x="1100" y="-245" on="0"/>
        <pt x="923" y="-245" on="1"/>
        <pt x="745" y="-245" on="0"/>
        <pt x="440" y="-132" on="0"/>
        <pt x="216" y="80" on="0"/>
        <pt x="88" y="387" on="0"/>
        <pt x="88" y="582" on="1"/>
        <pt x="88" y="693" on="0"/>
        <pt x="144" y="900" on="0"/>
        <pt x="247" y="1079" on="0"/>
        <pt x="390" y="1228" on="0"/>
        <pt x="566" y="1333" on="0"/>
        <pt x="769" y="1392" on="0"/>
        <pt x="880" y="1392" on="1"/>
        <pt x="974" y="1392" on="0"/>
        <pt x="1154" y="1351" on="0"/>
        <pt x="1315" y="1271" on="0"/>
        <pt x="1450" y="1153" on="0"/>
        <pt x="1547" y="1000" on="0"/>
        <pt x="1601" y="813" on="0"/>
        <pt x="1601" y="703" on="1"/>
        <pt x="1601" y="593" on="0"/>
        <pt x="1539" y="406" on="0"/>
        <pt x="1429" y="268" on="0"/>
        <pt x="1281" y="190" on="0"/>
      </contour>
      <contour>
        <pt x="759" y="313" on="1"/>
        <pt x="790" y="313" on="0"/>
        <pt x="855" y="334" on="0"/>
        <pt x="915" y="385" on="0"/>
        <pt x="966" y="473" on="0"/>
        <pt x="983" y="540" on="1"/>
        <pt x="1061" y="842" on="1"/>
        <pt x="1021" y="851" on="0"/>
        <pt x="974" y="851" on="1"/>
        <pt x="897" y="851" on="0"/>
        <pt x="769" y="786" on="0"/>
        <pt x="677" y="682" on="0"/>
        <pt x="625" y="547" on="0"/>
        <pt x="625" y="476" on="1"/>
        <pt x="625" y="402" on="0"/>
        <pt x="692" y="313" on="0"/>
      </contour>
    </TTGlyph>
    <TTGlyph name="bar" xMin="235" yMin="-351" xMax="376" yMax="1570">
      <contour>
        <pt x="235" y="1570" on="1"/>
        <pt x="376" y="1570" on="1"/>
        <pt x="376" y="-351" on="1"/>
        <pt x="235" y="-351" on="1"/>
      </contour>
    </TTGlyph>
    <TTGlyph name="braceleft" xMin="45" yMin="-296" xMax="524" yMax="1570">
      <contour>
        <pt x="185" y="435" on="1"/>
        <pt x="185" y="500" on="0"/>
        <pt x="114" y="583" on="0"/>
        <pt x="45" y="583" on="1"/>
        <pt x="45" y="692" on="1"/>
        <pt x="114" y="692" on="0"/>
        <pt x="185" y="774" on="0"/>
        <pt x="185" y="840" on="1"/>
        <pt x="185" y="891" on="0"/>
        <pt x="169" y="991" on="0"/>
        <pt x="149" y="1092" on="0"/>
        <pt x="133" y="1194" on="0"/>
        <pt x="133" y="1247" on="1"/>
        <pt x="133" y="1318" on="0"/>
        <pt x="175" y="1437" on="0"/>
        <pt x="260" y="1523" on="0"/>
        <pt x="386" y="1570" on="0"/>
        <pt x="470" y="1570" on="1"/>
        <pt x="524" y="1570" on="1"/>
        <pt x="524" y="1489" on="1"/>
        <pt x="524" y="1468" on="0"/>
        <pt x="496" y="1450" on="0"/>
        <pt x="483" y="1450" on="1"/>
        <pt x="463" y="1450" on="1"/>
        <pt x="384" y="1450" on="0"/>
        <pt x="293" y="1347" on="0"/>
        <pt x="293" y="1258" on="1"/>
        <pt x="293" y="1201" on="0"/>
        <pt x="307" y="1095" on="0"/>
        <pt x="326" y="993" on="0"/>
        <pt x="340" y="893" on="0"/>
        <pt x="340" y="842" on="1"/>
        <pt x="340" y="803" on="0"/>
        <pt x="317" y="736" on="0"/>
        <pt x="275" y="684" on="0"/>
        <pt x="219" y="646" on="0"/>
        <pt x="185" y="637" on="1"/>
        <pt x="219" y="628" on="0"/>
        <pt x="275" y="590" on="0"/>
        <pt x="317" y="537" on="0"/>
        <pt x="340" y="471" on="0"/>
        <pt x="340" y="433" on="1"/>
        <pt x="340" y="382" on="0"/>
        <pt x="326" y="282" on="0"/>
        <pt x="307" y="180" on="0"/>
        <pt x="293" y="74" on="0"/>
        <pt x="293" y="16" on="1"/>
        <pt x="293" y="-73" on="0"/>
        <pt x="384" y="-175" on="0"/>
        <pt x="463" y="-175" on="1"/>
        <pt x="483" y="-175" on="1"/>
        <pt x="496" y="-175" on="0"/>
        <pt x="524" y="-194" on="0"/>
        <pt x="524" y="-214" on="1"/>
        <pt x="524" y="-296" on="1"/>
        <pt x="470" y="-296" on="1"/>
        <pt x="386" y="-296" on="0"/>
        <pt x="260" y="-248" on="0"/>
        <pt x="175" y="-162" on="0"/>
        <pt x="133" y="-43" on="0"/>
        <pt x="133" y="28" on="1"/>
        <pt x="133" y="81" on="0"/>
        <pt x="149" y="182" on="0"/>
        <pt x="169" y="284" on="0"/>
        <pt x="185" y="384" on="0"/>
      </contour>
    </TTGlyph>
    <TTGlyph name="braceright" xMin="90" yMin="-296" xMax="569" yMax="1570">
      <contour>
        <pt x="429" y="435" on="1"/>
        <pt x="429" y="384" on="0"/>
        <pt x="445" y="284" on="0"/>
        <pt x="465" y="182" on="0"/>
        <pt x="481" y="81" on="0"/>
        <pt x="481" y="28" on="1"/>
        <pt x="481" y="-43" on="0"/>
        <pt x="438" y="-162" on="0"/>
        <pt x="354" y="-248" on="0"/>
        <pt x="228" y="-296" on="0"/>
        <pt x="144" y="-296" on="1"/>
        <pt x="90" y="-296" on="1"/>
        <pt x="90" y="-214" on="1"/>
        <pt x="90" y="-194" on="0"/>
        <pt x="119" y="-175" on="0"/>
        <pt x="131" y="-175" on="1"/>
        <pt x="151" y="-175" on="1"/>
        <pt x="230" y="-175" on="0"/>
        <pt x="321" y="-73" on="0"/>
        <pt x="321" y="16" on="1"/>
        <pt x="321" y="74" on="0"/>
        <pt x="307" y="180" on="0"/>
        <pt x="289" y="282" on="0"/>
        <pt x="274" y="382" on="0"/>
        <pt x="274" y="433" on="1"/>
        <pt x="274" y="471" on="0"/>
        <pt x="297" y="537" on="0"/>
        <pt x="339" y="590" on="0"/>
        <pt x="395" y="628" on="0"/>
        <pt x="429" y="637" on="1"/>
        <pt x="395" y="646" on="0"/>
        <pt x="339" y="684" on="0"/>
        <pt x="297" y="736" on="0"/>
        <pt x="274" y="803" on="0"/>
        <pt x="274" y="842" on="1"/>
        <pt x="274" y="893" on="0"/>
        <pt x="289" y="993" on="0"/>
        <pt x="307" y="1095" on="0"/>
        <pt x="321" y="1201" on="0"/>
        <pt x="321" y="1258" on="1"/>
        <pt x="321" y="1347" on="0"/>
        <pt x="230" y="1450" on="0"/>
        <pt x="151" y="1450" on="1"/>
        <pt x="131" y="1450" on="1"/>
        <pt x="119" y="1450" on="0"/>
        <pt x="90" y="1468" on="0"/>
        <pt x="90" y="1489" on="1"/>
        <pt x="90" y="1570" on="1"/>
        <pt x="144" y="1570" on="1"/>
        <pt x="228" y="1570" on="0"/>
        <pt x="354" y="1523" on="0"/>
        <pt x="438" y="1437" on="0"/>
        <pt x="481" y="1318" on="0"/>
        <pt x="481" y="1247" on="1"/>
        <pt x="481" y="1194" on="0"/>
        <pt x="465" y="1092" on="0"/>
        <pt x="445" y="991" on="0"/>
        <pt x="429" y="891" on="0"/>
        <pt x="429" y="840" on="1"/>
        <pt x="429" y="774" on="0"/>
        <pt x="501" y="692" on="0"/>
        <pt x="569" y="692" on="1"/>
        <pt x="569" y="583" on="1"/>
        <pt x="501" y="583" on="0"/>
        <pt x="429" y="500" on="0"/>
      </contour>
    </TTGlyph>
    <TTGlyph name="colon" xMin="131" yMin="-15" xMax="386" yMax="1010">
      <contour>
        <pt x="131" y="113" on="1"/>
        <pt x="131" y="139" on="0"/>
        <pt x="150" y="186" on="0"/>
        <pt x="184" y="221" on="0"/>
        <pt x="231" y="242" on="0"/>
        <pt x="258" y="242" on="1"/>
        <pt x="285" y="242" on="0"/>
        <pt x="332" y="221" on="0"/>
        <pt x="367" y="186" on="0"/>
        <pt x="386" y="139" on="0"/>
        <pt x="386" y="113" on="1"/>
        <pt x="386" y="85" on="0"/>
        <pt x="367" y="39" on="0"/>
        <pt x="332" y="4" on="0"/>
        <pt x="285" y="-15" on="0"/>
        <pt x="258" y="-15" on="1"/>
        <pt x="231" y="-15" on="0"/>
        <pt x="184" y="4" on="0"/>
        <pt x="150" y="39" on="0"/>
        <pt x="131" y="85" on="0"/>
      </contour>
      <contour>
        <pt x="131" y="881" on="1"/>
        <pt x="131" y="907" on="0"/>
        <pt x="150" y="954" on="0"/>
        <pt x="184" y="989" on="0"/>
        <pt x="231" y="1010" on="0"/>
        <pt x="258" y="1010" on="1"/>
        <pt x="285" y="1010" on="0"/>
        <pt x="332" y="989" on="0"/>
        <pt x="367" y="954" on="0"/>
        <pt x="386" y="907" on="0"/>
        <pt x="386" y="881" on="1"/>
        <pt x="386" y="853" on="0"/>
        <pt x="367" y="807" on="0"/>
        <pt x="332" y="772" on="0"/>
        <pt x="285" y="753" on="0"/>
        <pt x="258" y="753" on="1"/>
        <pt x="231" y="753" on="0"/>
        <pt x="184" y="772" on="0"/>
        <pt x="150" y="807" on="0"/>
        <pt x="131" y="853" on="0"/>
      </contour>
    </TTGlyph>
    <TTGlyph name="comma" xMin="96" yMin="-278" xMax="344" yMax="242">
      <contour>
        <pt x="96" y="126" on="1"/>
        <pt x="96" y="150" on="0"/>
        <pt x="113" y="191" on="0"/>
        <pt x="145" y="223" on="0"/>
        <pt x="190" y="242" on="0"/>
        <pt x="217" y="242" on="1"/>
        <pt x="248" y="242" on="0"/>
        <pt x="296" y="219" on="0"/>
        <pt x="327" y="179" on="0"/>
        <pt x="344" y="127" on="0"/>
        <pt x="344" y="96" on="1"/>
        <pt x="344" y="50" on="0"/>
        <pt x="317" y="-49" on="0"/>
        <pt x="268" y="-146" on="0"/>
        <pt x="195" y="-239" on="0"/>
        <pt x="149" y="-278" on="1"/>
        <pt x="119" y="-248" on="1"/>
        <pt x="105" y="-236" on="0"/>
        <pt x="105" y="-219" on="1"/>
        <pt x="105" y="-206" on="0"/>
        <pt x="120" y="-191" on="1"/>
        <pt x="130" y="-180" on="0"/>
        <pt x="162" y="-142" on="0"/>
        <pt x="194" y="-93" on="0"/>
        <pt x="222" y="-34" on="0"/>
        <pt x="228" y="0" on="1"/>
        <pt x="215" y="0" on="1"/>
        <pt x="188" y="0" on="0"/>
        <pt x="145" y="18" on="0"/>
        <pt x="113" y="52" on="0"/>
        <pt x="96" y="98" on="0"/>
      </contour>
    </TTGlyph>
    <TTGlyph name="dollar" xMin="108" yMin="-244" xMax="1085" yMax="1678">
      <contour>
        <pt x="509" y="-12" on="1"/>
        <pt x="386" y="-1" on="0"/>
        <pt x="182" y="98" on="0"/>
        <pt x="108" y="175" on="1"/>
        <pt x="162" y="259" on="1"/>
        <pt x="169" y="270" on="0"/>
        <pt x="196" y="285" on="0"/>
        <pt x="210" y="285" on="1"/>
        <pt x="230" y="285" on="0"/>
        <pt x="279" y="246" on="0"/>
        <pt x="351" y="196" on="0"/>
        <pt x="450" y="148" on="0"/>
        <pt x="520" y="140" on="1"/>
        <pt x="558" y="684" on="1"/>
        <pt x="486" y="706" on="0"/>
        <pt x="348" y="760" on="0"/>
        <pt x="238" y="847" on="0"/>
        <pt x="171" y="979" on="0"/>
        <pt x="171" y="1078" on="1"/>
        <pt x="171" y="1153" on="0"/>
        <pt x="230" y="1295" on="0"/>
        <pt x="341" y="1406" on="0"/>
        <pt x="505" y="1477" on="0"/>
        <pt x="612" y="1481" on="1"/>
        <pt x="622" y="1628" on="1"/>
        <pt x="624" y="1648" on="0"/>
        <pt x="651" y="1678" on="0"/>
        <pt x="673" y="1678" on="1"/>
        <pt x="741" y="1678" on="1"/>
        <pt x="726" y="1476" on="1"/>
        <pt x="834" y="1462" on="0"/>
        <pt x="990" y="1378" on="0"/>
        <pt x="1051" y="1319" on="1"/>
        <pt x="1007" y="1251" on="1"/>
        <pt x="987" y="1221" on="0"/>
        <pt x="960" y="1221" on="1"/>
        <pt x="946" y="1221" on="0"/>
        <pt x="904" y="1246" on="0"/>
        <pt x="844" y="1280" on="0"/>
        <pt x="766" y="1314" on="0"/>
        <pt x="716" y="1321" on="1"/>
        <pt x="682" y="825" on="1"/>
        <pt x="756" y="803" on="0"/>
        <pt x="900" y="750" on="0"/>
        <pt x="1014" y="666" on="0"/>
        <pt x="1085" y="540" on="0"/>
        <pt x="1085" y="445" on="1"/>
        <pt x="1085" y="353" on="0"/>
        <pt x="1023" y="191" on="0"/>
        <pt x="906" y="69" on="0"/>
        <pt x="735" y="-8" on="0"/>
        <pt x="625" y="-14" on="1"/>
        <pt x="613" y="-195" on="1"/>
        <pt x="611" y="-214" on="0"/>
        <pt x="583" y="-244" on="0"/>
        <pt x="562" y="-244" on="1"/>
        <pt x="494" y="-244" on="1"/>
      </contour>
      <contour>
        <pt x="912" y="417" on="1"/>
        <pt x="912" y="468" on="0"/>
        <pt x="874" y="542" on="0"/>
        <pt x="808" y="595" on="0"/>
        <pt x="720" y="634" on="0"/>
        <pt x="670" y="650" on="1"/>
        <pt x="635" y="140" on="1"/>
        <pt x="702" y="146" on="0"/>
        <pt x="805" y="193" on="0"/>
        <pt x="876" y="264" on="0"/>
        <pt x="912" y="359" on="0"/>
      </contour>
      <contour>
        <pt x="344" y="1097" on="1"/>
        <pt x="344" y="1048" on="0"/>
        <pt x="378" y="975" on="0"/>
        <pt x="440" y="920" on="0"/>
        <pt x="522" y="879" on="0"/>
        <pt x="570" y="862" on="1"/>
        <pt x="601" y="1324" on="1"/>
        <pt x="534" y="1318" on="0"/>
        <pt x="437" y="1277" on="0"/>
        <pt x="374" y="1215" on="0"/>
        <pt x="344" y="1139" on="0"/>
      </contour>
    </TTGlyph>
    <TTGlyph name="eight" xMin="98" yMin="-16" xMax="1087" yMax="1484">
      <contour>
        <pt x="593" y="-16" on="1"/>
        <pt x="483" y="-16" on="0"/>
        <pt x="301" y="42" on="0"/>
        <pt x="170" y="151" on="0"/>
        <pt x="98" y="305" on="0"/>
        <pt x="98" y="401" on="1"/>
        <pt x="98" y="543" on="0"/>
        <pt x="245" y="726" on="0"/>
        <pt x="383" y="765" on="1"/>
        <pt x="267" y="808" on="0"/>
        <pt x="149" y="979" on="0"/>
        <pt x="149" y="1098" on="1"/>
        <pt x="149" y="1179" on="0"/>
        <pt x="213" y="1320" on="0"/>
        <pt x="329" y="1424" on="0"/>
        <pt x="492" y="1484" on="0"/>
        <pt x="593" y="1484" on="1"/>
        <pt x="692" y="1484" on="0"/>
        <pt x="856" y="1424" on="0"/>
        <pt x="972" y="1320" on="0"/>
        <pt x="1036" y="1179" on="0"/>
        <pt x="1036" y="1098" on="1"/>
        <pt x="1036" y="979" on="0"/>
        <pt x="917" y="808" on="0"/>
        <pt x="803" y="765" on="1"/>
        <pt x="940" y="726" on="0"/>
        <pt x="1087" y="543" on="0"/>
        <pt x="1087" y="401" on="1"/>
        <pt x="1087" y="305" on="0"/>
        <pt x="1014" y="151" on="0"/>
        <pt x="884" y="42" on="0"/>
        <pt x="702" y="-16" on="0"/>
      </contour>
      <contour>
        <pt x="593" y="129" on="1"/>
        <pt x="664" y="129" on="0"/>
        <pt x="778" y="169" on="0"/>
        <pt x="857" y="242" on="0"/>
        <pt x="899" y="343" on="0"/>
        <pt x="899" y="404" on="1"/>
        <pt x="899" y="480" on="0"/>
        <pt x="849" y="588" on="0"/>
        <pt x="764" y="655" on="0"/>
        <pt x="653" y="687" on="0"/>
        <pt x="593" y="687" on="1"/>
        <pt x="532" y="687" on="0"/>
        <pt x="422" y="655" on="0"/>
        <pt x="337" y="588" on="0"/>
        <pt x="286" y="480" on="0"/>
        <pt x="286" y="404" on="1"/>
        <pt x="286" y="343" on="0"/>
        <pt x="328" y="242" on="0"/>
        <pt x="407" y="169" on="0"/>
        <pt x="521" y="129" on="0"/>
      </contour>
      <contour>
        <pt x="593" y="834" on="1"/>
        <pt x="664" y="834" on="0"/>
        <pt x="766" y="878" on="0"/>
        <pt x="829" y="950" on="0"/>
        <pt x="858" y="1044" on="0"/>
        <pt x="858" y="1095" on="1"/>
        <pt x="858" y="1146" on="0"/>
        <pt x="824" y="1236" on="0"/>
        <pt x="757" y="1304" on="0"/>
        <pt x="658" y="1342" on="0"/>
        <pt x="593" y="1342" on="1"/>
        <pt x="527" y="1342" on="0"/>
        <pt x="428" y="1304" on="0"/>
        <pt x="361" y="1236" on="0"/>
        <pt x="327" y="1146" on="0"/>
        <pt x="327" y="1095" on="1"/>
        <pt x="327" y="1044" on="0"/>
        <pt x="356" y="950" on="0"/>
        <pt x="420" y="878" on="0"/>
        <pt x="521" y="834" on="0"/>
      </contour>
    </TTGlyph>
    <TTGlyph name="equal" xMin="153" yMin="450" xMax="1033" yMax="931">
      <contour>
        <pt x="153" y="588" on="1"/>
        <pt x="1033" y="588" on="1"/>
        <pt x="1033" y="450" on="1"/>
        <pt x="153" y="450" on="1"/>
      </contour>
      <contour>
        <pt x="153" y="931" on="1"/>
        <pt x="1033" y="931" on="1"/>
        <pt x="1033" y="793" on="1"/>
        <pt x="153" y="793" on="1"/>
      </contour>
    </TTGlyph>
    <TTGlyph name="exclam" xMin="223" yMin="-15" xMax="478" yMax="1467">
      <contour>
        <pt x="440" y="1467" on="1"/>
        <pt x="440" y="882" on="1"/>
        <pt x="440" y="836" on="0"/>
        <pt x="437" y="748" on="0"/>
        <pt x="431" y="658" on="0"/>
        <pt x="422" y="565" on="0"/>
        <pt x="416" y="512" on="1"/>
        <pt x="292" y="512" on="1"/>
        <pt x="285" y="565" on="0"/>
        <pt x="276" y="658" on="0"/>
        <pt x="270" y="748" on="0"/>
        <pt x="267" y="836" on="0"/>
        <pt x="267" y="882" on="1"/>
        <pt x="267" y="1467" on="1"/>
      </contour>
      <contour>
        <pt x="223" y="113" on="1"/>
        <pt x="223" y="139" on="0"/>
        <pt x="242" y="186" on="0"/>
        <pt x="276" y="221" on="0"/>
        <pt x="323" y="242" on="0"/>
        <pt x="350" y="242" on="1"/>
        <pt x="377" y="242" on="0"/>
        <pt x="424" y="221" on="0"/>
        <pt x="459" y="186" on="0"/>
        <pt x="478" y="139" on="0"/>
        <pt x="478" y="113" on="1"/>
        <pt x="478" y="85" on="0"/>
        <pt x="459" y="39" on="0"/>
        <pt x="424" y="4" on="0"/>
        <pt x="377" y="-15" on="0"/>
        <pt x="350" y="-15" on="1"/>
        <pt x="323" y="-15" on="0"/>
        <pt x="276" y="4" on="0"/>
        <pt x="242" y="39" on="0"/>
        <pt x="223" y="85" on="0"/>
      </contour>
    </TTGlyph>
    <TTGlyph name="five" xMin="110" yMin="-16" xMax="1046" yMax="1467">
      <contour>
        <pt x="1001" y="1388" on="1"/>
        <pt x="1001" y="1349" on="0"/>
        <pt x="952" y="1298" on="0"/>
        <pt x="893" y="1298" on="1"/>
        <pt x="433" y="1298" on="1"/>
        <pt x="365" y="913" on="1"/>
        <pt x="480" y="938" on="0"/>
        <pt x="577" y="938" on="1"/>
        <pt x="692" y="938" on="0"/>
        <pt x="867" y="870" on="0"/>
        <pt x="986" y="752" on="0"/>
        <pt x="1046" y="590" on="0"/>
        <pt x="1046" y="495" on="1"/>
        <pt x="1046" y="378" on="0"/>
        <pt x="964" y="189" on="0"/>
        <pt x="822" y="55" on="0"/>
        <pt x="629" y="-16" on="0"/>
        <pt x="518" y="-16" on="1"/>
        <pt x="453" y="-16" on="0"/>
        <pt x="334" y="9" on="0"/>
        <pt x="232" y="52" on="0"/>
        <pt x="144" y="108" on="0"/>
        <pt x="110" y="138" on="1"/>
        <pt x="165" y="216" on="1"/>
        <pt x="184" y="243" on="0"/>
        <pt x="214" y="243" on="1"/>
        <pt x="234" y="243" on="0"/>
        <pt x="286" y="211" on="0"/>
        <pt x="360" y="172" on="0"/>
        <pt x="459" y="140" on="0"/>
        <pt x="528" y="140" on="1"/>
        <pt x="605" y="140" on="0"/>
        <pt x="727" y="189" on="0"/>
        <pt x="815" y="281" on="0"/>
        <pt x="862" y="408" on="0"/>
        <pt x="862" y="486" on="1"/>
        <pt x="862" y="555" on="0"/>
        <pt x="822" y="666" on="0"/>
        <pt x="741" y="743" on="0"/>
        <pt x="620" y="786" on="0"/>
        <pt x="539" y="786" on="1"/>
        <pt x="484" y="786" on="0"/>
        <pt x="365" y="768" on="0"/>
        <pt x="301" y="748" on="1"/>
        <pt x="187" y="781" on="1"/>
        <pt x="306" y="1467" on="1"/>
        <pt x="1001" y="1467" on="1"/>
      </contour>
    </TTGlyph>
    <TTGlyph name="four" xMin="40" yMin="0" xMax="1146" yMax="1467">
      <contour>
        <pt x="924" y="529" on="1"/>
        <pt x="1146" y="529" on="1"/>
        <pt x="1146" y="425" on="1"/>
        <pt x="1146" y="409" on="0"/>
        <pt x="1126" y="386" on="0"/>
        <pt x="1106" y="386" on="1"/>
        <pt x="924" y="386" on="1"/>
        <pt x="924" y="0" on="1"/>
        <pt x="763" y="0" on="1"/>
        <pt x="763" y="386" on="1"/>
        <pt x="113" y="386" on="1"/>
        <pt x="92" y="386" on="0"/>
        <pt x="63" y="410" on="0"/>
        <pt x="58" y="427" on="1"/>
        <pt x="40" y="520" on="1"/>
        <pt x="754" y="1467" on="1"/>
        <pt x="924" y="1467" on="1"/>
      </contour>
      <contour>
        <pt x="763" y="1135" on="1"/>
        <pt x="763" y="1161" on="0"/>
        <pt x="766" y="1223" on="0"/>
        <pt x="771" y="1255" on="1"/>
        <pt x="238" y="529" on="1"/>
        <pt x="763" y="529" on="1"/>
      </contour>
    </TTGlyph>
    <TTGlyph name="greater" xMin="243" yMin="240" xMax="1035" yMax="1138">
      <contour>
        <pt x="243" y="240" on="1"/>
        <pt x="243" y="371" on="1"/>
        <pt x="243" y="387" on="0"/>
        <pt x="259" y="414" on="0"/>
        <pt x="280" y="424" on="1"/>
        <pt x="740" y="656" on="1"/>
        <pt x="760" y="667" on="0"/>
        <pt x="804" y="683" on="0"/>
        <pt x="830" y="688" on="1"/>
        <pt x="804" y="694" on="0"/>
        <pt x="760" y="710" on="0"/>
        <pt x="740" y="721" on="1"/>
        <pt x="280" y="954" on="1"/>
        <pt x="259" y="965" on="0"/>
        <pt x="243" y="990" on="0"/>
        <pt x="243" y="1008" on="1"/>
        <pt x="243" y="1138" on="1"/>
        <pt x="1035" y="727" on="1"/>
        <pt x="1035" y="651" on="1"/>
      </contour>
    </TTGlyph>
    <TTGlyph name="guillemotleft" xMin="141" yMin="132" xMax="787" yMax="952">
      <contour>
        <pt x="141" y="530" on="1"/>
        <pt x="141" y="554" on="1"/>
        <pt x="396" y="952" on="1"/>
        <pt x="455" y="924" on="1"/>
        <pt x="470" y="916" on="0"/>
        <pt x="484" y="894" on="0"/>
        <pt x="484" y="881" on="1"/>
        <pt x="484" y="863" on="0"/>
        <pt x="474" y="847" on="1"/>
        <pt x="311" y="580" on="1"/>
        <pt x="297" y="555" on="0"/>
        <pt x="282" y="542" on="1"/>
        <pt x="298" y="527" on="0"/>
        <pt x="311" y="505" on="1"/>
        <pt x="474" y="238" on="1"/>
        <pt x="479" y="229" on="0"/>
        <pt x="484" y="211" on="0"/>
        <pt x="484" y="203" on="1"/>
        <pt x="484" y="174" on="0"/>
        <pt x="455" y="161" on="1"/>
        <pt x="396" y="132" on="1"/>
      </contour>
      <contour>
        <pt x="444" y="530" on="1"/>
        <pt x="444" y="554" on="1"/>
        <pt x="699" y="952" on="1"/>
        <pt x="758" y="924" on="1"/>
        <pt x="773" y="916" on="0"/>
        <pt x="787" y="894" on="0"/>
        <pt x="787" y="881" on="1"/>
        <pt x="787" y="863" on="0"/>
        <pt x="777" y="847" on="1"/>
        <pt x="614" y="580" on="1"/>
        <pt x="600" y="555" on="0"/>
        <pt x="585" y="542" on="1"/>
        <pt x="601" y="527" on="0"/>
        <pt x="614" y="505" on="1"/>
        <pt x="777" y="238" on="1"/>
        <pt x="782" y="229" on="0"/>
        <pt x="787" y="211" on="0"/>
        <pt x="787" y="203" on="1"/>
        <pt x="787" y="174" on="0"/>
        <pt x="758" y="161" on="1"/>
        <pt x="699" y="132" on="1"/>
      </contour>
    </TTGlyph>
    <TTGlyph name="guillemotright" xMin="153" yMin="132" xMax="799" yMax="952">
      <contour>
        <pt x="241" y="132" on="1"/>
        <pt x="182" y="161" on="1"/>
        <pt x="153" y="174" on="0"/>
        <pt x="153" y="203" on="1"/>
        <pt x="153" y="220" on="0"/>
        <pt x="163" y="238" on="1"/>
        <pt x="326" y="505" on="1"/>
        <pt x="339" y="529" on="0"/>
        <pt x="354" y="542" on="1"/>
        <pt x="341" y="553" on="0"/>
        <pt x="326" y="580" on="1"/>
        <pt x="163" y="847" on="1"/>
        <pt x="153" y="864" on="0"/>
        <pt x="153" y="882" on="1"/>
        <pt x="153" y="910" on="0"/>
        <pt x="182" y="924" on="1"/>
        <pt x="241" y="952" on="1"/>
        <pt x="496" y="554" on="1"/>
        <pt x="496" y="530" on="1"/>
      </contour>
      <contour>
        <pt x="799" y="554" on="1"/>
        <pt x="799" y="530" on="1"/>
        <pt x="544" y="132" on="1"/>
        <pt x="485" y="161" on="1"/>
        <pt x="456" y="174" on="0"/>
        <pt x="456" y="203" on="1"/>
        <pt x="456" y="220" on="0"/>
        <pt x="466" y="238" on="1"/>
        <pt x="629" y="505" on="1"/>
        <pt x="642" y="529" on="0"/>
        <pt x="657" y="542" on="1"/>
        <pt x="645" y="553" on="0"/>
        <pt x="629" y="580" on="1"/>
        <pt x="466" y="847" on="1"/>
        <pt x="456" y="864" on="0"/>
        <pt x="456" y="882" on="1"/>
        <pt x="456" y="910" on="0"/>
        <pt x="485" y="924" on="1"/>
        <pt x="544" y="952" on="1"/>
      </contour>
    </TTGlyph>
    <TTGlyph name="hyphen" xMin="102" yMin="537" xMax="608" yMax="691">
      <contour>
        <pt x="102" y="691" on="1"/>
        <pt x="608" y="691" on="1"/>
        <pt x="608" y="537" on="1"/>
        <pt x="102" y="537" on="1"/>
      </contour>
    </TTGlyph>
    <TTGlyph name="less" xMin="151" yMin="240" xMax="944" yMax="1138">
      <contour>
        <pt x="151" y="727" on="1"/>
        <pt x="944" y="1138" on="1"/>
        <pt x="944" y="1008" on="1"/>
        <pt x="944" y="990" on="0"/>
        <pt x="927" y="965" on="0"/>
        <pt x="907" y="954" on="1"/>
        <pt x="447" y="721" on="1"/>
        <pt x="426" y="710" on="0"/>
        <pt x="380" y="694" on="0"/>
        <pt x="355" y="688" on="1"/>
        <pt x="380" y="683" on="0"/>
        <pt x="426" y="667" on="0"/>
        <pt x="447" y="656" on="1"/>
        <pt x="907" y="424" on="1"/>
        <pt x="927" y="414" on="0"/>
        <pt x="944" y="387" on="0"/>
        <pt x="944" y="371" on="1"/>
        <pt x="944" y="240" on="1"/>
        <pt x="151" y="651" on="1"/>
      </contour>
    </TTGlyph>
    <TTGlyph name="nine" xMin="151" yMin="0" xMax="1103" yMax="1484">
      <contour>
        <pt x="562" y="602" on="1"/>
        <pt x="479" y="602" on="0"/>
        <pt x="330" y="657" on="0"/>
        <pt x="218" y="765" on="0"/>
        <pt x="151" y="922" on="0"/>
        <pt x="151" y="1023" on="1"/>
        <pt x="151" y="1119" on="0"/>
        <pt x="223" y="1287" on="0"/>
        <pt x="352" y="1412" on="0"/>
        <pt x="530" y="1484" on="0"/>
        <pt x="636" y="1484" on="1"/>
        <pt x="742" y="1484" on="0"/>
        <pt x="914" y="1414" on="0"/>
        <pt x="1037" y="1289" on="0"/>
        <pt x="1103" y="1115" on="0"/>
        <pt x="1103" y="1010" on="1"/>
        <pt x="1103" y="946" on="0"/>
        <pt x="1080" y="833" on="0"/>
        <pt x="1035" y="724" on="0"/>
        <pt x="972" y="616" on="0"/>
        <pt x="932" y="559" on="1"/>
        <pt x="575" y="43" on="1"/>
        <pt x="562" y="24" on="0"/>
        <pt x="512" y="0" on="0"/>
        <pt x="481" y="0" on="1"/>
        <pt x="313" y="0" on="1"/>
        <pt x="759" y="585" on="1"/>
        <pt x="782" y="614" on="0"/>
        <pt x="821" y="668" on="0"/>
        <pt x="838" y="694" on="1"/>
        <pt x="782" y="649" on="0"/>
        <pt x="640" y="602" on="0"/>
      </contour>
      <contour>
        <pt x="928" y="1031" on="1"/>
        <pt x="928" y="1100" on="0"/>
        <pt x="884" y="1211" on="0"/>
        <pt x="806" y="1289" on="0"/>
        <pt x="699" y="1331" on="0"/>
        <pt x="634" y="1331" on="1"/>
        <pt x="567" y="1331" on="0"/>
        <pt x="455" y="1287" on="0"/>
        <pt x="376" y="1209" on="0"/>
        <pt x="333" y="1101" on="0"/>
        <pt x="333" y="1036" on="1"/>
        <pt x="333" y="967" on="0"/>
        <pt x="373" y="857" on="0"/>
        <pt x="448" y="781" on="0"/>
        <pt x="555" y="742" on="0"/>
        <pt x="622" y="742" on="1"/>
        <pt x="696" y="742" on="0"/>
        <pt x="809" y="791" on="0"/>
        <pt x="887" y="870" on="0"/>
        <pt x="928" y="975" on="0"/>
      </contour>
    </TTGlyph>
    <TTGlyph name="numbersign" xMin="55" yMin="0" xMax="1131" yMax="1467">
      <contour>
        <pt x="809" y="433" on="1"/>
        <pt x="723" y="0" on="1"/>
        <pt x="640" y="0" on="1"/>
        <pt x="616" y="0" on="0"/>
        <pt x="583" y="35" on="0"/>
        <pt x="583" y="62" on="1"/>
        <pt x="583" y="67" on="0"/>
        <pt x="584" y="74" on="0"/>
        <pt x="585" y="79" on="1"/>
        <pt x="658" y="433" on="1"/>
        <pt x="405" y="433" on="1"/>
        <pt x="333" y="70" on="1"/>
        <pt x="324" y="32" on="0"/>
        <pt x="278" y="0" on="0"/>
        <pt x="249" y="0" on="1"/>
        <pt x="168" y="0" on="1"/>
        <pt x="255" y="433" on="1"/>
        <pt x="105" y="433" on="1"/>
        <pt x="82" y="433" on="0"/>
        <pt x="55" y="457" on="0"/>
        <pt x="55" y="485" on="1"/>
        <pt x="55" y="490" on="0"/>
        <pt x="56" y="503" on="0"/>
        <pt x="57" y="509" on="1"/>
        <pt x="65" y="567" on="1"/>
        <pt x="274" y="567" on="1"/>
        <pt x="341" y="901" on="1"/>
        <pt x="103" y="901" on="1"/>
        <pt x="116" y="977" on="1"/>
        <pt x="122" y="1007" on="0"/>
        <pt x="158" y="1035" on="0"/>
        <pt x="198" y="1035" on="1"/>
        <pt x="360" y="1035" on="1"/>
        <pt x="434" y="1402" on="1"/>
        <pt x="440" y="1433" on="0"/>
        <pt x="484" y="1467" on="0"/>
        <pt x="515" y="1467" on="1"/>
        <pt x="597" y="1467" on="1"/>
        <pt x="511" y="1035" on="1"/>
        <pt x="764" y="1035" on="1"/>
        <pt x="850" y="1467" on="1"/>
        <pt x="931" y="1467" on="1"/>
        <pt x="956" y="1467" on="0"/>
        <pt x="990" y="1437" on="0"/>
        <pt x="990" y="1412" on="1"/>
        <pt x="990" y="1404" on="0"/>
        <pt x="989" y="1399" on="1"/>
        <pt x="914" y="1035" on="1"/>
        <pt x="1131" y="1035" on="1"/>
        <pt x="1118" y="958" on="1"/>
        <pt x="1113" y="929" on="0"/>
        <pt x="1075" y="901" on="0"/>
        <pt x="1036" y="901" on="1"/>
        <pt x="895" y="901" on="1"/>
        <pt x="828" y="567" on="1"/>
        <pt x="1011" y="567" on="1"/>
        <pt x="1036" y="567" on="0"/>
        <pt x="1063" y="544" on="0"/>
        <pt x="1063" y="514" on="1"/>
        <pt x="1063" y="509" on="0"/>
        <pt x="1062" y="498" on="0"/>
        <pt x="1061" y="492" on="1"/>
        <pt x="1051" y="433" on="1"/>
      </contour>
      <contour>
        <pt x="425" y="567" on="1"/>
        <pt x="678" y="567" on="1"/>
        <pt x="744" y="901" on="1"/>
        <pt x="491" y="901" on="1"/>
      </contour>
    </TTGlyph>
    <TTGlyph name="one" xMin="206" yMin="0" xMax="1079" yMax="1470">
      <contour>
        <pt x="293" y="139" on="1"/>
        <pt x="608" y="139" on="1"/>
        <pt x="608" y="1140" on="1"/>
        <pt x="608" y="1185" on="0"/>
        <pt x="612" y="1231" on="1"/>
        <pt x="349" y="1007" on="1"/>
        <pt x="339" y="998" on="0"/>
        <pt x="319" y="991" on="0"/>
        <pt x="309" y="991" on="1"/>
        <pt x="294" y="991" on="0"/>
        <pt x="269" y="1005" on="0"/>
        <pt x="263" y="1014" on="1"/>
        <pt x="206" y="1093" on="1"/>
        <pt x="642" y="1470" on="1"/>
        <pt x="791" y="1470" on="1"/>
        <pt x="791" y="139" on="1"/>
        <pt x="1079" y="139" on="1"/>
        <pt x="1079" y="0" on="1"/>
        <pt x="293" y="0" on="1"/>
      </contour>
    </TTGlyph>
    <TTGlyph name="parenleft" xMin="137" yMin="-300" xMax="525" yMax="1588">
      <contour>
        <pt x="296" y="644" on="1"/>
        <pt x="296" y="425" on="0"/>
        <pt x="408" y="12" on="0"/>
        <pt x="515" y="-175" on="1"/>
        <pt x="521" y="-186" on="0"/>
        <pt x="525" y="-203" on="0"/>
        <pt x="525" y="-211" on="1"/>
        <pt x="525" y="-225" on="0"/>
        <pt x="511" y="-244" on="0"/>
        <pt x="499" y="-251" on="1"/>
        <pt x="419" y="-300" on="1"/>
        <pt x="342" y="-182" on="0"/>
        <pt x="234" y="49" on="0"/>
        <pt x="168" y="283" on="0"/>
        <pt x="137" y="519" on="0"/>
        <pt x="137" y="644" on="1"/>
        <pt x="137" y="768" on="0"/>
        <pt x="168" y="1006" on="0"/>
        <pt x="234" y="1238" on="0"/>
        <pt x="342" y="1469" on="0"/>
        <pt x="419" y="1588" on="1"/>
        <pt x="499" y="1538" on="1"/>
        <pt x="511" y="1531" on="0"/>
        <pt x="525" y="1512" on="0"/>
        <pt x="525" y="1498" on="1"/>
        <pt x="525" y="1483" on="0"/>
        <pt x="515" y="1463" on="1"/>
        <pt x="407" y="1277" on="0"/>
        <pt x="296" y="863" on="0"/>
      </contour>
    </TTGlyph>
    <TTGlyph name="parenright" xMin="75" yMin="-300" xMax="463" yMax="1588">
      <contour>
        <pt x="304" y="644" on="1"/>
        <pt x="304" y="863" on="0"/>
        <pt x="193" y="1277" on="0"/>
        <pt x="85" y="1463" on="1"/>
        <pt x="75" y="1483" on="0"/>
        <pt x="75" y="1498" on="1"/>
        <pt x="75" y="1512" on="0"/>
        <pt x="89" y="1531" on="0"/>
        <pt x="101" y="1538" on="1"/>
        <pt x="181" y="1588" on="1"/>
        <pt x="258" y="1469" on="0"/>
        <pt x="366" y="1238" on="0"/>
        <pt x="432" y="1006" on="0"/>
        <pt x="463" y="768" on="0"/>
        <pt x="463" y="644" on="1"/>
        <pt x="463" y="519" on="0"/>
        <pt x="432" y="283" on="0"/>
        <pt x="366" y="49" on="0"/>
        <pt x="258" y="-182" on="0"/>
        <pt x="181" y="-300" on="1"/>
        <pt x="101" y="-251" on="1"/>
        <pt x="89" y="-244" on="0"/>
        <pt x="75" y="-225" on="0"/>
        <pt x="75" y="-211" on="1"/>
        <pt x="75" y="-203" on="0"/>
        <pt x="79" y="-186" on="0"/>
        <pt x="85" y="-175" on="1"/>
        <pt x="192" y="12" on="0"/>
        <pt x="304" y="425" on="0"/>
      </contour>
    </TTGlyph>
    <TTGlyph name="percent" xMin="73" yMin="-17" xMax="1534" yMax="1482">
      <contour>
        <pt x="723" y="1113" on="1"/>
        <pt x="723" y="1027" on="0"/>
        <pt x="670" y="891" on="0"/>
        <pt x="581" y="798" on="0"/>
        <pt x="462" y="749" on="0"/>
        <pt x="398" y="749" on="1"/>
        <pt x="328" y="749" on="0"/>
        <pt x="210" y="798" on="0"/>
        <pt x="122" y="891" on="0"/>
        <pt x="73" y="1027" on="0"/>
        <pt x="73" y="1113" on="1"/>
        <pt x="73" y="1201" on="0"/>
        <pt x="122" y="1338" on="0"/>
        <pt x="210" y="1433" on="0"/>
        <pt x="328" y="1482" on="0"/>
        <pt x="398" y="1482" on="1"/>
        <pt x="466" y="1482" on="0"/>
        <pt x="586" y="1433" on="0"/>
        <pt x="673" y="1338" on="0"/>
        <pt x="723" y="1201" on="0"/>
      </contour>
      <contour>
        <pt x="581" y="1113" on="1"/>
        <pt x="581" y="1181" on="0"/>
        <pt x="552" y="1275" on="0"/>
        <pt x="502" y="1335" on="0"/>
        <pt x="435" y="1362" on="0"/>
        <pt x="398" y="1362" on="1"/>
        <pt x="360" y="1362" on="0"/>
        <pt x="293" y="1335" on="0"/>
        <pt x="244" y="1275" on="0"/>
        <pt x="216" y="1181" on="0"/>
        <pt x="216" y="1113" on="1"/>
        <pt x="216" y="1047" on="0"/>
        <pt x="244" y="953" on="0"/>
        <pt x="293" y="895" on="0"/>
        <pt x="360" y="869" on="0"/>
        <pt x="398" y="869" on="1"/>
        <pt x="435" y="869" on="0"/>
        <pt x="502" y="895" on="0"/>
        <pt x="552" y="953" on="0"/>
        <pt x="581" y="1047" on="0"/>
      </contour>
      <contour>
        <pt x="1236" y="1431" on="1"/>
        <pt x="1250" y="1448" on="0"/>
        <pt x="1279" y="1467" on="0"/>
        <pt x="1304" y="1467" on="1"/>
        <pt x="1435" y="1467" on="1"/>
        <pt x="363" y="30" on="1"/>
        <pt x="353" y="16" on="0"/>
        <pt x="324" y="0" on="0"/>
        <pt x="304" y="0" on="1"/>
        <pt x="169" y="0" on="1"/>
      </contour>
      <contour>
        <pt x="1534" y="346" on="1"/>
        <pt x="1534" y="260" on="0"/>
        <pt x="1481" y="125" on="0"/>
        <pt x="1392" y="32" on="0"/>
        <pt x="1274" y="-17" on="0"/>
        <pt x="1210" y="-17" on="1"/>
        <pt x="1140" y="-17" on="0"/>
        <pt x="1022" y="32" on="0"/>
        <pt x="934" y="125" on="0"/>
        <pt x="885" y="260" on="0"/>
        <pt x="885" y="346" on="1"/>
        <pt x="885" y="434" on="0"/>
        <pt x="934" y="572" on="0"/>
        <pt x="1022" y="667" on="0"/>
        <pt x="1140" y="716" on="0"/>
        <pt x="1210" y="716" on="1"/>
        <pt x="1278" y="716" on="0"/>
        <pt x="1397" y="667" on="0"/>
        <pt x="1485" y="572" on="0"/>
        <pt x="1534" y="434" on="0"/>
      </contour>
      <contour>
        <pt x="1393" y="346" on="1"/>
        <pt x="1393" y="414" on="0"/>
        <pt x="1364" y="509" on="0"/>
        <pt x="1314" y="568" on="0"/>
        <pt x="1248" y="595" on="0"/>
        <pt x="1210" y="595" on="1"/>
        <pt x="1172" y="595" on="0"/>
        <pt x="1105" y="568" on="0"/>
        <pt x="1056" y="509" on="0"/>
        <pt x="1028" y="414" on="0"/>
        <pt x="1028" y="346" on="1"/>
        <pt x="1028" y="280" on="0"/>
        <pt x="1056" y="187" on="0"/>
        <pt x="1105" y="129" on="0"/>
        <pt x="1172" y="103" on="0"/>
        <pt x="1210" y="103" on="1"/>
        <pt x="1248" y="103" on="0"/>
        <pt x="1314" y="129" on="0"/>
        <pt x="1364" y="187" on="0"/>
        <pt x="1393" y="280" on="0"/>
      </contour>
    </TTGlyph>
    <TTGlyph name="period" xMin="90" yMin="-15" xMax="345" yMax="242">
      <contour>
        <pt x="90" y="113" on="1"/>
        <pt x="90" y="139" on="0"/>
        <pt x="109" y="186" on="0"/>
        <pt x="143" y="221" on="0"/>
        <pt x="190" y="242" on="0"/>
        <pt x="217" y="242" on="1"/>
        <pt x="244" y="242" on="0"/>
        <pt x="291" y="221" on="0"/>
        <pt x="326" y="186" on="0"/>
        <pt x="345" y="139" on="0"/>
        <pt x="345" y="113" on="1"/>
        <pt x="345" y="85" on="0"/>
        <pt x="326" y="39" on="0"/>
        <pt x="291" y="4" on="0"/>
        <pt x="244" y="-15" on="0"/>
        <pt x="217" y="-15" on="1"/>
        <pt x="190" y="-15" on="0"/>
        <pt x="143" y="4" on="0"/>
        <pt x="109" y="39" on="0"/>
        <pt x="90" y="85" on="0"/>
      </contour>
    </TTGlyph>
    <TTGlyph name="plus" xMin="102" yMin="178" xMax="1083" yMax="1194">
      <contour>
        <pt x="666" y="1194" on="1"/>
        <pt x="666" y="757" on="1"/>
        <pt x="1083" y="757" on="1"/>
        <pt x="1083" y="618" on="1"/>
        <pt x="666" y="618" on="1"/>
        <pt x="666" y="178" on="1"/>
        <pt x="517" y="178" on="1"/>
        <pt x="517" y="618" on="1"/>
        <pt x="102" y="618" on="1"/>
        <pt x="102" y="757" on="1"/>
        <pt x="517" y="757" on="1"/>
        <pt x="517" y="1194" on="1"/>
      </contour>
    </TTGlyph>
    <TTGlyph name="question" xMin="34" yMin="-15" xMax="777" yMax="1484">
      <contour>
        <pt x="34" y="1336" on="1"/>
        <pt x="66" y="1366" on="0"/>
        <pt x="143" y="1419" on="0"/>
        <pt x="234" y="1460" on="0"/>
        <pt x="339" y="1484" on="0"/>
        <pt x="401" y="1484" on="1"/>
        <pt x="481" y="1484" on="0"/>
        <pt x="620" y="1437" on="0"/>
        <pt x="720" y="1351" on="0"/>
        <pt x="777" y="1228" on="0"/>
        <pt x="777" y="1151" on="1"/>
        <pt x="777" y="1073" on="0"/>
        <pt x="731" y="961" on="0"/>
        <pt x="661" y="876" on="0"/>
        <pt x="577" y="813" on="0"/>
        <pt x="504" y="758" on="0"/>
        <pt x="452" y="702" on="0"/>
        <pt x="448" y="669" on="1"/>
        <pt x="429" y="512" on="1"/>
        <pt x="304" y="512" on="1"/>
        <pt x="292" y="682" on="1"/>
        <pt x="292" y="693" on="1"/>
        <pt x="292" y="736" on="0"/>
        <pt x="338" y="803" on="0"/>
        <pt x="409" y="861" on="0"/>
        <pt x="490" y="920" on="0"/>
        <pt x="560" y="990" on="0"/>
        <pt x="606" y="1080" on="0"/>
        <pt x="606" y="1142" on="1"/>
        <pt x="606" y="1186" on="0"/>
        <pt x="572" y="1257" on="0"/>
        <pt x="512" y="1308" on="0"/>
        <pt x="431" y="1334" on="0"/>
        <pt x="385" y="1334" on="1"/>
        <pt x="323" y="1334" on="0"/>
        <pt x="234" y="1304" on="0"/>
        <pt x="172" y="1267" on="0"/>
        <pt x="134" y="1236" on="0"/>
        <pt x="122" y="1236" on="1"/>
        <pt x="96" y="1236" on="0"/>
        <pt x="82" y="1260" on="1"/>
      </contour>
      <contour>
        <pt x="235" y="113" on="1"/>
        <pt x="235" y="139" on="0"/>
        <pt x="254" y="186" on="0"/>
        <pt x="288" y="221" on="0"/>
        <pt x="335" y="242" on="0"/>
        <pt x="362" y="242" on="1"/>
        <pt x="388" y="242" on="0"/>
        <pt x="435" y="221" on="0"/>
        <pt x="470" y="186" on="0"/>
        <pt x="490" y="139" on="0"/>
        <pt x="490" y="113" on="1"/>
        <pt x="490" y="85" on="0"/>
        <pt x="470" y="39" on="0"/>
        <pt x="435" y="4" on="0"/>
        <pt x="388" y="-15" on="0"/>
        <pt x="362" y="-15" on="1"/>
        <pt x="335" y="-15" on="0"/>
        <pt x="288" y="4" on="0"/>
        <pt x="254" y="39" on="0"/>
        <pt x="235" y="85" on="0"/>
      </contour>
    </TTGlyph>
    <TTGlyph name="quotedbl" xMin="155" yMin="943" xMax="655" yMax="1467">
      <contour>
        <pt x="314" y="1467" on="1"/>
        <pt x="314" y="1170" on="1"/>
        <pt x="297" y="1012" on="1"/>
        <pt x="294" y="979" on="0"/>
        <pt x="266" y="943" on="0"/>
        <pt x="234" y="943" on="1"/>
        <pt x="207" y="943" on="0"/>
        <pt x="178" y="979" on="0"/>
        <pt x="171" y="1012" on="1"/>
        <pt x="155" y="1170" on="1"/>
        <pt x="155" y="1467" on="1"/>
      </contour>
      <contour>
        <pt x="655" y="1467" on="1"/>
        <pt x="655" y="1170" on="1"/>
        <pt x="638" y="1012" on="1"/>
        <pt x="635" y="979" on="0"/>
        <pt x="607" y="943" on="0"/>
        <pt x="575" y="943" on="1"/>
        <pt x="548" y="943" on="0"/>
        <pt x="519" y="979" on="0"/>
        <pt x="512" y="1012" on="1"/>
        <pt x="496" y="1170" on="1"/>
        <pt x="496" y="1467" on="1"/>
      </contour>
    </TTGlyph>
    <TTGlyph name="quotesingle" xMin="155" yMin="943" xMax="314" yMax="1467">
      <contour>
        <pt x="314" y="1467" on="1"/>
        <pt x="314" y="1170" on="1"/>
        <pt x="297" y="1012" on="1"/>
        <pt x="294" y="979" on="0"/>
        <pt x="266" y="943" on="0"/>
        <pt x="234" y="943" on="1"/>
        <pt x="207" y="943" on="0"/>
        <pt x="178" y="979" on="0"/>
        <pt x="171" y="1012" on="1"/>
        <pt x="155" y="1170" on="1"/>
        <pt x="155" y="1467" on="1"/>
      </contour>
    </TTGlyph>
    <TTGlyph name="semicolon" xMin="131" yMin="-278" xMax="386" yMax="1010">
      <contour>
        <pt x="137" y="126" on="1"/>
        <pt x="137" y="150" on="0"/>
        <pt x="155" y="191" on="0"/>
        <pt x="186" y="223" on="0"/>
        <pt x="231" y="242" on="0"/>
        <pt x="258" y="242" on="1"/>
        <pt x="289" y="242" on="0"/>
        <pt x="337" y="219" on="0"/>
        <pt x="369" y="179" on="0"/>
        <pt x="385" y="127" on="0"/>
        <pt x="385" y="96" on="1"/>
        <pt x="385" y="50" on="0"/>
        <pt x="358" y="-49" on="0"/>
        <pt x="309" y="-146" on="0"/>
        <pt x="236" y="-239" on="0"/>
        <pt x="190" y="-278" on="1"/>
        <pt x="160" y="-248" on="1"/>
        <pt x="146" y="-236" on="0"/>
        <pt x="146" y="-219" on="1"/>
        <pt x="146" y="-206" on="0"/>
        <pt x="161" y="-191" on="1"/>
        <pt x="171" y="-180" on="0"/>
        <pt x="203" y="-142" on="0"/>
        <pt x="235" y="-93" on="0"/>
        <pt x="263" y="-34" on="0"/>
        <pt x="269" y="0" on="1"/>
        <pt x="256" y="0" on="1"/>
        <pt x="229" y="0" on="0"/>
        <pt x="186" y="18" on="0"/>
        <pt x="155" y="52" on="0"/>
        <pt x="137" y="98" on="0"/>
      </contour>
      <contour>
        <pt x="131" y="881" on="1"/>
        <pt x="131" y="907" on="0"/>
        <pt x="150" y="954" on="0"/>
        <pt x="184" y="989" on="0"/>
        <pt x="231" y="1010" on="0"/>
        <pt x="258" y="1010" on="1"/>
        <pt x="285" y="1010" on="0"/>
        <pt x="332" y="989" on="0"/>
        <pt x="367" y="954" on="0"/>
        <pt x="386" y="907" on="0"/>
        <pt x="386" y="881" on="1"/>
        <pt x="386" y="853" on="0"/>
        <pt x="367" y="807" on="0"/>
        <pt x="332" y="772" on="0"/>
        <pt x="285" y="753" on="0"/>
        <pt x="258" y="753" on="1"/>
        <pt x="231" y="753" on="0"/>
        <pt x="184" y="772" on="0"/>
        <pt x="150" y="807" on="0"/>
        <pt x="131" y="853" on="0"/>
      </contour>
    </TTGlyph>
    <TTGlyph name="seven" xMin="112" yMin="0" xMax="1109" yMax="1467">
      <contour>
        <pt x="1109" y="1467" on="1"/>
        <pt x="1109" y="1385" on="1"/>
        <pt x="1109" y="1351" on="0"/>
        <pt x="1094" y="1306" on="0"/>
        <pt x="1086" y="1290" on="1"/>
        <pt x="479" y="65" on="1"/>
        <pt x="465" y="38" on="0"/>
        <pt x="418" y="0" on="0"/>
        <pt x="378" y="0" on="1"/>
        <pt x="248" y="0" on="1"/>
        <pt x="865" y="1210" on="1"/>
        <pt x="878" y="1236" on="0"/>
        <pt x="906" y="1279" on="0"/>
        <pt x="923" y="1298" on="1"/>
        <pt x="157" y="1298" on="1"/>
        <pt x="140" y="1298" on="0"/>
        <pt x="112" y="1326" on="0"/>
        <pt x="112" y="1343" on="1"/>
        <pt x="112" y="1467" on="1"/>
      </contour>
    </TTGlyph>
    <TTGlyph name="six" xMin="110" yMin="-16" xMax="1099" yMax="1467">
      <contour>
        <pt x="665" y="899" on="1"/>
        <pt x="753" y="899" on="0"/>
        <pt x="911" y="841" on="0"/>
        <pt x="1030" y="729" on="0"/>
        <pt x="1099" y="566" on="0"/>
        <pt x="1099" y="462" on="1"/>
        <pt x="1099" y="360" on="0"/>
        <pt x="1025" y="186" on="0"/>
        <pt x="893" y="57" on="0"/>
        <pt x="707" y="-16" on="0"/>
        <pt x="595" y="-16" on="1"/>
        <pt x="485" y="-16" on="0"/>
        <pt x="306" y="54" on="0"/>
        <pt x="179" y="184" on="0"/>
        <pt x="110" y="370" on="0"/>
        <pt x="110" y="484" on="1"/>
        <pt x="110" y="581" on="0"/>
        <pt x="196" y="798" on="0"/>
        <pt x="289" y="923" on="1"/>
        <pt x="661" y="1423" on="1"/>
        <pt x="675" y="1442" on="0"/>
        <pt x="726" y="1467" on="0"/>
        <pt x="759" y="1467" on="1"/>
        <pt x="921" y="1467" on="1"/>
        <pt x="412" y="823" on="1"/>
        <pt x="464" y="859" on="0"/>
        <pt x="591" y="899" on="0"/>
      </contour>
      <contour>
        <pt x="286" y="453" on="1"/>
        <pt x="286" y="382" on="0"/>
        <pt x="327" y="265" on="0"/>
        <pt x="406" y="181" on="0"/>
        <pt x="520" y="135" on="0"/>
        <pt x="592" y="135" on="1"/>
        <pt x="666" y="135" on="0"/>
        <pt x="785" y="182" on="0"/>
        <pt x="870" y="266" on="0"/>
        <pt x="916" y="381" on="0"/>
        <pt x="916" y="449" on="1"/>
        <pt x="916" y="520" on="0"/>
        <pt x="871" y="636" on="0"/>
        <pt x="789" y="717" on="0"/>
        <pt x="674" y="760" on="0"/>
        <pt x="606" y="760" on="1"/>
        <pt x="532" y="760" on="0"/>
        <pt x="413" y="710" on="0"/>
        <pt x="330" y="625" on="0"/>
        <pt x="286" y="513" on="0"/>
      </contour>
    </TTGlyph>
    <TTGlyph name="slash" xMin="-12" yMin="-92" xMax="776" yMax="1508">
      <contour>
        <pt x="165" y="-22" on="1"/>
        <pt x="151" y="-57" on="0"/>
        <pt x="94" y="-92" on="0"/>
        <pt x="65" y="-92" on="1"/>
        <pt x="-12" y="-92" on="1"/>
        <pt x="603" y="1441" on="1"/>
        <pt x="617" y="1474" on="0"/>
        <pt x="666" y="1508" on="0"/>
        <pt x="700" y="1508" on="1"/>
        <pt x="776" y="1508" on="1"/>
      </contour>
    </TTGlyph>
    <TTGlyph name="three" xMin="110" yMin="-16" xMax="1095" yMax="1484">
      <contour>
        <pt x="634" y="1484" on="1"/>
        <pt x="727" y="1484" on="0"/>
        <pt x="885" y="1431" on="0"/>
        <pt x="999" y="1332" on="0"/>
        <pt x="1062" y="1193" on="0"/>
        <pt x="1062" y="1108" on="1"/>
        <pt x="1062" y="1038" on="0"/>
        <pt x="1026" y="929" on="0"/>
        <pt x="960" y="846" on="0"/>
        <pt x="866" y="788" on="0"/>
        <pt x="807" y="771" on="1"/>
        <pt x="951" y="733" on="0"/>
        <pt x="1095" y="555" on="0"/>
        <pt x="1095" y="421" on="1"/>
        <pt x="1095" y="319" on="0"/>
        <pt x="1018" y="158" on="0"/>
        <pt x="885" y="44" on="0"/>
        <pt x="708" y="-16" on="0"/>
        <pt x="607" y="-16" on="1"/>
        <pt x="490" y="-16" on="0"/>
        <pt x="324" y="42" on="0"/>
        <pt x="209" y="144" on="0"/>
        <pt x="136" y="285" on="0"/>
        <pt x="110" y="367" on="1"/>
        <pt x="188" y="399" on="1"/>
        <pt x="209" y="409" on="0"/>
        <pt x="231" y="409" on="1"/>
        <pt x="251" y="409" on="0"/>
        <pt x="283" y="391" on="0"/>
        <pt x="291" y="373" on="1"/>
        <pt x="293" y="369" on="0"/>
        <pt x="297" y="359" on="0"/>
        <pt x="299" y="354" on="1"/>
        <pt x="314" y="325" on="0"/>
        <pt x="355" y="250" on="0"/>
        <pt x="424" y="184" on="0"/>
        <pt x="528" y="139" on="0"/>
        <pt x="605" y="139" on="1"/>
        <pt x="681" y="139" on="0"/>
        <pt x="797" y="189" on="0"/>
        <pt x="874" y="269" on="0"/>
        <pt x="913" y="368" on="0"/>
        <pt x="913" y="416" on="1"/>
        <pt x="913" y="475" on="0"/>
        <pt x="881" y="573" on="0"/>
        <pt x="798" y="645" on="0"/>
        <pt x="652" y="686" on="0"/>
        <pt x="537" y="686" on="1"/>
        <pt x="537" y="818" on="1"/>
        <pt x="630" y="819" on="0"/>
        <pt x="762" y="858" on="0"/>
        <pt x="846" y="926" on="0"/>
        <pt x="884" y="1020" on="0"/>
        <pt x="884" y="1077" on="1"/>
        <pt x="884" y="1141" on="0"/>
        <pt x="844" y="1235" on="0"/>
        <pt x="775" y="1296" on="0"/>
        <pt x="679" y="1327" on="0"/>
        <pt x="624" y="1327" on="1"/>
        <pt x="569" y="1327" on="0"/>
        <pt x="475" y="1294" on="0"/>
        <pt x="402" y="1236" on="0"/>
        <pt x="353" y="1155" on="0"/>
        <pt x="340" y="1108" on="1"/>
        <pt x="332" y="1078" on="0"/>
        <pt x="299" y="1052" on="0"/>
        <pt x="274" y="1052" on="1"/>
        <pt x="269" y="1052" on="0"/>
        <pt x="257" y="1053" on="0"/>
        <pt x="250" y="1054" on="1"/>
        <pt x="155" y="1070" on="1"/>
        <pt x="169" y="1170" on="0"/>
        <pt x="251" y="1325" on="0"/>
        <pt x="377" y="1430" on="0"/>
        <pt x="540" y="1484" on="0"/>
      </contour>
    </TTGlyph>
    <TTGlyph name="two" xMin="106" yMin="0" xMax="1085" yMax="1484">
      <contour>
        <pt x="615" y="1484" on="1"/>
        <pt x="708" y="1484" on="0"/>
        <pt x="870" y="1428" on="0"/>
        <pt x="988" y="1323" on="0"/>
        <pt x="1055" y="1171" on="0"/>
        <pt x="1055" y="1075" on="1"/>
        <pt x="1055" y="993" on="0"/>
        <pt x="1006" y="854" on="0"/>
        <pt x="922" y="726" on="0"/>
        <pt x="813" y="606" on="0"/>
        <pt x="751" y="544" on="1"/>
        <pt x="365" y="148" on="1"/>
        <pt x="406" y="160" on="0"/>
        <pt x="490" y="173" on="0"/>
        <pt x="529" y="173" on="1"/>
        <pt x="1020" y="173" on="1"/>
        <pt x="1050" y="173" on="0"/>
        <pt x="1085" y="138" on="0"/>
        <pt x="1085" y="111" on="1"/>
        <pt x="1085" y="0" on="1"/>
        <pt x="106" y="0" on="1"/>
        <pt x="106" y="62" on="1"/>
        <pt x="106" y="82" on="0"/>
        <pt x="121" y="123" on="0"/>
        <pt x="139" y="140" on="1"/>
        <pt x="609" y="612" on="1"/>
        <pt x="667" y="672" on="0"/>
        <pt x="763" y="781" on="0"/>
        <pt x="832" y="892" on="0"/>
        <pt x="869" y="1006" on="0"/>
        <pt x="869" y="1070" on="1"/>
        <pt x="869" y="1135" on="0"/>
        <pt x="828" y="1232" on="0"/>
        <pt x="756" y="1295" on="0"/>
        <pt x="660" y="1327" on="0"/>
        <pt x="605" y="1327" on="1"/>
        <pt x="549" y="1327" on="0"/>
        <pt x="455" y="1294" on="0"/>
        <pt x="382" y="1236" on="0"/>
        <pt x="332" y="1156" on="0"/>
        <pt x="322" y="1108" on="1"/>
        <pt x="314" y="1078" on="0"/>
        <pt x="281" y="1052" on="0"/>
        <pt x="254" y="1052" on="1"/>
        <pt x="249" y="1052" on="0"/>
        <pt x="238" y="1053" on="0"/>
        <pt x="231" y="1054" on="1"/>
        <pt x="136" y="1070" on="1"/>
        <pt x="150" y="1170" on="0"/>
        <pt x="232" y="1325" on="0"/>
        <pt x="358" y="1430" on="0"/>
        <pt x="521" y="1484" on="0"/>
      </contour>
    </TTGlyph>
    <TTGlyph name="uni00AD" xMin="102" yMin="537" xMax="608" yMax="691">
      <contour>
        <pt x="102" y="691" on="1"/>
        <pt x="608" y="691" on="1"/>
        <pt x="608" y="537" on="1"/>
        <pt x="102" y="537" on="1"/>
      </contour>
    </TTGlyph>
    <TTGlyph name="uni1780" xMin="250" yMin="0" xMax="1250" yMax="1500">
      <contour>
        <pt x="420" y="0" on="1"/>
        <pt x="250" y="0" on="1"/>
        <pt x="250" y="700" on="1"/>
        <pt x="250" y="1200" on="0"/>
        <pt x="750" y="1200" on="1"/>
        <pt x="1250" y="1200" on="0"/>
        <pt x="1250" y="700" on="1"/>
        <pt x="1250" y="0" on="1"/>
        <pt x="1080" y="0" on="1"/>
        <pt x="1080" y="700" on="1"/>
        <pt x="1080" y="1050" on="0"/>
        <pt x="750" y="1050" on="1"/>
        <pt x="420" y="1050" on="0"/>
        <pt x="420" y="700" on="1"/>
      </contour>
      <contour>
        <pt x="1250" y="1500" on="1"/>
        <pt x="1250" y="1350" on="1"/>
        <pt x="250" y="1350" on="1"/>
        <pt x="250" y="1500" on="1"/>
      </contour>
    </TTGlyph>
    <TTGlyph name="uni1781" xMin="250" yMin="0" xMax="1250" yMax="1500">
      <contour>
        <pt x="250" y="610" on="1"/>
        <pt x="1080" y="750" on="0"/>
        <pt x="1080" y="1100" on="1"/>
        <pt x="1080" y="1350" on="0"/>
        <pt x="750" y="1350" on="1"/>
        <pt x="420" y="1350" on="0"/>
        <pt x="420" y="1100" on="1"/>
        <pt x="420" y="979" on="0"/>
        <pt x="514" y="979" on="1"/>
        <pt x="559" y="979" on="0"/>
        <pt x="630" y="1000" on="1"/>
        <pt x="630" y="850" on="1"/>
        <pt x="591" y="821" on="0"/>
        <pt x="528" y="821" on="1"/>
        <pt x="250" y="821" on="0"/>
        <pt x="250" y="1100" on="1"/>
        <pt x="250" y="1500" on="0"/>
        <pt x="750" y="1500" on="1"/>
        <pt x="1250" y="1500" on="0"/>
        <pt x="1250" y="1100" on="1"/>
        <pt x="1250" y="680" on="0"/>
        <pt x="420" y="500" on="1"/>
        <pt x="420" y="400" on="1"/>
        <pt x="420" y="150" on="0"/>
        <pt x="750" y="150" on="1"/>
        <pt x="1080" y="150" on="0"/>
        <pt x="1080" y="400" on="1"/>
        <pt x="1080" y="550" on="0"/>
        <pt x="940" y="610" on="1"/>
        <pt x="1090" y="690" on="1"/>
        <pt x="1250" y="600" on="0"/>
        <pt x="1250" y="400" on="1"/>
        <pt x="1250" y="0" on="0"/>
        <pt x="750" y="0" on="1"/>
        <pt x="250" y="0" on="0"/>
        <pt x="250" y="400" on="1"/>
      </contour>
    </TTGlyph>
    <TTGlyph name="uni1782" xMin="250" yMin="0" xMax="1250" yMax="1500">
      <contour>
        <pt x="1250" y="1500" on="1"/>
        <pt x="1250" y="1350" on="1"/>
        <pt x="250" y="1350" on="1"/>
        <pt x="250" y="1500" on="1"/>
      </contour>
      <contour>
        <pt x="420" y="350" on="1"/>
        <pt x="495" y="500" on="0"/>
        <pt x="660" y="500" on="1"/>
        <pt x="750" y="500" on="1"/>
        <pt x="750" y="340" on="1"/>
        <pt x="660" y="340" on="1"/>
        <pt x="495" y="340" on="0"/>
        <pt x="420" y="190" on="1"/>
        <pt x="420" y="0" on="1"/>
        <pt x="250" y="0" on="1"/>
        <pt x="250" y="700" on="1"/>
        <pt x="250" y="1200" on="0"/>
        <pt x="750" y="1200" on="1"/>
        <pt x="1250" y="1200" on="0"/>
        <pt x="1250" y="700" on="1"/>
        <pt x="1250" y="0" on="1"/>
        <pt x="1080" y="0" on="1"/>
        <pt x="1080" y="700" on="1"/>
        <pt x="1080" y="1050" on="0"/>
        <pt x="750" y="1050" on="1"/>
        <pt x="420" y="1050" on="0"/>
        <pt x="420" y="700" on="1"/>
      </contour>
    </TTGlyph>
    <TTGlyph name="uni1783" xMin="100" yMin="0" xMax="2000" yMax="1500">
      <contour>
        <pt x="225" y="1350" on="1"/>
        <pt x="214" y="1350" on="0"/>
        <pt x="200" y="1331" on="0"/>
        <pt x="200" y="1275" on="1"/>
        <pt x="200" y="1219" on="0"/>
        <pt x="214" y="1200" on="0"/>
        <pt x="225" y="1200" on="1"/>
        <pt x="250" y="1200" on="1"/>
        <pt x="250" y="1350" on="1"/>
      </contour>
      <contour>
        <pt x="1780" y="1100" on="1"/>
        <pt x="1780" y="1170" on="0"/>
        <pt x="1680" y="1250" on="1"/>
        <pt x="1680" y="1350" on="1"/>
        <pt x="1680" y="1500" on="0"/>
        <pt x="1830" y="1500" on="1"/>
        <pt x="2000" y="1500" on="1"/>
        <pt x="2000" y="1350" on="1"/>
        <pt x="1880" y="1350" on="1"/>
        <pt x="1830" y="1350" on="0"/>
        <pt x="1830" y="1300" on="1"/>
        <pt x="1950" y="1220" on="0"/>
        <pt x="1950" y="1100" on="1"/>
        <pt x="1950" y="500" on="1"/>
        <pt x="1950" y="0" on="0"/>
        <pt x="1500" y="0" on="1"/>
        <pt x="1200" y="0" on="0"/>
        <pt x="1100" y="222" on="1"/>
        <pt x="1000" y="0" on="0"/>
        <pt x="700" y="0" on="1"/>
        <pt x="250" y="0" on="0"/>
        <pt x="250" y="500" on="1"/>
        <pt x="250" y="1052" on="1"/>
        <pt x="238" y="1050" on="0"/>
        <pt x="225" y="1050" on="1"/>
        <pt x="167" y="1050" on="0"/>
        <pt x="100" y="1147" on="0"/>
        <pt x="100" y="1275" on="1"/>
        <pt x="100" y="1403" on="0"/>
        <pt x="167" y="1500" on="0"/>
        <pt x="260" y="1500" on="1"/>
        <pt x="353" y="1500" on="0"/>
        <pt x="420" y="1403" on="0"/>
        <pt x="420" y="1275" on="1"/>
        <pt x="420" y="500" on="1"/>
        <pt x="420" y="150" on="0"/>
        <pt x="700" y="150" on="1"/>
        <pt x="1015" y="150" on="0"/>
        <pt x="1015" y="500" on="1"/>
        <pt x="1015" y="1100" on="1"/>
        <pt x="1015" y="1170" on="0"/>
        <pt x="915" y="1250" on="1"/>
        <pt x="915" y="1350" on="1"/>
        <pt x="915" y="1500" on="0"/>
        <pt x="1065" y="1500" on="1"/>
        <pt x="1235" y="1500" on="1"/>
        <pt x="1235" y="1350" on="1"/>
        <pt x="1115" y="1350" on="1"/>
        <pt x="1065" y="1350" on="0"/>
        <pt x="1065" y="1300" on="1"/>
        <pt x="1185" y="1220" on="0"/>
        <pt x="1185" y="1100" on="1"/>
        <pt x="1185" y="500" on="1"/>
        <pt x="1185" y="150" on="0"/>
        <pt x="1500" y="150" on="1"/>
        <pt x="1780" y="150" on="0"/>
        <pt x="1780" y="500" on="1"/>
      </contour>
    </TTGlyph>
    <TTGlyph name="uni1784" xMin="100" yMin="0" xMax="1250" yMax="1800">
      <contour>
        <pt x="1000" y="1348" on="1"/>
        <pt x="1000" y="1378" on="0"/>
        <pt x="960" y="1378" on="1"/>
        <pt x="920" y="1378" on="0"/>
        <pt x="920" y="1348" on="1"/>
        <pt x="920" y="1321" on="0"/>
        <pt x="960" y="1294" on="1"/>
        <pt x="1000" y="1315" on="0"/>
      </contour>
      <contour>
        <pt x="225" y="850" on="1"/>
        <pt x="214" y="850" on="0"/>
        <pt x="200" y="831" on="0"/>
        <pt x="200" y="775" on="1"/>
        <pt x="200" y="719" on="0"/>
        <pt x="214" y="700" on="0"/>
        <pt x="225" y="700" on="1"/>
        <pt x="250" y="700" on="1"/>
        <pt x="250" y="850" on="1"/>
      </contour>
      <contour>
        <pt x="420" y="200" on="1"/>
        <pt x="750" y="500" on="1"/>
        <pt x="1080" y="200" on="1"/>
        <pt x="1080" y="900" on="1"/>
        <pt x="1080" y="1008" on="0"/>
        <pt x="918" y="1129" on="1"/>
        <pt x="836" y="1050" on="0"/>
        <pt x="640" y="1050" on="1"/>
        <pt x="422" y="1050" on="0"/>
        <pt x="250" y="1164" on="0"/>
        <pt x="250" y="1265" on="1"/>
        <pt x="250" y="1365" on="0"/>
        <pt x="330" y="1540" on="0"/>
        <pt x="330" y="1595" on="1"/>
        <pt x="330" y="1650" on="0"/>
        <pt x="200" y="1650" on="1"/>
        <pt x="200" y="1800" on="1"/>
        <pt x="480" y="1800" on="0"/>
        <pt x="480" y="1610" on="1"/>
        <pt x="480" y="1535" on="0"/>
        <pt x="400" y="1350" on="0"/>
        <pt x="400" y="1311" on="1"/>
        <pt x="400" y="1271" on="0"/>
        <pt x="500" y="1200" on="0"/>
        <pt x="647" y="1200" on="1"/>
        <pt x="774" y="1200" on="0"/>
        <pt x="830" y="1233" on="1"/>
        <pt x="780" y="1274" on="0"/>
        <pt x="780" y="1360" on="1"/>
        <pt x="780" y="1500" on="0"/>
        <pt x="960" y="1500" on="1"/>
        <pt x="1150" y="1500" on="0"/>
        <pt x="1150" y="1330" on="1"/>
        <pt x="1150" y="1243" on="0"/>
        <pt x="1072" y="1182" on="1"/>
        <pt x="1250" y="1053" on="0"/>
        <pt x="1250" y="900" on="1"/>
        <pt x="1250" y="0" on="1"/>
        <pt x="1050" y="0" on="1"/>
        <pt x="750" y="300" on="1"/>
        <pt x="450" y="0" on="1"/>
        <pt x="250" y="0" on="1"/>
        <pt x="250" y="552" on="1"/>
        <pt x="238" y="550" on="0"/>
        <pt x="225" y="550" on="1"/>
        <pt x="167" y="550" on="0"/>
        <pt x="100" y="647" on="0"/>
        <pt x="100" y="775" on="1"/>
        <pt x="100" y="903" on="0"/>
        <pt x="167" y="1000" on="0"/>
        <pt x="260" y="1000" on="1"/>
        <pt x="353" y="1000" on="0"/>
        <pt x="420" y="903" on="0"/>
        <pt x="420" y="775" on="1"/>
      </contour>
    </TTGlyph>
    <TTGlyph name="uni1785" xMin="200" yMin="0" xMax="1250" yMax="1500">
      <contour>
        <pt x="1080" y="975" on="1"/>
        <pt x="1059" y="975" on="0"/>
        <pt x="1030" y="949" on="0"/>
        <pt x="1030" y="925" on="1"/>
        <pt x="1030" y="901" on="0"/>
        <pt x="1059" y="875" on="0"/>
        <pt x="1080" y="875" on="1"/>
      </contour>
      <contour>
        <pt x="1080" y="757" on="1"/>
        <pt x="1070" y="756" on="0"/>
        <pt x="1060" y="756" on="1"/>
        <pt x="992" y="756" on="0"/>
        <pt x="959" y="799" on="1"/>
        <pt x="920" y="847" on="0"/>
        <pt x="920" y="925" on="1"/>
        <pt x="920" y="1003" on="0"/>
        <pt x="997" y="1100" on="0"/>
        <pt x="1085" y="1100" on="1"/>
        <pt x="1173" y="1100" on="0"/>
        <pt x="1250" y="1003" on="0"/>
        <pt x="1250" y="925" on="1"/>
        <pt x="1250" y="500" on="1"/>
        <pt x="1250" y="0" on="0"/>
        <pt x="750" y="0" on="1"/>
        <pt x="250" y="0" on="0"/>
        <pt x="250" y="500" on="1"/>
        <pt x="250" y="1100" on="1"/>
        <pt x="250" y="1170" on="0"/>
        <pt x="200" y="1250" on="1"/>
        <pt x="200" y="1300" on="1"/>
        <pt x="200" y="1500" on="0"/>
        <pt x="400" y="1500" on="1"/>
        <pt x="1250" y="1500" on="1"/>
        <pt x="1250" y="1350" on="1"/>
        <pt x="470" y="1350" on="1"/>
        <pt x="370" y="1350" on="0"/>
        <pt x="370" y="1290" on="1"/>
        <pt x="420" y="1210" on="0"/>
        <pt x="420" y="1100" on="1"/>
        <pt x="420" y="500" on="1"/>
        <pt x="420" y="150" on="0"/>
        <pt x="750" y="150" on="1"/>
        <pt x="1080" y="150" on="0"/>
        <pt x="1080" y="500" on="1"/>
      </contour>
    </TTGlyph>
    <TTGlyph name="uni1786" xMin="200" yMin="0" xMax="1250" yMax="1500">
      <contour>
        <pt x="1080" y="975" on="1"/>
        <pt x="1059" y="975" on="0"/>
        <pt x="1030" y="949" on="0"/>
        <pt x="1030" y="925" on="1"/>
        <pt x="1030" y="901" on="0"/>
        <pt x="1059" y="875" on="0"/>
        <pt x="1080" y="875" on="1"/>
      </contour>
      <contour>
        <pt x="1250" y="250" on="1"/>
        <pt x="1250" y="0" on="0"/>
        <pt x="950" y="0" on="1"/>
        <pt x="590" y="0" on="0"/>
        <pt x="590" y="200" on="1"/>
        <pt x="590" y="300" on="0"/>
        <pt x="505" y="300" on="1"/>
        <pt x="420" y="300" on="0"/>
        <pt x="420" y="210" on="1"/>
        <pt x="420" y="0" on="1"/>
        <pt x="250" y="0" on="1"/>
        <pt x="250" y="1100" on="1"/>
        <pt x="250" y="1170" on="0"/>
        <pt x="200" y="1250" on="1"/>
        <pt x="200" y="1300" on="1"/>
        <pt x="200" y="1500" on="0"/>
        <pt x="400" y="1500" on="1"/>
        <pt x="1250" y="1500" on="1"/>
        <pt x="1250" y="1350" on="1"/>
        <pt x="470" y="1350" on="1"/>
        <pt x="370" y="1350" on="0"/>
        <pt x="370" y="1290" on="1"/>
        <pt x="420" y="1210" on="0"/>
        <pt x="420" y="1100" on="1"/>
        <pt x="420" y="397" on="1"/>
        <pt x="454" y="450" on="0"/>
        <pt x="565" y="450" on="1"/>
        <pt x="760" y="450" on="0"/>
        <pt x="760" y="250" on="1"/>
        <pt x="760" y="150" on="0"/>
        <pt x="920" y="150" on="1"/>
        <pt x="1080" y="150" on="0"/>
        <pt x="1080" y="250" on="1"/>
        <pt x="1080" y="757" on="1"/>
        <pt x="1070" y="756" on="0"/>
        <pt x="1060" y="756" on="1"/>
        <pt x="992" y="756" on="0"/>
        <pt x="959" y="799" on="1"/>
        <pt x="920" y="847" on="0"/>
        <pt x="920" y="925" on="1"/>
        <pt x="920" y="1003" on="0"/>
        <pt x="997" y="1100" on="0"/>
        <pt x="1085" y="1100" on="1"/>
        <pt x="1173" y="1100" on="0"/>
        <pt x="1250" y="1003" on="0"/>
        <pt x="1250" y="925" on="1"/>
      </contour>
    </TTGlyph>
    <TTGlyph name="uni1787" xMin="200" yMin="0" xMax="1250" yMax="1650">
      <contour>
        <pt x="250" y="1100" on="1"/>
        <pt x="250" y="1170" on="0"/>
        <pt x="200" y="1250" on="1"/>
        <pt x="200" y="1300" on="1"/>
        <pt x="200" y="1500" on="0"/>
        <pt x="400" y="1500" on="1"/>
        <pt x="700" y="1500" on="1"/>
        <pt x="930" y="1350" on="1"/>
        <pt x="1010" y="1350" on="1"/>
        <pt x="1080" y="1350" on="0"/>
        <pt x="1080" y="1420" on="1"/>
        <pt x="1080" y="1650" on="1"/>
        <pt x="1250" y="1650" on="1"/>
        <pt x="1250" y="1420" on="1"/>
        <pt x="1250" y="1200" on="0"/>
        <pt x="1080" y="1200" on="1"/>
        <pt x="900" y="1200" on="1"/>
        <pt x="670" y="1350" on="1"/>
        <pt x="470" y="1350" on="1"/>
        <pt x="370" y="1350" on="0"/>
        <pt x="370" y="1290" on="1"/>
        <pt x="420" y="1210" on="0"/>
        <pt x="420" y="1100" on="1"/>
        <pt x="420" y="200" on="1"/>
        <pt x="750" y="480" on="1"/>
        <pt x="1080" y="200" on="1"/>
        <pt x="1080" y="1100" on="1"/>
        <pt x="1250" y="1100" on="1"/>
        <pt x="1250" y="0" on="1"/>
        <pt x="1100" y="0" on="1"/>
        <pt x="750" y="300" on="1"/>
        <pt x="400" y="0" on="1"/>
        <pt x="250" y="0" on="1"/>
      </contour>
    </TTGlyph>
    <TTGlyph name="uni1788" xMin="250" yMin="0" xMax="2500" yMax="1500">
      <contour>
        <pt x="400" y="300" on="1"/>
        <pt x="400" y="150" on="1"/>
        <pt x="421" y="150" on="0"/>
        <pt x="450" y="173" on="0"/>
        <pt x="450" y="225" on="1"/>
        <pt x="450" y="277" on="0"/>
        <pt x="421" y="300" on="0"/>
      </contour>
      <contour>
        <pt x="420" y="440" on="1"/>
        <pt x="443" y="450" on="0"/>
        <pt x="473" y="450" on="1"/>
        <pt x="503" y="450" on="0"/>
        <pt x="570" y="343" on="0"/>
        <pt x="570" y="225" on="1"/>
        <pt x="570" y="107" on="0"/>
        <pt x="483" y="0" on="0"/>
        <pt x="410" y="0" on="1"/>
        <pt x="337" y="0" on="0"/>
        <pt x="294" y="54" on="1"/>
        <pt x="260" y="95" on="0"/>
        <pt x="252" y="175" on="1"/>
        <pt x="250" y="175" on="1"/>
        <pt x="250" y="1000" on="1"/>
        <pt x="250" y="1500" on="0"/>
        <pt x="650" y="1500" on="1"/>
        <pt x="1085" y="1500" on="0"/>
        <pt x="1085" y="1000" on="1"/>
        <pt x="1085" y="500" on="1"/>
        <pt x="1085" y="150" on="0"/>
        <pt x="1350" y="150" on="1"/>
        <pt x="1615" y="150" on="0"/>
        <pt x="1615" y="500" on="1"/>
        <pt x="1615" y="1100" on="1"/>
        <pt x="1615" y="1170" on="0"/>
        <pt x="1515" y="1250" on="1"/>
        <pt x="1515" y="1350" on="1"/>
        <pt x="1515" y="1500" on="0"/>
        <pt x="1665" y="1500" on="1"/>
        <pt x="1835" y="1500" on="1"/>
        <pt x="1835" y="1350" on="1"/>
        <pt x="1715" y="1350" on="1"/>
        <pt x="1665" y="1350" on="0"/>
        <pt x="1665" y="1300" on="1"/>
        <pt x="1785" y="1220" on="0"/>
        <pt x="1785" y="1100" on="1"/>
        <pt x="1785" y="500" on="1"/>
        <pt x="1785" y="150" on="0"/>
        <pt x="2050" y="150" on="1"/>
        <pt x="2280" y="150" on="0"/>
        <pt x="2280" y="500" on="1"/>
        <pt x="2280" y="1100" on="1"/>
        <pt x="2280" y="1170" on="0"/>
        <pt x="2180" y="1250" on="1"/>
        <pt x="2180" y="1350" on="1"/>
        <pt x="2180" y="1500" on="0"/>
        <pt x="2330" y="1500" on="1"/>
        <pt x="2500" y="1500" on="1"/>
        <pt x="2500" y="1350" on="1"/>
        <pt x="2380" y="1350" on="1"/>
        <pt x="2330" y="1350" on="0"/>
        <pt x="2330" y="1300" on="1"/>
        <pt x="2450" y="1220" on="0"/>
        <pt x="2450" y="1100" on="1"/>
        <pt x="2450" y="500" on="1"/>
        <pt x="2450" y="0" on="0"/>
        <pt x="2050" y="0" on="1"/>
        <pt x="1800" y="0" on="0"/>
        <pt x="1700" y="222" on="1"/>
        <pt x="1600" y="0" on="0"/>
        <pt x="1350" y="0" on="1"/>
        <pt x="915" y="0" on="0"/>
        <pt x="915" y="500" on="1"/>
        <pt x="915" y="1000" on="1"/>
        <pt x="915" y="1350" on="0"/>
        <pt x="650" y="1350" on="1"/>
        <pt x="420" y="1350" on="0"/>
        <pt x="420" y="1000" on="1"/>
      </contour>
    </TTGlyph>
    <TTGlyph name="uni1789" xMin="250" yMin="-450" xMax="1950" yMax="1500">
      <contour>
        <pt x="1761" y="-178" on="1"/>
        <pt x="1731" y="-178" on="0"/>
        <pt x="1700" y="-199" on="1"/>
        <pt x="1640" y="-179" on="0"/>
        <pt x="1640" y="-114" on="1"/>
        <pt x="1640" y="-50" on="0"/>
        <pt x="1762" y="-50" on="1"/>
        <pt x="1950" y="-50" on="0"/>
        <pt x="1950" y="-230" on="1"/>
        <pt x="1950" y="-450" on="0"/>
        <pt x="1200" y="-450" on="1"/>
        <pt x="800" y="-450" on="0"/>
        <pt x="450" y="-250" on="0"/>
        <pt x="250" y="-250" on="1"/>
        <pt x="250" y="-100" on="1"/>
        <pt x="500" y="-100" on="0"/>
        <pt x="850" y="-300" on="0"/>
        <pt x="1200" y="-300" on="1"/>
        <pt x="1550" y="-300" on="0"/>
        <pt x="1790" y="-240" on="0"/>
        <pt x="1790" y="-209" on="1"/>
        <pt x="1790" y="-178" on="0"/>
      </contour>
      <contour>
        <pt x="400" y="300" on="1"/>
        <pt x="400" y="150" on="1"/>
        <pt x="421" y="150" on="0"/>
        <pt x="450" y="173" on="0"/>
        <pt x="450" y="225" on="1"/>
        <pt x="450" y="277" on="0"/>
        <pt x="421" y="300" on="0"/>
      </contour>
      <contour>
        <pt x="1180" y="1335" on="1"/>
        <pt x="1485" y="1500" on="1"/>
        <pt x="1550" y="1500" on="1"/>
        <pt x="1950" y="1500" on="0"/>
        <pt x="1950" y="1100" on="1"/>
        <pt x="1950" y="0" on="1"/>
        <pt x="1780" y="0" on="1"/>
        <pt x="1780" y="1100" on="1"/>
        <pt x="1780" y="1350" on="0"/>
        <pt x="1550" y="1350" on="1"/>
        <pt x="1510" y="1350" on="1"/>
        <pt x="1280" y="1240" on="1"/>
      </contour>
      <contour>
        <pt x="250" y="1200" on="1"/>
        <pt x="510" y="1500" on="1"/>
        <pt x="750" y="1300" on="1"/>
        <pt x="990" y="1500" on="1"/>
        <pt x="1250" y="1200" on="1"/>
        <pt x="1250" y="0" on="1"/>
        <pt x="1080" y="0" on="1"/>
        <pt x="1080" y="1160" on="1"/>
        <pt x="980" y="1285" on="1"/>
        <pt x="750" y="1120" on="1"/>
        <pt x="520" y="1285" on="1"/>
        <pt x="420" y="1160" on="1"/>
        <pt x="420" y="440" on="1"/>
        <pt x="443" y="450" on="0"/>
        <pt x="473" y="450" on="1"/>
        <pt x="503" y="450" on="0"/>
        <pt x="570" y="343" on="0"/>
        <pt x="570" y="225" on="1"/>
        <pt x="570" y="107" on="0"/>
        <pt x="483" y="0" on="0"/>
        <pt x="410" y="0" on="1"/>
        <pt x="337" y="0" on="0"/>
        <pt x="294" y="54" on="1"/>
        <pt x="260" y="95" on="0"/>
        <pt x="252" y="175" on="1"/>
        <pt x="250" y="175" on="1"/>
      </contour>
    </TTGlyph>
    <TTGlyph name="uni1789.a" xMin="250" yMin="0" xMax="1950" yMax="1500">
      <contour>
        <pt x="400" y="300" on="1"/>
        <pt x="400" y="150" on="1"/>
        <pt x="421" y="150" on="0"/>
        <pt x="450" y="173" on="0"/>
        <pt x="450" y="225" on="1"/>
        <pt x="450" y="277" on="0"/>
        <pt x="421" y="300" on="0"/>
      </contour>
      <contour>
        <pt x="1180" y="1335" on="1"/>
        <pt x="1485" y="1500" on="1"/>
        <pt x="1550" y="1500" on="1"/>
        <pt x="1950" y="1500" on="0"/>
        <pt x="1950" y="1100" on="1"/>
        <pt x="1950" y="0" on="1"/>
        <pt x="1780" y="0" on="1"/>
        <pt x="1780" y="1100" on="1"/>
        <pt x="1780" y="1350" on="0"/>
        <pt x="1550" y="1350" on="1"/>
        <pt x="1510" y="1350" on="1"/>
        <pt x="1280" y="1240" on="1"/>
      </contour>
      <contour>
        <pt x="250" y="1200" on="1"/>
        <pt x="510" y="1500" on="1"/>
        <pt x="750" y="1300" on="1"/>
        <pt x="990" y="1500" on="1"/>
        <pt x="1250" y="1200" on="1"/>
        <pt x="1250" y="0" on="1"/>
        <pt x="1080" y="0" on="1"/>
        <pt x="1080" y="1160" on="1"/>
        <pt x="980" y="1285" on="1"/>
        <pt x="750" y="1120" on="1"/>
        <pt x="520" y="1285" on="1"/>
        <pt x="420" y="1160" on="1"/>
        <pt x="420" y="440" on="1"/>
        <pt x="443" y="450" on="0"/>
        <pt x="473" y="450" on="1"/>
        <pt x="503" y="450" on="0"/>
        <pt x="570" y="343" on="0"/>
        <pt x="570" y="225" on="1"/>
        <pt x="570" y="107" on="0"/>
        <pt x="483" y="0" on="0"/>
        <pt x="410" y="0" on="1"/>
        <pt x="337" y="0" on="0"/>
        <pt x="294" y="54" on="1"/>
        <pt x="260" y="95" on="0"/>
        <pt x="252" y="175" on="1"/>
        <pt x="250" y="175" on="1"/>
      </contour>
    </TTGlyph>
    <TTGlyph name="uni178917C917B617C6" xMin="250" yMin="-1200" xMax="2650" yMax="2250">
      <contour>
        <pt x="1761" y="-178" on="1"/>
        <pt x="1731" y="-178" on="0"/>
        <pt x="1700" y="-199" on="1"/>
        <pt x="1640" y="-179" on="0"/>
        <pt x="1640" y="-114" on="1"/>
        <pt x="1640" y="-50" on="0"/>
        <pt x="1762" y="-50" on="1"/>
        <pt x="1950" y="-50" on="0"/>
        <pt x="1950" y="-230" on="1"/>
        <pt x="1950" y="-450" on="0"/>
        <pt x="1200" y="-450" on="1"/>
        <pt x="800" y="-450" on="0"/>
        <pt x="450" y="-250" on="0"/>
        <pt x="250" y="-250" on="1"/>
        <pt x="250" y="-100" on="1"/>
        <pt x="500" y="-100" on="0"/>
        <pt x="850" y="-300" on="0"/>
        <pt x="1200" y="-300" on="1"/>
        <pt x="1550" y="-300" on="0"/>
        <pt x="1790" y="-240" on="0"/>
        <pt x="1790" y="-209" on="1"/>
        <pt x="1790" y="-178" on="0"/>
      </contour>
      <contour>
        <pt x="400" y="300" on="1"/>
        <pt x="400" y="150" on="1"/>
        <pt x="421" y="150" on="0"/>
        <pt x="450" y="173" on="0"/>
        <pt x="450" y="225" on="1"/>
        <pt x="450" y="277" on="0"/>
        <pt x="421" y="300" on="0"/>
      </contour>
      <contour>
        <pt x="1180" y="1335" on="1"/>
        <pt x="1485" y="1500" on="1"/>
        <pt x="1550" y="1500" on="1"/>
        <pt x="1950" y="1500" on="0"/>
        <pt x="1950" y="1100" on="1"/>
        <pt x="1950" y="0" on="1"/>
        <pt x="1780" y="0" on="1"/>
        <pt x="1780" y="1100" on="1"/>
        <pt x="1780" y="1350" on="0"/>
        <pt x="1550" y="1350" on="1"/>
        <pt x="1510" y="1350" on="1"/>
        <pt x="1280" y="1240" on="1"/>
      </contour>
      <contour>
        <pt x="250" y="1200" on="1"/>
        <pt x="510" y="1500" on="1"/>
        <pt x="750" y="1300" on="1"/>
        <pt x="990" y="1500" on="1"/>
        <pt x="1250" y="1200" on="1"/>
        <pt x="1250" y="0" on="1"/>
        <pt x="1080" y="0" on="1"/>
        <pt x="1080" y="1160" on="1"/>
        <pt x="980" y="1285" on="1"/>
        <pt x="750" y="1120" on="1"/>
        <pt x="520" y="1285" on="1"/>
        <pt x="420" y="1160" on="1"/>
        <pt x="420" y="440" on="1"/>
        <pt x="443" y="450" on="0"/>
        <pt x="473" y="450" on="1"/>
        <pt x="503" y="450" on="0"/>
        <pt x="570" y="343" on="0"/>
        <pt x="570" y="225" on="1"/>
        <pt x="570" y="107" on="0"/>
        <pt x="483" y="0" on="0"/>
        <pt x="410" y="0" on="1"/>
        <pt x="337" y="0" on="0"/>
        <pt x="294" y="54" on="1"/>
        <pt x="260" y="95" on="0"/>
        <pt x="252" y="175" on="1"/>
        <pt x="250" y="175" on="1"/>
      </contour>
      <contour>
        <pt x="1950" y="1500" on="1"/>
        <pt x="2250" y="1500" on="1"/>
        <pt x="2650" y="1500" on="0"/>
        <pt x="2650" y="1100" on="1"/>
        <pt x="2650" y="0" on="1"/>
        <pt x="2480" y="0" on="1"/>
        <pt x="2480" y="1100" on="1"/>
        <pt x="2480" y="1350" on="0"/>
        <pt x="2250" y="1350" on="1"/>
        <pt x="1950" y="1350" on="1"/>
      </contour>
      <contour>
        <pt x="1950" y="-700" on="1"/>
        <pt x="1950" y="-1200" on="1"/>
        <pt x="1780" y="-1200" on="1"/>
        <pt x="1780" y="-700" on="1"/>
      </contour>
      <contour>
        <pt x="2200" y="2025" on="1"/>
        <pt x="2200" y="1988" on="0"/>
        <pt x="2219" y="1969" on="1"/>
        <pt x="2238" y="1950" on="0"/>
        <pt x="2275" y="1950" on="1"/>
        <pt x="2313" y="1950" on="0"/>
        <pt x="2332" y="1969" on="1"/>
        <pt x="2350" y="1988" on="0"/>
        <pt x="2350" y="2025" on="1"/>
        <pt x="2350" y="2063" on="0"/>
        <pt x="2332" y="2081" on="1"/>
        <pt x="2313" y="2100" on="0"/>
        <pt x="2275" y="2100" on="1"/>
        <pt x="2238" y="2100" on="0"/>
        <pt x="2219" y="2081" on="1"/>
        <pt x="2200" y="2063" on="0"/>
      </contour>
      <contour>
        <pt x="2500" y="2025" on="1"/>
        <pt x="2500" y="1912" on="0"/>
        <pt x="2444" y="1856" on="1"/>
        <pt x="2388" y="1800" on="0"/>
        <pt x="2275" y="1800" on="1"/>
        <pt x="2162" y="1800" on="0"/>
        <pt x="2106" y="1856" on="1"/>
        <pt x="2050" y="1912" on="0"/>
        <pt x="2050" y="2025" on="1"/>
        <pt x="2050" y="2138" on="0"/>
        <pt x="2106" y="2194" on="1"/>
        <pt x="2162" y="2250" on="0"/>
        <pt x="2275" y="2250" on="1"/>
        <pt x="2388" y="2250" on="0"/>
        <pt x="2444" y="2194" on="1"/>
        <pt x="2500" y="2138" on="0"/>
      </contour>
    </TTGlyph>
    <TTGlyph name="uni178A" xMin="250" yMin="0" xMax="1250" yMax="1650">
      <contour>
        <pt x="250" y="1100" on="1"/>
        <pt x="420" y="1100" on="1"/>
        <pt x="420" y="200" on="1"/>
        <pt x="750" y="500" on="1"/>
        <pt x="1080" y="200" on="1"/>
        <pt x="1080" y="1100" on="1"/>
        <pt x="1250" y="1100" on="1"/>
        <pt x="1250" y="0" on="1"/>
        <pt x="1100" y="0" on="1"/>
        <pt x="750" y="300" on="1"/>
        <pt x="400" y="0" on="1"/>
        <pt x="250" y="0" on="1"/>
      </contour>
      <contour>
        <pt x="420" y="1341" on="1"/>
        <pt x="420" y="1300" on="0"/>
        <pt x="750" y="1300" on="1"/>
        <pt x="1080" y="1300" on="0"/>
        <pt x="1080" y="1500" on="1"/>
        <pt x="1080" y="1650" on="1"/>
        <pt x="1250" y="1650" on="1"/>
        <pt x="1250" y="1500" on="1"/>
        <pt x="1250" y="1150" on="0"/>
        <pt x="750" y="1150" on="1"/>
        <pt x="250" y="1150" on="0"/>
        <pt x="250" y="1340" on="1"/>
        <pt x="250" y="1500" on="0"/>
        <pt x="416" y="1500" on="1"/>
        <pt x="521" y="1500" on="0"/>
        <pt x="560" y="1471" on="1"/>
        <pt x="560" y="1341" on="1"/>
        <pt x="489" y="1362" on="0"/>
        <pt x="455" y="1362" on="1"/>
        <pt x="420" y="1362" on="0"/>
      </contour>
    </TTGlyph>
    <TTGlyph name="uni178B" xMin="100" yMin="0" xMax="1400" yMax="1650">
      <contour>
        <pt x="225" y="1350" on="1"/>
        <pt x="214" y="1350" on="0"/>
        <pt x="200" y="1331" on="0"/>
        <pt x="200" y="1275" on="1"/>
        <pt x="200" y="1219" on="0"/>
        <pt x="214" y="1200" on="0"/>
        <pt x="225" y="1200" on="1"/>
        <pt x="250" y="1200" on="1"/>
        <pt x="250" y="1350" on="1"/>
      </contour>
      <contour>
        <pt x="1080" y="1100" on="1"/>
        <pt x="1080" y="1170" on="0"/>
        <pt x="980" y="1250" on="1"/>
        <pt x="980" y="1350" on="1"/>
        <pt x="980" y="1500" on="0"/>
        <pt x="1130" y="1500" on="1"/>
        <pt x="1175" y="1500" on="1"/>
        <pt x="1230" y="1430" on="1"/>
        <pt x="1250" y="1430" on="0"/>
        <pt x="1250" y="1470" on="1"/>
        <pt x="1250" y="1650" on="1"/>
        <pt x="1400" y="1650" on="1"/>
        <pt x="1400" y="1470" on="1"/>
        <pt x="1400" y="1300" on="0"/>
        <pt x="1250" y="1300" on="1"/>
        <pt x="1190" y="1350" on="1"/>
        <pt x="1130" y="1350" on="0"/>
        <pt x="1130" y="1300" on="1"/>
        <pt x="1250" y="1220" on="0"/>
        <pt x="1250" y="1100" on="1"/>
        <pt x="1250" y="500" on="1"/>
        <pt x="1250" y="0" on="0"/>
        <pt x="750" y="0" on="1"/>
        <pt x="250" y="0" on="0"/>
        <pt x="250" y="500" on="1"/>
        <pt x="250" y="1052" on="1"/>
        <pt x="238" y="1050" on="0"/>
        <pt x="225" y="1050" on="1"/>
        <pt x="167" y="1050" on="0"/>
        <pt x="100" y="1147" on="0"/>
        <pt x="100" y="1275" on="1"/>
        <pt x="100" y="1403" on="0"/>
        <pt x="167" y="1500" on="0"/>
        <pt x="260" y="1500" on="1"/>
        <pt x="353" y="1500" on="0"/>
        <pt x="420" y="1403" on="0"/>
        <pt x="420" y="1275" on="1"/>
        <pt x="420" y="500" on="1"/>
        <pt x="420" y="150" on="0"/>
        <pt x="750" y="150" on="1"/>
        <pt x="1080" y="150" on="0"/>
        <pt x="1080" y="500" on="1"/>
      </contour>
    </TTGlyph>
    <TTGlyph name="uni178C" xMin="250" yMin="0" xMax="1250" yMax="1500">
      <contour>
        <pt x="420" y="1100" on="1"/>
        <pt x="420" y="979" on="0"/>
        <pt x="514" y="979" on="1"/>
        <pt x="559" y="979" on="0"/>
        <pt x="630" y="1000" on="1"/>
        <pt x="630" y="850" on="1"/>
        <pt x="591" y="821" on="0"/>
        <pt x="528" y="821" on="1"/>
        <pt x="250" y="821" on="0"/>
        <pt x="250" y="1100" on="1"/>
        <pt x="250" y="1190" on="1"/>
        <pt x="510" y="1500" on="1"/>
        <pt x="750" y="1300" on="1"/>
        <pt x="990" y="1500" on="1"/>
        <pt x="1250" y="1190" on="1"/>
        <pt x="1250" y="1100" on="1"/>
        <pt x="1250" y="680" on="0"/>
        <pt x="420" y="500" on="1"/>
        <pt x="420" y="400" on="1"/>
        <pt x="420" y="150" on="0"/>
        <pt x="530" y="150" on="1"/>
        <pt x="686" y="150" on="0"/>
        <pt x="1080" y="480" on="1"/>
        <pt x="1080" y="600" on="1"/>
        <pt x="1250" y="600" on="1"/>
        <pt x="1250" y="0" on="1"/>
        <pt x="1080" y="0" on="1"/>
        <pt x="1080" y="300" on="1"/>
        <pt x="736" y="0" on="0"/>
        <pt x="530" y="0" on="1"/>
        <pt x="250" y="0" on="0"/>
        <pt x="250" y="400" on="1"/>
        <pt x="250" y="610" on="1"/>
        <pt x="1080" y="750" on="0"/>
        <pt x="1080" y="1100" on="1"/>
        <pt x="1080" y="1180" on="1"/>
        <pt x="980" y="1305" on="1"/>
        <pt x="750" y="1120" on="1"/>
        <pt x="520" y="1305" on="1"/>
        <pt x="420" y="1180" on="1"/>
      </contour>
    </TTGlyph>
    <TTGlyph name="uni178D" xMin="250" yMin="0" xMax="2000" yMax="1500">
      <contour>
        <pt x="400" y="300" on="1"/>
        <pt x="400" y="150" on="1"/>
        <pt x="421" y="150" on="0"/>
        <pt x="450" y="173" on="0"/>
        <pt x="450" y="225" on="1"/>
        <pt x="450" y="277" on="0"/>
        <pt x="421" y="300" on="0"/>
      </contour>
      <contour>
        <pt x="1950" y="1100" on="1"/>
        <pt x="1950" y="250" on="1"/>
        <pt x="1950" y="0" on="0"/>
        <pt x="1700" y="0" on="1"/>
        <pt x="1390" y="0" on="0"/>
        <pt x="1390" y="200" on="1"/>
        <pt x="1390" y="300" on="0"/>
        <pt x="1300" y="300" on="1"/>
        <pt x="1272" y="300" on="0"/>
        <pt x="1250" y="297" on="1"/>
        <pt x="1250" y="0" on="1"/>
        <pt x="1080" y="0" on="1"/>
        <pt x="1080" y="1180" on="1"/>
        <pt x="980" y="1305" on="1"/>
        <pt x="750" y="1120" on="1"/>
        <pt x="520" y="1305" on="1"/>
        <pt x="420" y="1180" on="1"/>
        <pt x="420" y="440" on="1"/>
        <pt x="443" y="450" on="0"/>
        <pt x="473" y="450" on="1"/>
        <pt x="503" y="450" on="0"/>
        <pt x="570" y="343" on="0"/>
        <pt x="570" y="225" on="1"/>
        <pt x="570" y="107" on="0"/>
        <pt x="483" y="0" on="0"/>
        <pt x="410" y="0" on="1"/>
        <pt x="337" y="0" on="0"/>
        <pt x="294" y="54" on="1"/>
        <pt x="260" y="95" on="0"/>
        <pt x="252" y="175" on="1"/>
        <pt x="250" y="175" on="1"/>
        <pt x="250" y="1190" on="1"/>
        <pt x="510" y="1500" on="1"/>
        <pt x="750" y="1300" on="1"/>
        <pt x="990" y="1500" on="1"/>
        <pt x="1250" y="1190" on="1"/>
        <pt x="1250" y="447" on="1"/>
        <pt x="1271" y="450" on="0"/>
        <pt x="1295" y="450" on="1"/>
        <pt x="1560" y="450" on="0"/>
        <pt x="1560" y="250" on="1"/>
        <pt x="1560" y="150" on="0"/>
        <pt x="1670" y="150" on="1"/>
        <pt x="1780" y="150" on="0"/>
        <pt x="1780" y="250" on="1"/>
        <pt x="1780" y="1100" on="1"/>
        <pt x="1780" y="1170" on="0"/>
        <pt x="1680" y="1250" on="1"/>
        <pt x="1680" y="1350" on="1"/>
        <pt x="1680" y="1500" on="0"/>
        <pt x="1830" y="1500" on="1"/>
        <pt x="2000" y="1500" on="1"/>
        <pt x="2000" y="1350" on="1"/>
        <pt x="1880" y="1350" on="1"/>
        <pt x="1830" y="1350" on="0"/>
        <pt x="1830" y="1300" on="1"/>
        <pt x="1950" y="1220" on="0"/>
      </contour>
    </TTGlyph>
    <TTGlyph name="uni178E" xMin="250" yMin="0" xMax="2450" yMax="1500">
      <contour>
        <pt x="400" y="300" on="1"/>
        <pt x="400" y="150" on="1"/>
        <pt x="421" y="150" on="0"/>
        <pt x="450" y="173" on="0"/>
        <pt x="450" y="225" on="1"/>
        <pt x="450" y="277" on="0"/>
        <pt x="421" y="300" on="0"/>
      </contour>
      <contour>
        <pt x="250" y="1000" on="1"/>
        <pt x="250" y="1500" on="0"/>
        <pt x="668" y="1500" on="1"/>
        <pt x="1085" y="1500" on="0"/>
        <pt x="1085" y="1000" on="1"/>
        <pt x="1085" y="170" on="1"/>
        <pt x="1350" y="520" on="1"/>
        <pt x="1615" y="170" on="1"/>
        <pt x="1615" y="1000" on="1"/>
        <pt x="1615" y="1500" on="0"/>
        <pt x="2033" y="1500" on="1"/>
        <pt x="2450" y="1500" on="0"/>
        <pt x="2450" y="1000" on="1"/>
        <pt x="2450" y="0" on="1"/>
        <pt x="2280" y="0" on="1"/>
        <pt x="2280" y="1000" on="1"/>
        <pt x="2280" y="1350" on="0"/>
        <pt x="2033" y="1350" on="1"/>
        <pt x="1785" y="1350" on="0"/>
        <pt x="1785" y="1000" on="1"/>
        <pt x="1785" y="0" on="1"/>
        <pt x="1565" y="0" on="1"/>
        <pt x="1350" y="300" on="1"/>
        <pt x="1135" y="0" on="1"/>
        <pt x="915" y="0" on="1"/>
        <pt x="915" y="1000" on="1"/>
        <pt x="915" y="1350" on="0"/>
        <pt x="658" y="1350" on="1"/>
        <pt x="420" y="1350" on="0"/>
        <pt x="420" y="1000" on="1"/>
        <pt x="420" y="440" on="1"/>
        <pt x="443" y="450" on="0"/>
        <pt x="473" y="450" on="1"/>
        <pt x="503" y="450" on="0"/>
        <pt x="570" y="343" on="0"/>
        <pt x="570" y="225" on="1"/>
        <pt x="570" y="107" on="0"/>
        <pt x="483" y="0" on="0"/>
        <pt x="410" y="0" on="1"/>
        <pt x="337" y="0" on="0"/>
        <pt x="294" y="54" on="1"/>
        <pt x="260" y="95" on="0"/>
        <pt x="252" y="175" on="1"/>
        <pt x="250" y="175" on="1"/>
      </contour>
    </TTGlyph>
    <TTGlyph name="uni178F" xMin="250" yMin="0" xMax="1250" yMax="1500">
      <contour>
        <pt x="400" y="300" on="1"/>
        <pt x="400" y="150" on="1"/>
        <pt x="421" y="150" on="0"/>
        <pt x="450" y="173" on="0"/>
        <pt x="450" y="225" on="1"/>
        <pt x="450" y="277" on="0"/>
        <pt x="421" y="300" on="0"/>
      </contour>
      <contour>
        <pt x="1250" y="1500" on="1"/>
        <pt x="1250" y="1350" on="1"/>
        <pt x="250" y="1350" on="1"/>
        <pt x="250" y="1500" on="1"/>
      </contour>
      <contour>
        <pt x="250" y="700" on="1"/>
        <pt x="250" y="1200" on="0"/>
        <pt x="750" y="1200" on="1"/>
        <pt x="1250" y="1200" on="0"/>
        <pt x="1250" y="700" on="1"/>
        <pt x="1250" y="0" on="1"/>
        <pt x="1080" y="0" on="1"/>
        <pt x="1080" y="700" on="1"/>
        <pt x="1080" y="1050" on="0"/>
        <pt x="750" y="1050" on="1"/>
        <pt x="420" y="1050" on="0"/>
        <pt x="420" y="700" on="1"/>
        <pt x="420" y="440" on="1"/>
        <pt x="443" y="450" on="0"/>
        <pt x="473" y="450" on="1"/>
        <pt x="503" y="450" on="0"/>
        <pt x="570" y="343" on="0"/>
        <pt x="570" y="225" on="1"/>
        <pt x="570" y="107" on="0"/>
        <pt x="483" y="0" on="0"/>
        <pt x="410" y="0" on="1"/>
        <pt x="337" y="0" on="0"/>
        <pt x="294" y="54" on="1"/>
        <pt x="260" y="95" on="0"/>
        <pt x="252" y="175" on="1"/>
        <pt x="250" y="175" on="1"/>
      </contour>
    </TTGlyph>
    <TTGlyph name="uni1790" xMin="200" yMin="0" xMax="1250" yMax="1650">
      <contour>
        <pt x="1080" y="975" on="1"/>
        <pt x="1059" y="975" on="0"/>
        <pt x="1030" y="949" on="0"/>
        <pt x="1030" y="925" on="1"/>
        <pt x="1030" y="901" on="0"/>
        <pt x="1059" y="875" on="0"/>
        <pt x="1080" y="875" on="1"/>
      </contour>
      <contour>
        <pt x="1080" y="757" on="1"/>
        <pt x="1070" y="756" on="0"/>
        <pt x="1060" y="756" on="1"/>
        <pt x="992" y="756" on="0"/>
        <pt x="959" y="799" on="1"/>
        <pt x="920" y="847" on="0"/>
        <pt x="920" y="925" on="1"/>
        <pt x="920" y="1003" on="0"/>
        <pt x="997" y="1100" on="0"/>
        <pt x="1085" y="1100" on="1"/>
        <pt x="1173" y="1100" on="0"/>
        <pt x="1250" y="1003" on="0"/>
        <pt x="1250" y="925" on="1"/>
        <pt x="1250" y="500" on="1"/>
        <pt x="1250" y="0" on="0"/>
        <pt x="750" y="0" on="1"/>
        <pt x="250" y="0" on="0"/>
        <pt x="250" y="500" on="1"/>
        <pt x="250" y="1100" on="1"/>
        <pt x="250" y="1170" on="0"/>
        <pt x="200" y="1250" on="1"/>
        <pt x="200" y="1300" on="1"/>
        <pt x="200" y="1500" on="0"/>
        <pt x="400" y="1500" on="1"/>
        <pt x="700" y="1500" on="1"/>
        <pt x="930" y="1350" on="1"/>
        <pt x="1010" y="1350" on="1"/>
        <pt x="1080" y="1350" on="0"/>
        <pt x="1080" y="1420" on="1"/>
        <pt x="1080" y="1650" on="1"/>
        <pt x="1250" y="1650" on="1"/>
        <pt x="1250" y="1420" on="1"/>
        <pt x="1250" y="1200" on="0"/>
        <pt x="1080" y="1200" on="1"/>
        <pt x="900" y="1200" on="1"/>
        <pt x="670" y="1350" on="1"/>
        <pt x="470" y="1350" on="1"/>
        <pt x="370" y="1350" on="0"/>
        <pt x="370" y="1290" on="1"/>
        <pt x="420" y="1210" on="0"/>
        <pt x="420" y="1100" on="1"/>
        <pt x="420" y="500" on="1"/>
        <pt x="420" y="150" on="0"/>
        <pt x="750" y="150" on="1"/>
        <pt x="1080" y="150" on="0"/>
        <pt x="1080" y="500" on="1"/>
      </contour>
    </TTGlyph>
    <TTGlyph name="uni1791" xMin="250" yMin="0" xMax="1250" yMax="1500">
      <contour>
        <pt x="1110" y="591" on="1"/>
        <pt x="1117" y="589" on="0"/>
        <pt x="1124" y="589" on="1"/>
        <pt x="1150" y="589" on="0"/>
        <pt x="1150" y="630" on="1"/>
        <pt x="1150" y="670" on="0"/>
        <pt x="1130" y="670" on="1"/>
        <pt x="1110" y="670" on="0"/>
        <pt x="1110" y="631" on="1"/>
      </contour>
      <contour>
        <pt x="1110" y="501" on="1"/>
        <pt x="1110" y="400" on="1"/>
        <pt x="1110" y="0" on="0"/>
        <pt x="750" y="0" on="1"/>
        <pt x="390" y="0" on="0"/>
        <pt x="390" y="400" on="1"/>
        <pt x="390" y="600" on="1"/>
        <pt x="560" y="600" on="1"/>
        <pt x="560" y="400" on="1"/>
        <pt x="560" y="150" on="0"/>
        <pt x="750" y="150" on="1"/>
        <pt x="940" y="150" on="0"/>
        <pt x="940" y="400" on="1"/>
        <pt x="940" y="525" on="1"/>
        <pt x="250" y="724" on="0"/>
        <pt x="250" y="1100" on="1"/>
        <pt x="250" y="1500" on="0"/>
        <pt x="750" y="1500" on="1"/>
        <pt x="1250" y="1500" on="0"/>
        <pt x="1250" y="1100" on="1"/>
        <pt x="1250" y="821" on="0"/>
        <pt x="972" y="821" on="1"/>
        <pt x="909" y="821" on="0"/>
        <pt x="870" y="850" on="1"/>
        <pt x="870" y="1000" on="1"/>
        <pt x="941" y="979" on="0"/>
        <pt x="986" y="979" on="1"/>
        <pt x="1080" y="979" on="0"/>
        <pt x="1080" y="1100" on="1"/>
        <pt x="1080" y="1350" on="0"/>
        <pt x="750" y="1350" on="1"/>
        <pt x="420" y="1350" on="0"/>
        <pt x="420" y="1100" on="1"/>
        <pt x="420" y="791" on="0"/>
        <pt x="940" y="665" on="1"/>
        <pt x="940" y="760" on="0"/>
        <pt x="1080" y="760" on="1"/>
        <pt x="1250" y="760" on="0"/>
        <pt x="1250" y="635" on="1"/>
        <pt x="1250" y="560" on="0"/>
        <pt x="1182" y="498" on="0"/>
        <pt x="1143" y="498" on="1"/>
        <pt x="1127" y="498" on="0"/>
      </contour>
    </TTGlyph>
    <TTGlyph name="uni1792" xMin="200" yMin="0" xMax="1250" yMax="1500">
      <contour>
        <pt x="1080" y="975" on="1"/>
        <pt x="1059" y="975" on="0"/>
        <pt x="1030" y="949" on="0"/>
        <pt x="1030" y="925" on="1"/>
        <pt x="1030" y="901" on="0"/>
        <pt x="1059" y="875" on="0"/>
        <pt x="1080" y="875" on="1"/>
      </contour>
      <contour>
        <pt x="1080" y="757" on="1"/>
        <pt x="1070" y="756" on="0"/>
        <pt x="1060" y="756" on="1"/>
        <pt x="992" y="756" on="0"/>
        <pt x="959" y="799" on="1"/>
        <pt x="920" y="847" on="0"/>
        <pt x="920" y="925" on="1"/>
        <pt x="920" y="1003" on="0"/>
        <pt x="997" y="1100" on="0"/>
        <pt x="1085" y="1100" on="1"/>
        <pt x="1173" y="1100" on="0"/>
        <pt x="1250" y="1003" on="0"/>
        <pt x="1250" y="925" on="1"/>
        <pt x="1250" y="0" on="1"/>
        <pt x="1100" y="0" on="1"/>
        <pt x="750" y="300" on="1"/>
        <pt x="400" y="0" on="1"/>
        <pt x="250" y="0" on="1"/>
        <pt x="250" y="1100" on="1"/>
        <pt x="250" y="1170" on="0"/>
        <pt x="200" y="1250" on="1"/>
        <pt x="200" y="1300" on="1"/>
        <pt x="200" y="1500" on="0"/>
        <pt x="400" y="1500" on="1"/>
        <pt x="1250" y="1500" on="1"/>
        <pt x="1250" y="1350" on="1"/>
        <pt x="470" y="1350" on="1"/>
        <pt x="370" y="1350" on="0"/>
        <pt x="370" y="1290" on="1"/>
        <pt x="420" y="1210" on="0"/>
        <pt x="420" y="1100" on="1"/>
        <pt x="420" y="200" on="1"/>
        <pt x="750" y="480" on="1"/>
        <pt x="1080" y="200" on="1"/>
      </contour>
    </TTGlyph>
    <TTGlyph name="uni1793" xMin="250" yMin="0" xMax="1250" yMax="1500">
      <contour>
        <pt x="1250" y="610" on="1"/>
        <pt x="1250" y="400" on="1"/>
        <pt x="1250" y="0" on="0"/>
        <pt x="970" y="0" on="1"/>
        <pt x="764" y="0" on="0"/>
        <pt x="566" y="250" on="0"/>
        <pt x="420" y="250" on="1"/>
        <pt x="420" y="0" on="1"/>
        <pt x="250" y="0" on="1"/>
        <pt x="250" y="600" on="1"/>
        <pt x="420" y="600" on="1"/>
        <pt x="420" y="400" on="1"/>
        <pt x="595" y="400" on="0"/>
        <pt x="814" y="150" on="0"/>
        <pt x="927" y="150" on="1"/>
        <pt x="1080" y="150" on="0"/>
        <pt x="1080" y="400" on="1"/>
        <pt x="1080" y="500" on="1"/>
        <pt x="250" y="680" on="0"/>
        <pt x="250" y="1100" on="1"/>
        <pt x="250" y="1500" on="0"/>
        <pt x="750" y="1500" on="1"/>
        <pt x="1250" y="1500" on="0"/>
        <pt x="1250" y="1100" on="1"/>
        <pt x="1250" y="821" on="0"/>
        <pt x="972" y="821" on="1"/>
        <pt x="909" y="821" on="0"/>
        <pt x="870" y="850" on="1"/>
        <pt x="870" y="1000" on="1"/>
        <pt x="941" y="979" on="0"/>
        <pt x="986" y="979" on="1"/>
        <pt x="1080" y="979" on="0"/>
        <pt x="1080" y="1100" on="1"/>
        <pt x="1080" y="1350" on="0"/>
        <pt x="750" y="1350" on="1"/>
        <pt x="420" y="1350" on="0"/>
        <pt x="420" y="1100" on="1"/>
        <pt x="420" y="800" on="0"/>
      </contour>
    </TTGlyph>
    <TTGlyph name="uni1794" xMin="150" yMin="0" xMax="1300" yMax="1500">
      <contour>
        <pt x="1080" y="1100" on="1"/>
        <pt x="1080" y="1170" on="0"/>
        <pt x="980" y="1250" on="1"/>
        <pt x="980" y="1350" on="1"/>
        <pt x="980" y="1500" on="0"/>
        <pt x="1130" y="1500" on="1"/>
        <pt x="1300" y="1500" on="1"/>
        <pt x="1300" y="1350" on="1"/>
        <pt x="1180" y="1350" on="1"/>
        <pt x="1130" y="1350" on="0"/>
        <pt x="1130" y="1300" on="1"/>
        <pt x="1250" y="1220" on="0"/>
        <pt x="1250" y="1100" on="1"/>
        <pt x="1250" y="500" on="1"/>
        <pt x="1250" y="0" on="0"/>
        <pt x="750" y="0" on="1"/>
        <pt x="250" y="0" on="0"/>
        <pt x="250" y="500" on="1"/>
        <pt x="250" y="1100" on="1"/>
        <pt x="250" y="1170" on="0"/>
        <pt x="150" y="1250" on="1"/>
        <pt x="150" y="1350" on="1"/>
        <pt x="150" y="1500" on="0"/>
        <pt x="300" y="1500" on="1"/>
        <pt x="470" y="1500" on="1"/>
        <pt x="470" y="1350" on="1"/>
        <pt x="350" y="1350" on="1"/>
        <pt x="300" y="1350" on="0"/>
        <pt x="300" y="1300" on="1"/>
        <pt x="420" y="1220" on="0"/>
        <pt x="420" y="1100" on="1"/>
        <pt x="420" y="500" on="1"/>
        <pt x="420" y="150" on="0"/>
        <pt x="750" y="150" on="1"/>
        <pt x="1080" y="150" on="0"/>
        <pt x="1080" y="500" on="1"/>
      </contour>
    </TTGlyph>
    <TTGlyph name="uni1794.a" xMin="200" yMin="-100" xMax="1250" yMax="1500">
      <contour>
        <pt x="250" y="1100" on="1"/>
        <pt x="250" y="1170" on="0"/>
        <pt x="200" y="1250" on="1"/>
        <pt x="200" y="1300" on="1"/>
        <pt x="200" y="1500" on="0"/>
        <pt x="400" y="1500" on="1"/>
        <pt x="1250" y="1500" on="1"/>
        <pt x="1250" y="1350" on="1"/>
        <pt x="470" y="1350" on="1"/>
        <pt x="370" y="1350" on="0"/>
        <pt x="370" y="1290" on="1"/>
        <pt x="420" y="1210" on="0"/>
        <pt x="420" y="1100" on="1"/>
        <pt x="420" y="500" on="1"/>
        <pt x="420" y="150" on="0"/>
        <pt x="750" y="150" on="1"/>
        <pt x="1080" y="150" on="0"/>
        <pt x="1080" y="500" on="1"/>
        <pt x="1080" y="1100" on="1"/>
        <pt x="1250" y="1100" on="1"/>
        <pt x="1250" y="-100" on="1"/>
        <pt x="1080" y="-100" on="1"/>
        <pt x="1080" y="87" on="1"/>
        <pt x="958" y="0" on="0"/>
        <pt x="750" y="0" on="1"/>
        <pt x="250" y="0" on="0"/>
        <pt x="250" y="500" on="1"/>
      </contour>
    </TTGlyph>
    <TTGlyph name="uni179417C917B6" xMin="200" yMin="-100" xMax="1950" yMax="2250">
      <contour>
        <pt x="250" y="1100" on="1"/>
        <pt x="250" y="1170" on="0"/>
        <pt x="200" y="1250" on="1"/>
        <pt x="200" y="1300" on="1"/>
        <pt x="200" y="1500" on="0"/>
        <pt x="400" y="1500" on="1"/>
        <pt x="1550" y="1500" on="1"/>
        <pt x="1950" y="1500" on="0"/>
        <pt x="1950" y="1100" on="1"/>
        <pt x="1950" y="0" on="1"/>
        <pt x="1780" y="0" on="1"/>
        <pt x="1780" y="1100" on="1"/>
        <pt x="1780" y="1350" on="0"/>
        <pt x="1550" y="1350" on="1"/>
        <pt x="470" y="1350" on="1"/>
        <pt x="370" y="1350" on="0"/>
        <pt x="370" y="1290" on="1"/>
        <pt x="420" y="1210" on="0"/>
        <pt x="420" y="1100" on="1"/>
        <pt x="420" y="500" on="1"/>
        <pt x="420" y="150" on="0"/>
        <pt x="750" y="150" on="1"/>
        <pt x="1080" y="150" on="0"/>
        <pt x="1080" y="500" on="1"/>
        <pt x="1080" y="1100" on="1"/>
        <pt x="1250" y="1100" on="1"/>
        <pt x="1250" y="-100" on="1"/>
        <pt x="1080" y="-100" on="1"/>
        <pt x="1080" y="87" on="1"/>
        <pt x="958" y="0" on="0"/>
        <pt x="750" y="0" on="1"/>
        <pt x="250" y="0" on="0"/>
        <pt x="250" y="500" on="1"/>
      </contour>
      <contour>
        <pt x="850" y="2250" on="1"/>
        <pt x="850" y="1800" on="1"/>
        <pt x="700" y="1800" on="1"/>
        <pt x="700" y="2250" on="1"/>
      </contour>
      <contour>
        <pt x="1150" y="2250" on="1"/>
        <pt x="1150" y="1800" on="1"/>
        <pt x="1000" y="1800" on="1"/>
        <pt x="1000" y="2250" on="1"/>
      </contour>
    </TTGlyph>
    <TTGlyph name="uni179417C917C5" xMin="200" yMin="-100" xMax="1950" yMax="2250">
      <contour>
        <pt x="1780" y="1101" on="1"/>
        <pt x="1779" y="1350" on="0"/>
        <pt x="1550" y="1350" on="1"/>
        <pt x="470" y="1350" on="1"/>
        <pt x="370" y="1350" on="0"/>
        <pt x="370" y="1290" on="1"/>
        <pt x="420" y="1210" on="0"/>
        <pt x="420" y="1100" on="1"/>
        <pt x="420" y="500" on="1"/>
        <pt x="420" y="150" on="0"/>
        <pt x="750" y="150" on="1"/>
        <pt x="1080" y="150" on="0"/>
        <pt x="1080" y="500" on="1"/>
        <pt x="1080" y="1100" on="1"/>
        <pt x="1250" y="1100" on="1"/>
        <pt x="1250" y="-100" on="1"/>
        <pt x="1080" y="-100" on="1"/>
        <pt x="1080" y="87" on="1"/>
        <pt x="958" y="0" on="0"/>
        <pt x="750" y="0" on="1"/>
        <pt x="250" y="0" on="0"/>
        <pt x="250" y="500" on="1"/>
        <pt x="250" y="1100" on="1"/>
        <pt x="250" y="1170" on="0"/>
        <pt x="200" y="1250" on="1"/>
        <pt x="200" y="1300" on="1"/>
        <pt x="200" y="1500" on="0"/>
        <pt x="400" y="1500" on="1"/>
        <pt x="1550" y="1500" on="1"/>
        <pt x="1689" y="1500" on="0"/>
        <pt x="1780" y="1452" on="1"/>
        <pt x="1780" y="1660" on="1"/>
        <pt x="1780" y="1750" on="0"/>
        <pt x="1700" y="1750" on="1"/>
        <pt x="1650" y="1750" on="1"/>
        <pt x="1650" y="1900" on="1"/>
        <pt x="1750" y="1900" on="1"/>
        <pt x="1950" y="1900" on="0"/>
        <pt x="1950" y="1700" on="1"/>
        <pt x="1950" y="0" on="1"/>
        <pt x="1780" y="0" on="1"/>
      </contour>
      <contour>
        <pt x="850" y="2250" on="1"/>
        <pt x="850" y="1800" on="1"/>
        <pt x="700" y="1800" on="1"/>
        <pt x="700" y="2250" on="1"/>
      </contour>
      <contour>
        <pt x="1150" y="2250" on="1"/>
        <pt x="1150" y="1800" on="1"/>
        <pt x="1000" y="1800" on="1"/>
        <pt x="1000" y="2250" on="1"/>
      </contour>
    </TTGlyph>
    <TTGlyph name="uni179417D2178A17B6" xMin="200" yMin="-650" xMax="1950" yMax="1500">
      <contour>
        <pt x="250" y="1100" on="1"/>
        <pt x="250" y="1170" on="0"/>
        <pt x="200" y="1250" on="1"/>
        <pt x="200" y="1300" on="1"/>
        <pt x="200" y="1500" on="0"/>
        <pt x="400" y="1500" on="1"/>
        <pt x="1550" y="1500" on="1"/>
        <pt x="1950" y="1500" on="0"/>
        <pt x="1950" y="1100" on="1"/>
        <pt x="1950" y="0" on="1"/>
        <pt x="1780" y="0" on="1"/>
        <pt x="1780" y="1100" on="1"/>
        <pt x="1780" y="1350" on="0"/>
        <pt x="1550" y="1350" on="1"/>
        <pt x="470" y="1350" on="1"/>
        <pt x="370" y="1350" on="0"/>
        <pt x="370" y="1290" on="1"/>
        <pt x="420" y="1210" on="0"/>
        <pt x="420" y="1100" on="1"/>
        <pt x="420" y="500" on="1"/>
        <pt x="420" y="150" on="0"/>
        <pt x="750" y="150" on="1"/>
        <pt x="1080" y="150" on="0"/>
        <pt x="1080" y="500" on="1"/>
        <pt x="1080" y="1100" on="1"/>
        <pt x="1250" y="1100" on="1"/>
        <pt x="1250" y="-100" on="1"/>
        <pt x="1080" y="-100" on="1"/>
        <pt x="1080" y="87" on="1"/>
        <pt x="958" y="0" on="0"/>
        <pt x="750" y="0" on="1"/>
        <pt x="250" y="0" on="0"/>
        <pt x="250" y="500" on="1"/>
      </contour>
      <contour>
        <pt x="450" y="-550" on="1"/>
        <pt x="471" y="-550" on="0"/>
        <pt x="480" y="-531" on="0"/>
        <pt x="480" y="-515" on="1"/>
        <pt x="480" y="-499" on="0"/>
        <pt x="471" y="-480" on="0"/>
        <pt x="450" y="-480" on="1"/>
      </contour>
      <contour>
        <pt x="300" y="-380" on="1"/>
        <pt x="300" y="-100" on="0"/>
        <pt x="750" y="-100" on="1"/>
        <pt x="1200" y="-100" on="0"/>
        <pt x="1200" y="-400" on="1"/>
        <pt x="1200" y="-650" on="1"/>
        <pt x="1050" y="-650" on="1"/>
        <pt x="1050" y="-400" on="1"/>
        <pt x="1050" y="-250" on="0"/>
        <pt x="750" y="-250" on="1"/>
        <pt x="450" y="-250" on="0"/>
        <pt x="450" y="-380" on="1"/>
        <pt x="513" y="-380" on="0"/>
        <pt x="580" y="-447" on="0"/>
        <pt x="580" y="-515" on="1"/>
        <pt x="580" y="-583" on="0"/>
        <pt x="503" y="-650" on="0"/>
        <pt x="440" y="-650" on="1"/>
        <pt x="377" y="-650" on="0"/>
        <pt x="300" y="-583" on="0"/>
        <pt x="300" y="-515" on="1"/>
      </contour>
    </TTGlyph>
    <TTGlyph name="uni1795" xMin="200" yMin="0" xMax="1250" yMax="1650">
      <contour>
        <pt x="1080" y="975" on="1"/>
        <pt x="1059" y="975" on="0"/>
        <pt x="1030" y="949" on="0"/>
        <pt x="1030" y="925" on="1"/>
        <pt x="1030" y="901" on="0"/>
        <pt x="1059" y="875" on="0"/>
        <pt x="1080" y="875" on="1"/>
      </contour>
      <contour>
        <pt x="250" y="1100" on="1"/>
        <pt x="250" y="1170" on="0"/>
        <pt x="200" y="1250" on="1"/>
        <pt x="200" y="1300" on="1"/>
        <pt x="200" y="1500" on="0"/>
        <pt x="400" y="1500" on="1"/>
        <pt x="700" y="1500" on="1"/>
        <pt x="930" y="1350" on="1"/>
        <pt x="1010" y="1350" on="1"/>
        <pt x="1080" y="1350" on="0"/>
        <pt x="1080" y="1420" on="1"/>
        <pt x="1080" y="1650" on="1"/>
        <pt x="1250" y="1650" on="1"/>
        <pt x="1250" y="1420" on="1"/>
        <pt x="1250" y="1200" on="0"/>
        <pt x="1080" y="1200" on="1"/>
        <pt x="900" y="1200" on="1"/>
        <pt x="670" y="1350" on="1"/>
        <pt x="470" y="1350" on="1"/>
        <pt x="370" y="1350" on="0"/>
        <pt x="370" y="1290" on="1"/>
        <pt x="420" y="1210" on="0"/>
        <pt x="420" y="1100" on="1"/>
        <pt x="420" y="200" on="1"/>
        <pt x="750" y="480" on="1"/>
        <pt x="1080" y="200" on="1"/>
        <pt x="1080" y="757" on="1"/>
        <pt x="1070" y="756" on="0"/>
        <pt x="1060" y="756" on="1"/>
        <pt x="992" y="756" on="0"/>
        <pt x="959" y="799" on="1"/>
        <pt x="920" y="847" on="0"/>
        <pt x="920" y="925" on="1"/>
        <pt x="920" y="1003" on="0"/>
        <pt x="997" y="1100" on="0"/>
        <pt x="1085" y="1100" on="1"/>
        <pt x="1173" y="1100" on="0"/>
        <pt x="1250" y="1003" on="0"/>
        <pt x="1250" y="925" on="1"/>
        <pt x="1250" y="0" on="1"/>
        <pt x="1100" y="0" on="1"/>
        <pt x="750" y="300" on="1"/>
        <pt x="400" y="0" on="1"/>
        <pt x="250" y="0" on="1"/>
      </contour>
    </TTGlyph>
    <TTGlyph name="uni1796" xMin="250" yMin="0" xMax="1250" yMax="1500">
      <contour>
        <pt x="400" y="300" on="1"/>
        <pt x="400" y="150" on="1"/>
        <pt x="421" y="150" on="0"/>
        <pt x="450" y="173" on="0"/>
        <pt x="450" y="225" on="1"/>
        <pt x="450" y="277" on="0"/>
        <pt x="421" y="300" on="0"/>
      </contour>
      <contour>
        <pt x="250" y="1200" on="1"/>
        <pt x="510" y="1500" on="1"/>
        <pt x="750" y="1300" on="1"/>
        <pt x="990" y="1500" on="1"/>
        <pt x="1250" y="1200" on="1"/>
        <pt x="1250" y="0" on="1"/>
        <pt x="1080" y="0" on="1"/>
        <pt x="1080" y="1160" on="1"/>
        <pt x="980" y="1285" on="1"/>
        <pt x="750" y="1120" on="1"/>
        <pt x="520" y="1285" on="1"/>
        <pt x="420" y="1160" on="1"/>
        <pt x="420" y="440" on="1"/>
        <pt x="443" y="450" on="0"/>
        <pt x="473" y="450" on="1"/>
        <pt x="503" y="450" on="0"/>
        <pt x="570" y="343" on="0"/>
        <pt x="570" y="225" on="1"/>
        <pt x="570" y="107" on="0"/>
        <pt x="483" y="0" on="0"/>
        <pt x="410" y="0" on="1"/>
        <pt x="337" y="0" on="0"/>
        <pt x="294" y="54" on="1"/>
        <pt x="260" y="95" on="0"/>
        <pt x="252" y="175" on="1"/>
        <pt x="250" y="175" on="1"/>
      </contour>
    </TTGlyph>
    <TTGlyph name="uni1797" xMin="90" yMin="0" xMax="1250" yMax="1500">
      <contour>
        <pt x="1250" y="1500" on="1"/>
        <pt x="1250" y="1350" on="1"/>
        <pt x="250" y="1350" on="1"/>
        <pt x="250" y="1500" on="1"/>
      </contour>
      <contour>
        <pt x="350" y="175" on="1"/>
        <pt x="250" y="463" on="0"/>
        <pt x="250" y="700" on="1"/>
        <pt x="250" y="1200" on="0"/>
        <pt x="750" y="1200" on="1"/>
        <pt x="1250" y="1200" on="0"/>
        <pt x="1250" y="700" on="1"/>
        <pt x="1250" y="0" on="1"/>
        <pt x="1080" y="0" on="1"/>
        <pt x="1080" y="700" on="1"/>
        <pt x="1080" y="1050" on="0"/>
        <pt x="750" y="1050" on="1"/>
        <pt x="420" y="1050" on="0"/>
        <pt x="420" y="700" on="1"/>
        <pt x="420" y="463" on="0"/>
        <pt x="520" y="175" on="1"/>
        <pt x="520" y="97" on="0"/>
        <pt x="433" y="0" on="0"/>
        <pt x="340" y="0" on="1"/>
        <pt x="247" y="0" on="0"/>
        <pt x="150" y="127" on="0"/>
        <pt x="90" y="360" on="1"/>
        <pt x="230" y="400" on="1"/>
        <pt x="295" y="140" on="0"/>
        <pt x="356" y="120" on="1"/>
      </contour>
    </TTGlyph>
    <TTGlyph name="uni1798" xMin="150" yMin="0" xMax="1300" yMax="1500">
      <contour>
        <pt x="420" y="700" on="1"/>
        <pt x="420" y="500" on="1"/>
        <pt x="420" y="150" on="0"/>
        <pt x="750" y="150" on="1"/>
        <pt x="1080" y="150" on="0"/>
        <pt x="1080" y="500" on="1"/>
        <pt x="1080" y="700" on="1"/>
      </contour>
      <contour>
        <pt x="420" y="850" on="1"/>
        <pt x="1080" y="850" on="1"/>
        <pt x="1080" y="1100" on="1"/>
        <pt x="1080" y="1170" on="0"/>
        <pt x="980" y="1250" on="1"/>
        <pt x="980" y="1350" on="1"/>
        <pt x="980" y="1500" on="0"/>
        <pt x="1130" y="1500" on="1"/>
        <pt x="1300" y="1500" on="1"/>
        <pt x="1300" y="1350" on="1"/>
        <pt x="1180" y="1350" on="1"/>
        <pt x="1130" y="1350" on="0"/>
        <pt x="1130" y="1300" on="1"/>
        <pt x="1250" y="1220" on="0"/>
        <pt x="1250" y="1100" on="1"/>
        <pt x="1250" y="500" on="1"/>
        <pt x="1250" y="0" on="0"/>
        <pt x="750" y="0" on="1"/>
        <pt x="250" y="0" on="0"/>
        <pt x="250" y="500" on="1"/>
        <pt x="250" y="1100" on="1"/>
        <pt x="250" y="1170" on="0"/>
        <pt x="150" y="1250" on="1"/>
        <pt x="150" y="1350" on="1"/>
        <pt x="150" y="1500" on="0"/>
        <pt x="300" y="1500" on="1"/>
        <pt x="470" y="1500" on="1"/>
        <pt x="470" y="1350" on="1"/>
        <pt x="350" y="1350" on="1"/>
        <pt x="300" y="1350" on="0"/>
        <pt x="300" y="1300" on="1"/>
        <pt x="420" y="1220" on="0"/>
        <pt x="420" y="1100" on="1"/>
      </contour>
    </TTGlyph>
    <TTGlyph name="uni1799" xMin="250" yMin="0" xMax="2000" yMax="1500">
      <contour>
        <pt x="420" y="1275" on="1"/>
        <pt x="441" y="1275" on="0"/>
        <pt x="470" y="1301" on="0"/>
        <pt x="470" y="1325" on="1"/>
        <pt x="470" y="1349" on="0"/>
        <pt x="441" y="1375" on="0"/>
        <pt x="420" y="1375" on="1"/>
      </contour>
      <contour>
        <pt x="1780" y="1100" on="1"/>
        <pt x="1780" y="1170" on="0"/>
        <pt x="1680" y="1250" on="1"/>
        <pt x="1680" y="1350" on="1"/>
        <pt x="1680" y="1500" on="0"/>
        <pt x="1830" y="1500" on="1"/>
        <pt x="2000" y="1500" on="1"/>
        <pt x="2000" y="1350" on="1"/>
        <pt x="1880" y="1350" on="1"/>
        <pt x="1830" y="1350" on="0"/>
        <pt x="1830" y="1300" on="1"/>
        <pt x="1950" y="1220" on="0"/>
        <pt x="1950" y="1100" on="1"/>
        <pt x="1950" y="500" on="1"/>
        <pt x="1950" y="0" on="0"/>
        <pt x="1500" y="0" on="1"/>
        <pt x="1200" y="0" on="0"/>
        <pt x="1100" y="222" on="1"/>
        <pt x="1000" y="0" on="0"/>
        <pt x="700" y="0" on="1"/>
        <pt x="250" y="0" on="0"/>
        <pt x="250" y="500" on="1"/>
        <pt x="250" y="1325" on="1"/>
        <pt x="250" y="1403" on="0"/>
        <pt x="327" y="1500" on="0"/>
        <pt x="415" y="1500" on="1"/>
        <pt x="503" y="1500" on="0"/>
        <pt x="580" y="1403" on="0"/>
        <pt x="580" y="1325" on="1"/>
        <pt x="580" y="1247" on="0"/>
        <pt x="541" y="1199" on="1"/>
        <pt x="508" y="1156" on="0"/>
        <pt x="440" y="1156" on="1"/>
        <pt x="430" y="1156" on="0"/>
        <pt x="420" y="1157" on="1"/>
        <pt x="420" y="500" on="1"/>
        <pt x="420" y="150" on="0"/>
        <pt x="700" y="150" on="1"/>
        <pt x="1015" y="150" on="0"/>
        <pt x="1015" y="500" on="1"/>
        <pt x="1015" y="1100" on="1"/>
        <pt x="1015" y="1170" on="0"/>
        <pt x="915" y="1250" on="1"/>
        <pt x="915" y="1350" on="1"/>
        <pt x="915" y="1500" on="0"/>
        <pt x="1065" y="1500" on="1"/>
        <pt x="1235" y="1500" on="1"/>
        <pt x="1235" y="1350" on="1"/>
        <pt x="1115" y="1350" on="1"/>
        <pt x="1065" y="1350" on="0"/>
        <pt x="1065" y="1300" on="1"/>
        <pt x="1185" y="1220" on="0"/>
        <pt x="1185" y="1100" on="1"/>
        <pt x="1185" y="500" on="1"/>
        <pt x="1185" y="150" on="0"/>
        <pt x="1500" y="150" on="1"/>
        <pt x="1780" y="150" on="0"/>
        <pt x="1780" y="500" on="1"/>
      </contour>
    </TTGlyph>
    <TTGlyph name="uni179A" xMin="100" yMin="0" xMax="470" yMax="1500">
      <contour>
        <pt x="250" y="150" on="1"/>
        <pt x="250" y="300" on="1"/>
        <pt x="225" y="300" on="1"/>
        <pt x="214" y="300" on="0"/>
        <pt x="200" y="281" on="0"/>
        <pt x="200" y="225" on="1"/>
        <pt x="200" y="169" on="0"/>
        <pt x="214" y="150" on="0"/>
        <pt x="225" y="150" on="1"/>
      </contour>
      <contour>
        <pt x="420" y="1100" on="1"/>
        <pt x="420" y="225" on="1"/>
        <pt x="420" y="97" on="0"/>
        <pt x="353" y="0" on="0"/>
        <pt x="260" y="0" on="1"/>
        <pt x="167" y="0" on="0"/>
        <pt x="100" y="97" on="0"/>
        <pt x="100" y="225" on="1"/>
        <pt x="100" y="353" on="0"/>
        <pt x="167" y="450" on="0"/>
        <pt x="225" y="450" on="1"/>
        <pt x="238" y="450" on="0"/>
        <pt x="250" y="448" on="1"/>
        <pt x="250" y="1100" on="1"/>
        <pt x="230" y="1170" on="0"/>
        <pt x="150" y="1250" on="1"/>
        <pt x="150" y="1350" on="1"/>
        <pt x="150" y="1500" on="0"/>
        <pt x="300" y="1500" on="1"/>
        <pt x="470" y="1500" on="1"/>
        <pt x="470" y="1350" on="1"/>
        <pt x="350" y="1350" on="1"/>
        <pt x="300" y="1350" on="0"/>
        <pt x="300" y="1300" on="1"/>
        <pt x="420" y="1220" on="0"/>
      </contour>
    </TTGlyph>
    <TTGlyph name="uni179A17C917B617C6" xMin="100" yMin="-650" xMax="1120" yMax="2250">
      <contour>
        <pt x="250" y="150" on="1"/>
        <pt x="250" y="300" on="1"/>
        <pt x="225" y="300" on="1"/>
        <pt x="214" y="300" on="0"/>
        <pt x="200" y="281" on="0"/>
        <pt x="200" y="225" on="1"/>
        <pt x="200" y="169" on="0"/>
        <pt x="214" y="150" on="0"/>
        <pt x="225" y="150" on="1"/>
      </contour>
      <contour>
        <pt x="320" y="1350" on="1"/>
        <pt x="300" y="1340" on="0"/>
        <pt x="300" y="1300" on="1"/>
        <pt x="420" y="1220" on="0"/>
        <pt x="420" y="1100" on="1"/>
        <pt x="420" y="225" on="1"/>
        <pt x="420" y="97" on="0"/>
        <pt x="353" y="0" on="0"/>
        <pt x="260" y="0" on="1"/>
        <pt x="167" y="0" on="0"/>
        <pt x="100" y="97" on="0"/>
        <pt x="100" y="225" on="1"/>
        <pt x="100" y="353" on="0"/>
        <pt x="167" y="450" on="0"/>
        <pt x="225" y="450" on="1"/>
        <pt x="238" y="450" on="0"/>
        <pt x="250" y="448" on="1"/>
        <pt x="250" y="1100" on="1"/>
        <pt x="230" y="1170" on="0"/>
        <pt x="150" y="1250" on="1"/>
        <pt x="150" y="1350" on="1"/>
        <pt x="150" y="1500" on="0"/>
        <pt x="340" y="1500" on="1"/>
        <pt x="720" y="1500" on="1"/>
        <pt x="1120" y="1500" on="0"/>
        <pt x="1120" y="1100" on="1"/>
        <pt x="1120" y="0" on="1"/>
        <pt x="950" y="0" on="1"/>
        <pt x="950" y="1100" on="1"/>
        <pt x="950" y="1350" on="0"/>
        <pt x="720" y="1350" on="1"/>
      </contour>
      <contour>
        <pt x="600" y="2025" on="1"/>
        <pt x="600" y="1988" on="0"/>
        <pt x="619" y="1969" on="1"/>
        <pt x="638" y="1950" on="0"/>
        <pt x="675" y="1950" on="1"/>
        <pt x="713" y="1950" on="0"/>
        <pt x="732" y="1969" on="1"/>
        <pt x="750" y="1988" on="0"/>
        <pt x="750" y="2025" on="1"/>
        <pt x="750" y="2063" on="0"/>
        <pt x="732" y="2081" on="1"/>
        <pt x="713" y="2100" on="0"/>
        <pt x="675" y="2100" on="1"/>
        <pt x="638" y="2100" on="0"/>
        <pt x="619" y="2081" on="1"/>
        <pt x="600" y="2063" on="0"/>
      </contour>
      <contour>
        <pt x="900" y="2025" on="1"/>
        <pt x="900" y="1912" on="0"/>
        <pt x="844" y="1856" on="1"/>
        <pt x="788" y="1800" on="0"/>
        <pt x="675" y="1800" on="1"/>
        <pt x="562" y="1800" on="0"/>
        <pt x="506" y="1856" on="1"/>
        <pt x="450" y="1912" on="0"/>
        <pt x="450" y="2025" on="1"/>
        <pt x="450" y="2138" on="0"/>
        <pt x="506" y="2194" on="1"/>
        <pt x="562" y="2250" on="0"/>
        <pt x="675" y="2250" on="1"/>
        <pt x="788" y="2250" on="0"/>
        <pt x="844" y="2194" on="1"/>
        <pt x="900" y="2138" on="0"/>
      </contour>
      <contour>
        <pt x="400" y="-100" on="1"/>
        <pt x="400" y="-650" on="1"/>
        <pt x="230" y="-650" on="1"/>
        <pt x="230" y="-100" on="1"/>
      </contour>
    </TTGlyph>
    <TTGlyph name="uni179B" xMin="250" yMin="0" xMax="2000" yMax="1500">
      <contour>
        <pt x="400" y="300" on="1"/>
        <pt x="400" y="150" on="1"/>
        <pt x="421" y="150" on="0"/>
        <pt x="450" y="173" on="0"/>
        <pt x="450" y="225" on="1"/>
        <pt x="450" y="277" on="0"/>
        <pt x="421" y="300" on="0"/>
      </contour>
      <contour>
        <pt x="1950" y="1100" on="1"/>
        <pt x="1950" y="500" on="1"/>
        <pt x="1950" y="0" on="0"/>
        <pt x="1500" y="0" on="1"/>
        <pt x="1015" y="0" on="0"/>
        <pt x="1015" y="500" on="1"/>
        <pt x="1015" y="1000" on="1"/>
        <pt x="1015" y="1350" on="0"/>
        <pt x="718" y="1350" on="1"/>
        <pt x="420" y="1350" on="0"/>
        <pt x="420" y="1000" on="1"/>
        <pt x="420" y="440" on="1"/>
        <pt x="443" y="450" on="0"/>
        <pt x="473" y="450" on="1"/>
        <pt x="503" y="450" on="0"/>
        <pt x="570" y="343" on="0"/>
        <pt x="570" y="225" on="1"/>
        <pt x="570" y="107" on="0"/>
        <pt x="483" y="0" on="0"/>
        <pt x="410" y="0" on="1"/>
        <pt x="337" y="0" on="0"/>
        <pt x="294" y="54" on="1"/>
        <pt x="260" y="95" on="0"/>
        <pt x="252" y="175" on="1"/>
        <pt x="250" y="175" on="1"/>
        <pt x="250" y="1000" on="1"/>
        <pt x="250" y="1500" on="0"/>
        <pt x="718" y="1500" on="1"/>
        <pt x="1185" y="1500" on="0"/>
        <pt x="1185" y="1000" on="1"/>
        <pt x="1185" y="500" on="1"/>
        <pt x="1185" y="150" on="0"/>
        <pt x="1500" y="150" on="1"/>
        <pt x="1780" y="150" on="0"/>
        <pt x="1780" y="500" on="1"/>
        <pt x="1780" y="1100" on="1"/>
        <pt x="1780" y="1170" on="0"/>
        <pt x="1680" y="1250" on="1"/>
        <pt x="1680" y="1350" on="1"/>
        <pt x="1680" y="1500" on="0"/>
        <pt x="1830" y="1500" on="1"/>
        <pt x="2000" y="1500" on="1"/>
        <pt x="2000" y="1350" on="1"/>
        <pt x="1880" y="1350" on="1"/>
        <pt x="1830" y="1350" on="0"/>
        <pt x="1830" y="1300" on="1"/>
        <pt x="1950" y="1220" on="0"/>
      </contour>
    </TTGlyph>
    <TTGlyph name="uni179C" xMin="100" yMin="0" xMax="570" yMax="1650">
      <contour>
        <pt x="250" y="150" on="1"/>
        <pt x="250" y="300" on="1"/>
        <pt x="225" y="300" on="1"/>
        <pt x="214" y="300" on="0"/>
        <pt x="200" y="281" on="0"/>
        <pt x="200" y="225" on="1"/>
        <pt x="200" y="169" on="0"/>
        <pt x="214" y="150" on="0"/>
        <pt x="225" y="150" on="1"/>
      </contour>
      <contour>
        <pt x="420" y="1100" on="1"/>
        <pt x="420" y="225" on="1"/>
        <pt x="420" y="97" on="0"/>
        <pt x="353" y="0" on="0"/>
        <pt x="260" y="0" on="1"/>
        <pt x="167" y="0" on="0"/>
        <pt x="100" y="97" on="0"/>
        <pt x="100" y="225" on="1"/>
        <pt x="100" y="353" on="0"/>
        <pt x="167" y="450" on="0"/>
        <pt x="225" y="450" on="1"/>
        <pt x="238" y="450" on="0"/>
        <pt x="250" y="448" on="1"/>
        <pt x="250" y="1100" on="1"/>
        <pt x="250" y="1170" on="0"/>
        <pt x="150" y="1250" on="1"/>
        <pt x="150" y="1350" on="1"/>
        <pt x="150" y="1500" on="0"/>
        <pt x="300" y="1500" on="1"/>
        <pt x="345" y="1500" on="1"/>
        <pt x="400" y="1430" on="1"/>
        <pt x="420" y="1430" on="0"/>
        <pt x="420" y="1470" on="1"/>
        <pt x="420" y="1650" on="1"/>
        <pt x="570" y="1650" on="1"/>
        <pt x="570" y="1470" on="1"/>
        <pt x="570" y="1300" on="0"/>
        <pt x="420" y="1300" on="1"/>
        <pt x="360" y="1350" on="1"/>
        <pt x="300" y="1350" on="0"/>
        <pt x="300" y="1300" on="1"/>
        <pt x="420" y="1220" on="0"/>
      </contour>
    </TTGlyph>
    <TTGlyph name="uni179D" xMin="250" yMin="0" xMax="1450" yMax="1500">
      <contour>
        <pt x="1250" y="1500" on="1"/>
        <pt x="1250" y="1350" on="1"/>
        <pt x="250" y="1350" on="1"/>
        <pt x="250" y="1500" on="1"/>
      </contour>
      <contour>
        <pt x="1250" y="500" on="1"/>
        <pt x="1450" y="500" on="1"/>
        <pt x="1450" y="350" on="1"/>
        <pt x="1250" y="350" on="1"/>
        <pt x="1250" y="0" on="1"/>
        <pt x="1080" y="0" on="1"/>
        <pt x="1080" y="350" on="1"/>
        <pt x="880" y="350" on="1"/>
        <pt x="880" y="500" on="1"/>
        <pt x="1080" y="500" on="1"/>
        <pt x="1080" y="700" on="1"/>
        <pt x="1080" y="1050" on="0"/>
        <pt x="750" y="1050" on="1"/>
        <pt x="420" y="1050" on="0"/>
        <pt x="420" y="700" on="1"/>
        <pt x="420" y="350" on="1"/>
        <pt x="495" y="500" on="0"/>
        <pt x="660" y="500" on="1"/>
        <pt x="750" y="500" on="1"/>
        <pt x="750" y="350" on="1"/>
        <pt x="660" y="350" on="1"/>
        <pt x="495" y="340" on="0"/>
        <pt x="420" y="190" on="1"/>
        <pt x="420" y="0" on="1"/>
        <pt x="250" y="0" on="1"/>
        <pt x="250" y="700" on="1"/>
        <pt x="250" y="1200" on="0"/>
        <pt x="750" y="1200" on="1"/>
        <pt x="1250" y="1200" on="0"/>
        <pt x="1250" y="700" on="1"/>
      </contour>
    </TTGlyph>
    <TTGlyph name="uni179E" xMin="150" yMin="0" xMax="1450" yMax="1500">
      <contour>
        <pt x="1080" y="700" on="1"/>
        <pt x="870" y="700" on="1"/>
        <pt x="870" y="850" on="1"/>
        <pt x="1080" y="850" on="1"/>
        <pt x="1080" y="1100" on="1"/>
        <pt x="1080" y="1170" on="0"/>
        <pt x="980" y="1250" on="1"/>
        <pt x="980" y="1350" on="1"/>
        <pt x="980" y="1500" on="0"/>
        <pt x="1130" y="1500" on="1"/>
        <pt x="1300" y="1500" on="1"/>
        <pt x="1300" y="1350" on="1"/>
        <pt x="1180" y="1350" on="1"/>
        <pt x="1130" y="1350" on="0"/>
        <pt x="1130" y="1300" on="1"/>
        <pt x="1250" y="1220" on="0"/>
        <pt x="1250" y="1100" on="1"/>
        <pt x="1250" y="850" on="1"/>
        <pt x="1450" y="850" on="1"/>
        <pt x="1450" y="700" on="1"/>
        <pt x="1250" y="700" on="1"/>
        <pt x="1250" y="500" on="1"/>
        <pt x="1250" y="0" on="0"/>
        <pt x="750" y="0" on="1"/>
        <pt x="250" y="0" on="0"/>
        <pt x="250" y="500" on="1"/>
        <pt x="250" y="1100" on="1"/>
        <pt x="250" y="1170" on="0"/>
        <pt x="150" y="1250" on="1"/>
        <pt x="150" y="1350" on="1"/>
        <pt x="150" y="1500" on="0"/>
        <pt x="300" y="1500" on="1"/>
        <pt x="470" y="1500" on="1"/>
        <pt x="470" y="1350" on="1"/>
        <pt x="350" y="1350" on="1"/>
        <pt x="300" y="1350" on="0"/>
        <pt x="300" y="1300" on="1"/>
        <pt x="420" y="1220" on="0"/>
        <pt x="420" y="1100" on="1"/>
        <pt x="420" y="500" on="1"/>
        <pt x="420" y="150" on="0"/>
        <pt x="750" y="150" on="1"/>
        <pt x="1080" y="150" on="0"/>
        <pt x="1080" y="500" on="1"/>
      </contour>
    </TTGlyph>
    <TTGlyph name="uni179F" xMin="250" yMin="0" xMax="2000" yMax="1500">
      <contour>
        <pt x="400" y="300" on="1"/>
        <pt x="400" y="150" on="1"/>
        <pt x="421" y="150" on="0"/>
        <pt x="450" y="173" on="0"/>
        <pt x="450" y="225" on="1"/>
        <pt x="450" y="277" on="0"/>
        <pt x="421" y="300" on="0"/>
      </contour>
      <contour>
        <pt x="1950" y="1100" on="1"/>
        <pt x="1950" y="500" on="1"/>
        <pt x="1950" y="0" on="0"/>
        <pt x="1500" y="0" on="1"/>
        <pt x="1015" y="0" on="0"/>
        <pt x="1015" y="500" on="1"/>
        <pt x="1015" y="700" on="1"/>
        <pt x="1015" y="1050" on="0"/>
        <pt x="718" y="1050" on="1"/>
        <pt x="420" y="1050" on="0"/>
        <pt x="420" y="700" on="1"/>
        <pt x="420" y="440" on="1"/>
        <pt x="443" y="450" on="0"/>
        <pt x="473" y="450" on="1"/>
        <pt x="503" y="450" on="0"/>
        <pt x="570" y="343" on="0"/>
        <pt x="570" y="225" on="1"/>
        <pt x="570" y="107" on="0"/>
        <pt x="483" y="0" on="0"/>
        <pt x="410" y="0" on="1"/>
        <pt x="337" y="0" on="0"/>
        <pt x="294" y="54" on="1"/>
        <pt x="260" y="95" on="0"/>
        <pt x="252" y="175" on="1"/>
        <pt x="250" y="175" on="1"/>
        <pt x="250" y="700" on="1"/>
        <pt x="250" y="1012" on="0"/>
        <pt x="432" y="1129" on="1"/>
        <pt x="387" y="1204" on="0"/>
        <pt x="300" y="1250" on="1"/>
        <pt x="300" y="1350" on="1"/>
        <pt x="300" y="1500" on="0"/>
        <pt x="450" y="1500" on="1"/>
        <pt x="1000" y="1500" on="1"/>
        <pt x="1000" y="1350" on="1"/>
        <pt x="520" y="1350" on="1"/>
        <pt x="470" y="1350" on="0"/>
        <pt x="470" y="1300" on="1"/>
        <pt x="548" y="1258" on="0"/>
        <pt x="593" y="1190" on="1"/>
        <pt x="651" y="1200" on="0"/>
        <pt x="718" y="1200" on="1"/>
        <pt x="1185" y="1200" on="0"/>
        <pt x="1185" y="700" on="1"/>
        <pt x="1185" y="500" on="1"/>
        <pt x="1185" y="150" on="0"/>
        <pt x="1500" y="150" on="1"/>
        <pt x="1780" y="150" on="0"/>
        <pt x="1780" y="500" on="1"/>
        <pt x="1780" y="1100" on="1"/>
        <pt x="1780" y="1170" on="0"/>
        <pt x="1680" y="1250" on="1"/>
        <pt x="1680" y="1350" on="1"/>
        <pt x="1680" y="1500" on="0"/>
        <pt x="1830" y="1500" on="1"/>
        <pt x="2000" y="1500" on="1"/>
        <pt x="2000" y="1350" on="1"/>
        <pt x="1880" y="1350" on="1"/>
        <pt x="1830" y="1350" on="0"/>
        <pt x="1830" y="1300" on="1"/>
        <pt x="1950" y="1220" on="0"/>
      </contour>
    </TTGlyph>
    <TTGlyph name="uni17A0" xMin="150" yMin="0" xMax="1950" yMax="1500">
      <contour>
        <pt x="420" y="1100" on="1"/>
        <pt x="420" y="500" on="1"/>
        <pt x="420" y="150" on="0"/>
        <pt x="700" y="150" on="1"/>
        <pt x="1015" y="150" on="0"/>
        <pt x="1015" y="500" on="1"/>
        <pt x="1015" y="1000" on="1"/>
        <pt x="1015" y="1500" on="0"/>
        <pt x="1482" y="1500" on="1"/>
        <pt x="1950" y="1500" on="0"/>
        <pt x="1950" y="1000" on="1"/>
        <pt x="1950" y="0" on="1"/>
        <pt x="1780" y="0" on="1"/>
        <pt x="1780" y="1000" on="1"/>
        <pt x="1780" y="1350" on="0"/>
        <pt x="1482" y="1350" on="1"/>
        <pt x="1185" y="1350" on="0"/>
        <pt x="1185" y="1000" on="1"/>
        <pt x="1185" y="500" on="1"/>
        <pt x="1185" y="0" on="0"/>
        <pt x="700" y="0" on="1"/>
        <pt x="250" y="0" on="0"/>
        <pt x="250" y="500" on="1"/>
        <pt x="250" y="1100" on="1"/>
        <pt x="250" y="1170" on="0"/>
        <pt x="150" y="1250" on="1"/>
        <pt x="150" y="1350" on="1"/>
        <pt x="150" y="1500" on="0"/>
        <pt x="300" y="1500" on="1"/>
        <pt x="470" y="1500" on="1"/>
        <pt x="470" y="1350" on="1"/>
        <pt x="350" y="1350" on="1"/>
        <pt x="300" y="1350" on="0"/>
        <pt x="300" y="1300" on="1"/>
        <pt x="420" y="1220" on="0"/>
      </contour>
    </TTGlyph>
    <TTGlyph name="uni17A1" xMin="250" yMin="-650" xMax="1970" yMax="1500">
      <contour>
        <pt x="1110" y="591" on="1"/>
        <pt x="1117" y="589" on="0"/>
        <pt x="1124" y="589" on="1"/>
        <pt x="1150" y="589" on="0"/>
        <pt x="1150" y="630" on="1"/>
        <pt x="1150" y="670" on="0"/>
        <pt x="1130" y="670" on="1"/>
        <pt x="1110" y="670" on="0"/>
        <pt x="1110" y="631" on="1"/>
      </contour>
      <contour>
        <pt x="1110" y="501" on="1"/>
        <pt x="1110" y="400" on="1"/>
        <pt x="1110" y="0" on="0"/>
        <pt x="750" y="0" on="1"/>
        <pt x="390" y="0" on="0"/>
        <pt x="390" y="400" on="1"/>
        <pt x="390" y="600" on="1"/>
        <pt x="560" y="600" on="1"/>
        <pt x="560" y="400" on="1"/>
        <pt x="560" y="150" on="0"/>
        <pt x="750" y="150" on="1"/>
        <pt x="940" y="150" on="0"/>
        <pt x="940" y="400" on="1"/>
        <pt x="940" y="525" on="1"/>
        <pt x="250" y="724" on="0"/>
        <pt x="250" y="1100" on="1"/>
        <pt x="250" y="1500" on="0"/>
        <pt x="750" y="1500" on="1"/>
        <pt x="1250" y="1500" on="0"/>
        <pt x="1250" y="1100" on="1"/>
        <pt x="1250" y="821" on="0"/>
        <pt x="972" y="821" on="1"/>
        <pt x="909" y="821" on="0"/>
        <pt x="870" y="850" on="1"/>
        <pt x="870" y="1000" on="1"/>
        <pt x="941" y="979" on="0"/>
        <pt x="986" y="979" on="1"/>
        <pt x="1080" y="979" on="0"/>
        <pt x="1080" y="1100" on="1"/>
        <pt x="1080" y="1350" on="0"/>
        <pt x="750" y="1350" on="1"/>
        <pt x="420" y="1350" on="0"/>
        <pt x="420" y="1100" on="1"/>
        <pt x="420" y="791" on="0"/>
        <pt x="940" y="665" on="1"/>
        <pt x="940" y="760" on="0"/>
        <pt x="1080" y="760" on="1"/>
        <pt x="1250" y="760" on="0"/>
        <pt x="1250" y="635" on="1"/>
        <pt x="1250" y="560" on="0"/>
        <pt x="1182" y="498" on="0"/>
        <pt x="1143" y="498" on="1"/>
        <pt x="1127" y="498" on="0"/>
      </contour>
      <contour>
        <pt x="1080" y="-250" on="1"/>
        <pt x="1080" y="-208" on="0"/>
        <pt x="1065" y="-208" on="1"/>
        <pt x="1050" y="-208" on="0"/>
        <pt x="1050" y="-250" on="1"/>
        <pt x="1050" y="-300" on="1"/>
        <pt x="920" y="-300" on="1"/>
        <pt x="920" y="-250" on="1"/>
        <pt x="920" y="-177" on="0"/>
        <pt x="987" y="-100" on="0"/>
        <pt x="1085" y="-100" on="1"/>
        <pt x="1183" y="-100" on="0"/>
        <pt x="1250" y="-177" on="0"/>
        <pt x="1250" y="-250" on="1"/>
        <pt x="1250" y="-500" on="1"/>
        <pt x="1500" y="-250" on="1"/>
        <pt x="1750" y="-500" on="1"/>
        <pt x="1750" y="1100" on="1"/>
        <pt x="1750" y="1170" on="0"/>
        <pt x="1650" y="1250" on="1"/>
        <pt x="1650" y="1350" on="1"/>
        <pt x="1650" y="1500" on="0"/>
        <pt x="1800" y="1500" on="1"/>
        <pt x="1970" y="1500" on="1"/>
        <pt x="1970" y="1350" on="1"/>
        <pt x="1850" y="1350" on="1"/>
        <pt x="1800" y="1350" on="0"/>
        <pt x="1800" y="1300" on="1"/>
        <pt x="1920" y="1220" on="0"/>
        <pt x="1920" y="1100" on="1"/>
        <pt x="1920" y="-650" on="1"/>
        <pt x="1700" y="-650" on="1"/>
        <pt x="1500" y="-450" on="1"/>
        <pt x="1300" y="-650" on="1"/>
        <pt x="1080" y="-650" on="1"/>
      </contour>
    </TTGlyph>
    <TTGlyph name="uni17A2" xMin="100" yMin="0" xMax="1300" yMax="1500">
      <contour>
        <pt x="250" y="150" on="1"/>
        <pt x="250" y="300" on="1"/>
        <pt x="225" y="300" on="1"/>
        <pt x="214" y="300" on="0"/>
        <pt x="200" y="281" on="0"/>
        <pt x="200" y="225" on="1"/>
        <pt x="200" y="169" on="0"/>
        <pt x="214" y="150" on="0"/>
        <pt x="225" y="150" on="1"/>
      </contour>
      <contour>
        <pt x="1080" y="150" on="1"/>
        <pt x="1080" y="300" on="1"/>
        <pt x="1055" y="300" on="1"/>
        <pt x="1044" y="300" on="0"/>
        <pt x="1030" y="281" on="0"/>
        <pt x="1030" y="225" on="1"/>
        <pt x="1030" y="169" on="0"/>
        <pt x="1044" y="150" on="0"/>
        <pt x="1055" y="150" on="1"/>
      </contour>
      <contour>
        <pt x="420" y="700" on="1"/>
        <pt x="420" y="225" on="1"/>
        <pt x="420" y="97" on="0"/>
        <pt x="353" y="0" on="0"/>
        <pt x="260" y="0" on="1"/>
        <pt x="167" y="0" on="0"/>
        <pt x="100" y="97" on="0"/>
        <pt x="100" y="225" on="1"/>
        <pt x="100" y="353" on="0"/>
        <pt x="167" y="450" on="0"/>
        <pt x="225" y="450" on="1"/>
        <pt x="238" y="450" on="0"/>
        <pt x="250" y="448" on="1"/>
        <pt x="250" y="1100" on="1"/>
        <pt x="230" y="1170" on="0"/>
        <pt x="150" y="1250" on="1"/>
        <pt x="150" y="1350" on="1"/>
        <pt x="150" y="1500" on="0"/>
        <pt x="300" y="1500" on="1"/>
        <pt x="470" y="1500" on="1"/>
        <pt x="470" y="1350" on="1"/>
        <pt x="350" y="1350" on="1"/>
        <pt x="300" y="1350" on="0"/>
        <pt x="300" y="1300" on="1"/>
        <pt x="420" y="1220" on="0"/>
        <pt x="420" y="1100" on="1"/>
        <pt x="420" y="850" on="1"/>
        <pt x="1080" y="850" on="1"/>
        <pt x="1080" y="1100" on="1"/>
        <pt x="1060" y="1170" on="0"/>
        <pt x="980" y="1250" on="1"/>
        <pt x="980" y="1350" on="1"/>
        <pt x="980" y="1500" on="0"/>
        <pt x="1130" y="1500" on="1"/>
        <pt x="1300" y="1500" on="1"/>
        <pt x="1300" y="1350" on="1"/>
        <pt x="1180" y="1350" on="1"/>
        <pt x="1130" y="1350" on="0"/>
        <pt x="1130" y="1300" on="1"/>
        <pt x="1250" y="1220" on="0"/>
        <pt x="1250" y="1100" on="1"/>
        <pt x="1250" y="225" on="1"/>
        <pt x="1250" y="97" on="0"/>
        <pt x="1183" y="0" on="0"/>
        <pt x="1090" y="0" on="1"/>
        <pt x="997" y="0" on="0"/>
        <pt x="930" y="97" on="0"/>
        <pt x="930" y="225" on="1"/>
        <pt x="930" y="353" on="0"/>
        <pt x="997" y="450" on="0"/>
        <pt x="1055" y="450" on="1"/>
        <pt x="1068" y="450" on="0"/>
        <pt x="1080" y="448" on="1"/>
        <pt x="1080" y="700" on="1"/>
      </contour>
    </TTGlyph>
    <TTGlyph name="uni17A3" xMin="100" yMin="0" xMax="1300" yMax="1500">
      <contour>
        <pt x="250" y="150" on="1"/>
        <pt x="250" y="300" on="1"/>
        <pt x="225" y="300" on="1"/>
        <pt x="214" y="300" on="0"/>
        <pt x="200" y="281" on="0"/>
        <pt x="200" y="225" on="1"/>
        <pt x="200" y="169" on="0"/>
        <pt x="214" y="150" on="0"/>
        <pt x="225" y="150" on="1"/>
      </contour>
      <contour>
        <pt x="1080" y="150" on="1"/>
        <pt x="1080" y="300" on="1"/>
        <pt x="1055" y="300" on="1"/>
        <pt x="1044" y="300" on="0"/>
        <pt x="1030" y="281" on="0"/>
        <pt x="1030" y="225" on="1"/>
        <pt x="1030" y="169" on="0"/>
        <pt x="1044" y="150" on="0"/>
        <pt x="1055" y="150" on="1"/>
      </contour>
      <contour>
        <pt x="420" y="700" on="1"/>
        <pt x="420" y="225" on="1"/>
        <pt x="420" y="97" on="0"/>
        <pt x="353" y="0" on="0"/>
        <pt x="260" y="0" on="1"/>
        <pt x="167" y="0" on="0"/>
        <pt x="100" y="97" on="0"/>
        <pt x="100" y="225" on="1"/>
        <pt x="100" y="353" on="0"/>
        <pt x="167" y="450" on="0"/>
        <pt x="225" y="450" on="1"/>
        <pt x="238" y="450" on="0"/>
        <pt x="250" y="448" on="1"/>
        <pt x="250" y="1100" on="1"/>
        <pt x="230" y="1170" on="0"/>
        <pt x="150" y="1250" on="1"/>
        <pt x="150" y="1350" on="1"/>
        <pt x="150" y="1500" on="0"/>
        <pt x="300" y="1500" on="1"/>
        <pt x="470" y="1500" on="1"/>
        <pt x="470" y="1350" on="1"/>
        <pt x="350" y="1350" on="1"/>
        <pt x="300" y="1350" on="0"/>
        <pt x="300" y="1300" on="1"/>
        <pt x="420" y="1220" on="0"/>
        <pt x="420" y="1100" on="1"/>
        <pt x="420" y="850" on="1"/>
        <pt x="1080" y="850" on="1"/>
        <pt x="1080" y="1100" on="1"/>
        <pt x="1060" y="1170" on="0"/>
        <pt x="980" y="1250" on="1"/>
        <pt x="980" y="1350" on="1"/>
        <pt x="980" y="1500" on="0"/>
        <pt x="1130" y="1500" on="1"/>
        <pt x="1300" y="1500" on="1"/>
        <pt x="1300" y="1350" on="1"/>
        <pt x="1180" y="1350" on="1"/>
        <pt x="1130" y="1350" on="0"/>
        <pt x="1130" y="1300" on="1"/>
        <pt x="1250" y="1220" on="0"/>
        <pt x="1250" y="1100" on="1"/>
        <pt x="1250" y="225" on="1"/>
        <pt x="1250" y="97" on="0"/>
        <pt x="1183" y="0" on="0"/>
        <pt x="1090" y="0" on="1"/>
        <pt x="997" y="0" on="0"/>
        <pt x="930" y="97" on="0"/>
        <pt x="930" y="225" on="1"/>
        <pt x="930" y="353" on="0"/>
        <pt x="997" y="450" on="0"/>
        <pt x="1055" y="450" on="1"/>
        <pt x="1068" y="450" on="0"/>
        <pt x="1080" y="448" on="1"/>
        <pt x="1080" y="700" on="1"/>
      </contour>
    </TTGlyph>
    <TTGlyph name="uni17A4" xMin="100" yMin="0" xMax="1950" yMax="1500">
      <contour>
        <pt x="250" y="150" on="1"/>
        <pt x="250" y="300" on="1"/>
        <pt x="225" y="300" on="1"/>
        <pt x="214" y="300" on="0"/>
        <pt x="200" y="281" on="0"/>
        <pt x="200" y="225" on="1"/>
        <pt x="200" y="169" on="0"/>
        <pt x="214" y="150" on="0"/>
        <pt x="225" y="150" on="1"/>
      </contour>
      <contour>
        <pt x="1080" y="150" on="1"/>
        <pt x="1080" y="300" on="1"/>
        <pt x="1055" y="300" on="1"/>
        <pt x="1044" y="300" on="0"/>
        <pt x="1030" y="281" on="0"/>
        <pt x="1030" y="225" on="1"/>
        <pt x="1030" y="169" on="0"/>
        <pt x="1044" y="150" on="0"/>
        <pt x="1055" y="150" on="1"/>
      </contour>
      <contour>
        <pt x="1550" y="1500" on="1"/>
        <pt x="1950" y="1500" on="0"/>
        <pt x="1950" y="1100" on="1"/>
        <pt x="1950" y="0" on="1"/>
        <pt x="1780" y="0" on="1"/>
        <pt x="1780" y="1100" on="1"/>
        <pt x="1780" y="1350" on="0"/>
        <pt x="1550" y="1350" on="1"/>
        <pt x="1180" y="1350" on="1"/>
        <pt x="1130" y="1350" on="0"/>
        <pt x="1130" y="1300" on="1"/>
        <pt x="1250" y="1220" on="0"/>
        <pt x="1250" y="1100" on="1"/>
        <pt x="1250" y="225" on="1"/>
        <pt x="1250" y="97" on="0"/>
        <pt x="1183" y="0" on="0"/>
        <pt x="1090" y="0" on="1"/>
        <pt x="997" y="0" on="0"/>
        <pt x="930" y="97" on="0"/>
        <pt x="930" y="225" on="1"/>
        <pt x="930" y="353" on="0"/>
        <pt x="997" y="450" on="0"/>
        <pt x="1055" y="450" on="1"/>
        <pt x="1068" y="450" on="0"/>
        <pt x="1080" y="448" on="1"/>
        <pt x="1080" y="700" on="1"/>
        <pt x="420" y="700" on="1"/>
        <pt x="420" y="225" on="1"/>
        <pt x="420" y="97" on="0"/>
        <pt x="353" y="0" on="0"/>
        <pt x="260" y="0" on="1"/>
        <pt x="167" y="0" on="0"/>
        <pt x="100" y="97" on="0"/>
        <pt x="100" y="225" on="1"/>
        <pt x="100" y="353" on="0"/>
        <pt x="167" y="450" on="0"/>
        <pt x="225" y="450" on="1"/>
        <pt x="238" y="450" on="0"/>
        <pt x="250" y="448" on="1"/>
        <pt x="250" y="1100" on="1"/>
        <pt x="230" y="1170" on="0"/>
        <pt x="150" y="1250" on="1"/>
        <pt x="150" y="1350" on="1"/>
        <pt x="150" y="1500" on="0"/>
        <pt x="300" y="1500" on="1"/>
        <pt x="470" y="1500" on="1"/>
        <pt x="470" y="1350" on="1"/>
        <pt x="350" y="1350" on="1"/>
        <pt x="300" y="1350" on="0"/>
        <pt x="300" y="1300" on="1"/>
        <pt x="420" y="1220" on="0"/>
        <pt x="420" y="1100" on="1"/>
        <pt x="420" y="850" on="1"/>
        <pt x="1080" y="850" on="1"/>
        <pt x="1080" y="1100" on="1"/>
        <pt x="1060" y="1170" on="0"/>
        <pt x="980" y="1250" on="1"/>
        <pt x="980" y="1350" on="1"/>
        <pt x="980" y="1500" on="0"/>
        <pt x="1130" y="1500" on="1"/>
      </contour>
    </TTGlyph>
    <TTGlyph name="uni17A5" xMin="200" yMin="0" xMax="1250" yMax="1650">
      <contour>
        <pt x="400" y="300" on="1"/>
        <pt x="400" y="150" on="1"/>
        <pt x="421" y="150" on="0"/>
        <pt x="450" y="173" on="0"/>
        <pt x="450" y="225" on="1"/>
        <pt x="450" y="277" on="0"/>
        <pt x="421" y="300" on="0"/>
      </contour>
      <contour>
        <pt x="250" y="700" on="1"/>
        <pt x="250" y="1200" on="0"/>
        <pt x="750" y="1200" on="1"/>
        <pt x="1250" y="1200" on="0"/>
        <pt x="1250" y="700" on="1"/>
        <pt x="1250" y="0" on="1"/>
        <pt x="1080" y="0" on="1"/>
        <pt x="1080" y="700" on="1"/>
        <pt x="1080" y="1050" on="0"/>
        <pt x="750" y="1050" on="1"/>
        <pt x="420" y="1050" on="0"/>
        <pt x="420" y="700" on="1"/>
        <pt x="420" y="440" on="1"/>
        <pt x="443" y="450" on="0"/>
        <pt x="473" y="450" on="1"/>
        <pt x="503" y="450" on="0"/>
        <pt x="570" y="343" on="0"/>
        <pt x="570" y="225" on="1"/>
        <pt x="570" y="107" on="0"/>
        <pt x="483" y="0" on="0"/>
        <pt x="410" y="0" on="1"/>
        <pt x="337" y="0" on="0"/>
        <pt x="294" y="54" on="1"/>
        <pt x="260" y="95" on="0"/>
        <pt x="252" y="175" on="1"/>
        <pt x="250" y="175" on="1"/>
      </contour>
      <contour>
        <pt x="250" y="1130" on="1"/>
        <pt x="250" y="1170" on="0"/>
        <pt x="200" y="1250" on="1"/>
        <pt x="200" y="1300" on="1"/>
        <pt x="200" y="1500" on="0"/>
        <pt x="400" y="1500" on="1"/>
        <pt x="700" y="1500" on="1"/>
        <pt x="930" y="1350" on="1"/>
        <pt x="1010" y="1350" on="1"/>
        <pt x="1080" y="1350" on="0"/>
        <pt x="1080" y="1420" on="1"/>
        <pt x="1080" y="1650" on="1"/>
        <pt x="1250" y="1650" on="1"/>
        <pt x="1250" y="1420" on="1"/>
        <pt x="1250" y="1200" on="0"/>
        <pt x="1080" y="1200" on="1"/>
        <pt x="900" y="1200" on="1"/>
        <pt x="670" y="1350" on="1"/>
        <pt x="470" y="1350" on="1"/>
        <pt x="370" y="1350" on="0"/>
        <pt x="370" y="1290" on="1"/>
        <pt x="420" y="1210" on="0"/>
        <pt x="420" y="1130" on="1"/>
      </contour>
    </TTGlyph>
    <TTGlyph name="uni17A6" xMin="250" yMin="-650" xMax="1850" yMax="2400">
      <contour>
        <pt x="1225" y="-350" on="1"/>
        <pt x="1225" y="-500" on="0"/>
        <pt x="1475" y="-500" on="1"/>
        <pt x="1680" y="-500" on="0"/>
        <pt x="1680" y="-250" on="1"/>
        <pt x="1680" y="1600" on="1"/>
        <pt x="1680" y="1850" on="0"/>
        <pt x="1450" y="1850" on="1"/>
        <pt x="1080" y="1850" on="1"/>
        <pt x="1080" y="2200" on="1"/>
        <pt x="1080" y="2250" on="0"/>
        <pt x="1050" y="2250" on="1"/>
        <pt x="1000" y="2250" on="1"/>
        <pt x="1000" y="2400" on="1"/>
        <pt x="1050" y="2400" on="1"/>
        <pt x="1250" y="2400" on="0"/>
        <pt x="1250" y="2200" on="1"/>
        <pt x="1250" y="2000" on="1"/>
        <pt x="1450" y="2000" on="1"/>
        <pt x="1850" y="2000" on="0"/>
        <pt x="1850" y="1600" on="1"/>
        <pt x="1850" y="-250" on="1"/>
        <pt x="1850" y="-650" on="0"/>
        <pt x="1475" y="-650" on="1"/>
        <pt x="1075" y="-650" on="0"/>
        <pt x="1075" y="-350" on="1"/>
        <pt x="1075" y="-250" on="0"/>
        <pt x="750" y="-250" on="1"/>
        <pt x="450" y="-250" on="0"/>
        <pt x="450" y="-430" on="1"/>
        <pt x="473" y="-430" on="0"/>
        <pt x="550" y="-497" on="0"/>
        <pt x="550" y="-540" on="1"/>
        <pt x="550" y="-583" on="0"/>
        <pt x="473" y="-650" on="0"/>
        <pt x="425" y="-650" on="1"/>
        <pt x="377" y="-650" on="0"/>
        <pt x="300" y="-583" on="0"/>
        <pt x="300" y="-515" on="1"/>
        <pt x="300" y="-400" on="1"/>
        <pt x="300" y="-100" on="0"/>
        <pt x="750" y="-100" on="1"/>
        <pt x="1225" y="-100" on="0"/>
      </contour>
      <contour>
        <pt x="400" y="300" on="1"/>
        <pt x="400" y="150" on="1"/>
        <pt x="421" y="150" on="0"/>
        <pt x="450" y="173" on="0"/>
        <pt x="450" y="225" on="1"/>
        <pt x="450" y="277" on="0"/>
        <pt x="421" y="300" on="0"/>
      </contour>
      <contour>
        <pt x="250" y="1000" on="1"/>
        <pt x="250" y="1500" on="0"/>
        <pt x="750" y="1500" on="1"/>
        <pt x="1250" y="1500" on="0"/>
        <pt x="1250" y="1000" on="1"/>
        <pt x="1250" y="0" on="1"/>
        <pt x="1080" y="0" on="1"/>
        <pt x="1080" y="1000" on="1"/>
        <pt x="1080" y="1350" on="0"/>
        <pt x="750" y="1350" on="1"/>
        <pt x="420" y="1350" on="0"/>
        <pt x="420" y="1000" on="1"/>
        <pt x="420" y="440" on="1"/>
        <pt x="443" y="450" on="0"/>
        <pt x="473" y="450" on="1"/>
        <pt x="503" y="450" on="0"/>
        <pt x="570" y="343" on="0"/>
        <pt x="570" y="225" on="1"/>
        <pt x="570" y="107" on="0"/>
        <pt x="483" y="0" on="0"/>
        <pt x="410" y="0" on="1"/>
        <pt x="337" y="0" on="0"/>
        <pt x="294" y="54" on="1"/>
        <pt x="260" y="95" on="0"/>
        <pt x="252" y="175" on="1"/>
        <pt x="250" y="175" on="1"/>
      </contour>
    </TTGlyph>
    <TTGlyph name="uni17A7" xMin="250" yMin="0" xMax="1250" yMax="1500">
      <contour>
        <pt x="250" y="610" on="1"/>
        <pt x="1080" y="750" on="0"/>
        <pt x="1080" y="1100" on="1"/>
        <pt x="1080" y="1350" on="0"/>
        <pt x="750" y="1350" on="1"/>
        <pt x="420" y="1350" on="0"/>
        <pt x="420" y="1100" on="1"/>
        <pt x="420" y="979" on="0"/>
        <pt x="514" y="979" on="1"/>
        <pt x="559" y="979" on="0"/>
        <pt x="630" y="1000" on="1"/>
        <pt x="630" y="850" on="1"/>
        <pt x="591" y="821" on="0"/>
        <pt x="528" y="821" on="1"/>
        <pt x="250" y="821" on="0"/>
        <pt x="250" y="1100" on="1"/>
        <pt x="250" y="1500" on="0"/>
        <pt x="750" y="1500" on="1"/>
        <pt x="1250" y="1500" on="0"/>
        <pt x="1250" y="1100" on="1"/>
        <pt x="1250" y="680" on="0"/>
        <pt x="420" y="500" on="1"/>
        <pt x="420" y="400" on="1"/>
        <pt x="420" y="150" on="0"/>
        <pt x="530" y="150" on="1"/>
        <pt x="686" y="150" on="0"/>
        <pt x="1080" y="480" on="1"/>
        <pt x="1080" y="600" on="1"/>
        <pt x="1250" y="600" on="1"/>
        <pt x="1250" y="0" on="1"/>
        <pt x="1080" y="0" on="1"/>
        <pt x="1080" y="300" on="1"/>
        <pt x="736" y="0" on="0"/>
        <pt x="530" y="0" on="1"/>
        <pt x="250" y="0" on="0"/>
        <pt x="250" y="400" on="1"/>
      </contour>
    </TTGlyph>
    <TTGlyph name="uni17A8" xMin="250" yMin="0" xMax="1250" yMax="1850">
      <contour>
        <pt x="750" y="1550" on="1"/>
        <pt x="500" y="1690" on="1"/>
        <pt x="290" y="1540" on="1"/>
        <pt x="250" y="1680" on="1"/>
        <pt x="500" y="1850" on="1"/>
        <pt x="750" y="1710" on="1"/>
        <pt x="1000" y="1850" on="1"/>
        <pt x="1250" y="1680" on="1"/>
        <pt x="1210" y="1540" on="1"/>
        <pt x="1000" y="1690" on="1"/>
      </contour>
      <contour>
        <pt x="250" y="610" on="1"/>
        <pt x="1080" y="750" on="0"/>
        <pt x="1080" y="1100" on="1"/>
        <pt x="1080" y="1350" on="0"/>
        <pt x="750" y="1350" on="1"/>
        <pt x="420" y="1350" on="0"/>
        <pt x="420" y="1100" on="1"/>
        <pt x="420" y="979" on="0"/>
        <pt x="514" y="979" on="1"/>
        <pt x="559" y="979" on="0"/>
        <pt x="630" y="1000" on="1"/>
        <pt x="630" y="850" on="1"/>
        <pt x="591" y="821" on="0"/>
        <pt x="528" y="821" on="1"/>
        <pt x="250" y="821" on="0"/>
        <pt x="250" y="1100" on="1"/>
        <pt x="250" y="1500" on="0"/>
        <pt x="750" y="1500" on="1"/>
        <pt x="1250" y="1500" on="0"/>
        <pt x="1250" y="1100" on="1"/>
        <pt x="1250" y="680" on="0"/>
        <pt x="420" y="500" on="1"/>
        <pt x="420" y="400" on="1"/>
        <pt x="420" y="150" on="0"/>
        <pt x="530" y="150" on="1"/>
        <pt x="686" y="150" on="0"/>
        <pt x="1080" y="480" on="1"/>
        <pt x="1080" y="600" on="1"/>
        <pt x="1250" y="600" on="1"/>
        <pt x="1250" y="0" on="1"/>
        <pt x="1080" y="0" on="1"/>
        <pt x="1080" y="300" on="1"/>
        <pt x="736" y="0" on="0"/>
        <pt x="530" y="0" on="1"/>
        <pt x="250" y="0" on="0"/>
        <pt x="250" y="400" on="1"/>
      </contour>
    </TTGlyph>
    <TTGlyph name="uni17A9" xMin="250" yMin="0" xMax="1320" yMax="1500">
      <contour>
        <pt x="1150" y="600" on="1"/>
        <pt x="1320" y="600" on="1"/>
        <pt x="1320" y="0" on="1"/>
        <pt x="1150" y="0" on="1"/>
      </contour>
      <contour>
        <pt x="250" y="610" on="1"/>
        <pt x="1080" y="750" on="0"/>
        <pt x="1080" y="1100" on="1"/>
        <pt x="1080" y="1350" on="0"/>
        <pt x="750" y="1350" on="1"/>
        <pt x="420" y="1350" on="0"/>
        <pt x="420" y="1100" on="1"/>
        <pt x="420" y="979" on="0"/>
        <pt x="514" y="979" on="1"/>
        <pt x="559" y="979" on="0"/>
        <pt x="630" y="1000" on="1"/>
        <pt x="630" y="850" on="1"/>
        <pt x="591" y="821" on="0"/>
        <pt x="528" y="821" on="1"/>
        <pt x="250" y="821" on="0"/>
        <pt x="250" y="1100" on="1"/>
        <pt x="250" y="1500" on="0"/>
        <pt x="750" y="1500" on="1"/>
        <pt x="1250" y="1500" on="0"/>
        <pt x="1250" y="1100" on="1"/>
        <pt x="1250" y="680" on="0"/>
        <pt x="420" y="500" on="1"/>
        <pt x="420" y="400" on="1"/>
        <pt x="420" y="150" on="0"/>
        <pt x="530" y="150" on="1"/>
        <pt x="686" y="150" on="0"/>
        <pt x="930" y="480" on="1"/>
        <pt x="930" y="600" on="1"/>
        <pt x="1100" y="600" on="1"/>
        <pt x="1100" y="0" on="1"/>
        <pt x="930" y="0" on="1"/>
        <pt x="930" y="300" on="1"/>
        <pt x="736" y="0" on="0"/>
        <pt x="530" y="0" on="1"/>
        <pt x="250" y="0" on="0"/>
        <pt x="250" y="400" on="1"/>
      </contour>
    </TTGlyph>
    <TTGlyph name="uni17AA" xMin="200" yMin="0" xMax="1250" yMax="1950">
      <contour>
        <pt x="250" y="610" on="1"/>
        <pt x="1080" y="750" on="0"/>
        <pt x="1080" y="1100" on="1"/>
        <pt x="1080" y="1350" on="0"/>
        <pt x="750" y="1350" on="1"/>
        <pt x="420" y="1350" on="0"/>
        <pt x="420" y="1100" on="1"/>
        <pt x="420" y="979" on="0"/>
        <pt x="514" y="979" on="1"/>
        <pt x="559" y="979" on="0"/>
        <pt x="630" y="1000" on="1"/>
        <pt x="630" y="850" on="1"/>
        <pt x="591" y="821" on="0"/>
        <pt x="528" y="821" on="1"/>
        <pt x="250" y="821" on="0"/>
        <pt x="250" y="1100" on="1"/>
        <pt x="250" y="1500" on="0"/>
        <pt x="750" y="1500" on="1"/>
        <pt x="1250" y="1500" on="0"/>
        <pt x="1250" y="1100" on="1"/>
        <pt x="1250" y="680" on="0"/>
        <pt x="420" y="500" on="1"/>
        <pt x="420" y="400" on="1"/>
        <pt x="420" y="150" on="0"/>
        <pt x="530" y="150" on="1"/>
        <pt x="686" y="150" on="0"/>
        <pt x="1080" y="480" on="1"/>
        <pt x="1080" y="600" on="1"/>
        <pt x="1250" y="600" on="1"/>
        <pt x="1250" y="0" on="1"/>
        <pt x="1080" y="0" on="1"/>
        <pt x="1080" y="300" on="1"/>
        <pt x="736" y="0" on="0"/>
        <pt x="530" y="0" on="1"/>
        <pt x="250" y="0" on="0"/>
        <pt x="250" y="400" on="1"/>
      </contour>
      <contour>
        <pt x="250" y="1420" on="1"/>
        <pt x="250" y="1470" on="0"/>
        <pt x="200" y="1550" on="1"/>
        <pt x="200" y="1600" on="1"/>
        <pt x="200" y="1800" on="0"/>
        <pt x="400" y="1800" on="1"/>
        <pt x="700" y="1800" on="1"/>
        <pt x="930" y="1650" on="1"/>
        <pt x="1010" y="1650" on="1"/>
        <pt x="1080" y="1650" on="0"/>
        <pt x="1080" y="1720" on="1"/>
        <pt x="1080" y="1950" on="1"/>
        <pt x="1250" y="1950" on="1"/>
        <pt x="1250" y="1720" on="1"/>
        <pt x="1250" y="1500" on="0"/>
        <pt x="1080" y="1500" on="1"/>
        <pt x="900" y="1500" on="1"/>
        <pt x="670" y="1650" on="1"/>
        <pt x="470" y="1650" on="1"/>
        <pt x="370" y="1650" on="0"/>
        <pt x="370" y="1590" on="1"/>
        <pt x="420" y="1510" on="0"/>
        <pt x="420" y="1460" on="1"/>
      </contour>
    </TTGlyph>
    <TTGlyph name="uni17AB" xMin="150" yMin="-500" xMax="1300" yMax="1500">
      <contour>
        <pt x="1250" y="-50" on="1"/>
        <pt x="1250" y="-187" on="1"/>
        <pt x="1250" y="-500" on="0"/>
        <pt x="723" y="-500" on="1"/>
        <pt x="444" y="-500" on="0"/>
        <pt x="207" y="-374" on="1"/>
        <pt x="261" y="-227" on="1"/>
        <pt x="467" y="-350" on="0"/>
        <pt x="723" y="-350" on="1"/>
        <pt x="1080" y="-350" on="0"/>
        <pt x="1080" y="-187" on="1"/>
        <pt x="1080" y="-50" on="1"/>
      </contour>
      <contour>
        <pt x="1080" y="1100" on="1"/>
        <pt x="1080" y="1170" on="0"/>
        <pt x="980" y="1250" on="1"/>
        <pt x="980" y="1350" on="1"/>
        <pt x="980" y="1500" on="0"/>
        <pt x="1130" y="1500" on="1"/>
        <pt x="1300" y="1500" on="1"/>
        <pt x="1300" y="1350" on="1"/>
        <pt x="1180" y="1350" on="1"/>
        <pt x="1130" y="1350" on="0"/>
        <pt x="1130" y="1300" on="1"/>
        <pt x="1250" y="1220" on="0"/>
        <pt x="1250" y="1100" on="1"/>
        <pt x="1250" y="500" on="1"/>
        <pt x="1250" y="0" on="0"/>
        <pt x="750" y="0" on="1"/>
        <pt x="250" y="0" on="0"/>
        <pt x="250" y="500" on="1"/>
        <pt x="250" y="1100" on="1"/>
        <pt x="250" y="1170" on="0"/>
        <pt x="150" y="1250" on="1"/>
        <pt x="150" y="1350" on="1"/>
        <pt x="150" y="1500" on="0"/>
        <pt x="300" y="1500" on="1"/>
        <pt x="470" y="1500" on="1"/>
        <pt x="470" y="1350" on="1"/>
        <pt x="350" y="1350" on="1"/>
        <pt x="300" y="1350" on="0"/>
        <pt x="300" y="1300" on="1"/>
        <pt x="420" y="1220" on="0"/>
        <pt x="420" y="1100" on="1"/>
        <pt x="420" y="500" on="1"/>
        <pt x="420" y="150" on="0"/>
        <pt x="750" y="150" on="1"/>
        <pt x="1080" y="150" on="0"/>
        <pt x="1080" y="500" on="1"/>
      </contour>
    </TTGlyph>
    <TTGlyph name="uni17AC" xMin="150" yMin="-600" xMax="1300" yMax="1500">
      <contour>
        <pt x="1080" y="1100" on="1"/>
        <pt x="1080" y="1170" on="0"/>
        <pt x="980" y="1250" on="1"/>
        <pt x="980" y="1350" on="1"/>
        <pt x="980" y="1500" on="0"/>
        <pt x="1130" y="1500" on="1"/>
        <pt x="1300" y="1500" on="1"/>
        <pt x="1300" y="1350" on="1"/>
        <pt x="1180" y="1350" on="1"/>
        <pt x="1130" y="1350" on="0"/>
        <pt x="1130" y="1300" on="1"/>
        <pt x="1250" y="1220" on="0"/>
        <pt x="1250" y="1100" on="1"/>
        <pt x="1250" y="500" on="1"/>
        <pt x="1250" y="0" on="0"/>
        <pt x="750" y="0" on="1"/>
        <pt x="250" y="0" on="0"/>
        <pt x="250" y="500" on="1"/>
        <pt x="250" y="1100" on="1"/>
        <pt x="250" y="1170" on="0"/>
        <pt x="150" y="1250" on="1"/>
        <pt x="150" y="1350" on="1"/>
        <pt x="150" y="1500" on="0"/>
        <pt x="300" y="1500" on="1"/>
        <pt x="470" y="1500" on="1"/>
        <pt x="470" y="1350" on="1"/>
        <pt x="350" y="1350" on="1"/>
        <pt x="300" y="1350" on="0"/>
        <pt x="300" y="1300" on="1"/>
        <pt x="420" y="1220" on="0"/>
        <pt x="420" y="1100" on="1"/>
        <pt x="420" y="500" on="1"/>
        <pt x="420" y="150" on="0"/>
        <pt x="750" y="150" on="1"/>
        <pt x="1080" y="150" on="0"/>
        <pt x="1080" y="500" on="1"/>
      </contour>
      <contour>
        <pt x="1155" y="-396" on="1"/>
        <pt x="1169" y="-415" on="0"/>
        <pt x="1183" y="-425" on="1"/>
        <pt x="1220" y="-450" on="0"/>
        <pt x="1300" y="-450" on="1"/>
        <pt x="1300" y="-600" on="1"/>
        <pt x="1180" y="-600" on="0"/>
        <pt x="1126" y="-560" on="1"/>
        <pt x="1084" y="-529" on="0"/>
        <pt x="1028" y="-461" on="1"/>
        <pt x="908" y="-500" on="0"/>
        <pt x="723" y="-500" on="1"/>
        <pt x="444" y="-500" on="0"/>
        <pt x="207" y="-374" on="1"/>
        <pt x="261" y="-227" on="1"/>
        <pt x="467" y="-350" on="0"/>
        <pt x="723" y="-350" on="1"/>
        <pt x="1080" y="-350" on="0"/>
        <pt x="1080" y="-187" on="1"/>
        <pt x="1080" y="-50" on="1"/>
        <pt x="1250" y="-50" on="1"/>
        <pt x="1250" y="-187" on="1"/>
        <pt x="1250" y="-320" on="0"/>
      </contour>
    </TTGlyph>
    <TTGlyph name="uni17AD" xMin="207" yMin="-500" xMax="1250" yMax="1500">
      <contour>
        <pt x="400" y="300" on="1"/>
        <pt x="400" y="150" on="1"/>
        <pt x="421" y="150" on="0"/>
        <pt x="450" y="173" on="0"/>
        <pt x="450" y="225" on="1"/>
        <pt x="450" y="277" on="0"/>
        <pt x="421" y="300" on="0"/>
      </contour>
      <contour>
        <pt x="1250" y="-187" on="1"/>
        <pt x="1250" y="-500" on="0"/>
        <pt x="723" y="-500" on="1"/>
        <pt x="444" y="-500" on="0"/>
        <pt x="207" y="-374" on="1"/>
        <pt x="261" y="-227" on="1"/>
        <pt x="467" y="-350" on="0"/>
        <pt x="723" y="-350" on="1"/>
        <pt x="1080" y="-350" on="0"/>
        <pt x="1080" y="-187" on="1"/>
        <pt x="1080" y="1160" on="1"/>
        <pt x="980" y="1285" on="1"/>
        <pt x="750" y="1120" on="1"/>
        <pt x="520" y="1285" on="1"/>
        <pt x="420" y="1160" on="1"/>
        <pt x="420" y="440" on="1"/>
        <pt x="443" y="450" on="0"/>
        <pt x="473" y="450" on="1"/>
        <pt x="503" y="450" on="0"/>
        <pt x="570" y="343" on="0"/>
        <pt x="570" y="225" on="1"/>
        <pt x="570" y="107" on="0"/>
        <pt x="483" y="0" on="0"/>
        <pt x="410" y="0" on="1"/>
        <pt x="337" y="0" on="0"/>
        <pt x="294" y="54" on="1"/>
        <pt x="260" y="95" on="0"/>
        <pt x="252" y="175" on="1"/>
        <pt x="250" y="175" on="1"/>
        <pt x="250" y="1200" on="1"/>
        <pt x="510" y="1500" on="1"/>
        <pt x="750" y="1300" on="1"/>
        <pt x="990" y="1500" on="1"/>
        <pt x="1250" y="1200" on="1"/>
      </contour>
    </TTGlyph>
    <TTGlyph name="uni17AE" xMin="207" yMin="-600" xMax="1300" yMax="1500">
      <contour>
        <pt x="400" y="300" on="1"/>
        <pt x="400" y="150" on="1"/>
        <pt x="421" y="150" on="0"/>
        <pt x="450" y="173" on="0"/>
        <pt x="450" y="225" on="1"/>
        <pt x="450" y="277" on="0"/>
        <pt x="421" y="300" on="0"/>
      </contour>
      <contour>
        <pt x="1028" y="-461" on="1"/>
        <pt x="908" y="-500" on="0"/>
        <pt x="723" y="-500" on="1"/>
        <pt x="444" y="-500" on="0"/>
        <pt x="207" y="-374" on="1"/>
        <pt x="261" y="-227" on="1"/>
        <pt x="467" y="-350" on="0"/>
        <pt x="723" y="-350" on="1"/>
        <pt x="1080" y="-350" on="0"/>
        <pt x="1080" y="-187" on="1"/>
        <pt x="1080" y="1160" on="1"/>
        <pt x="980" y="1285" on="1"/>
        <pt x="750" y="1120" on="1"/>
        <pt x="520" y="1285" on="1"/>
        <pt x="420" y="1160" on="1"/>
        <pt x="420" y="440" on="1"/>
        <pt x="443" y="450" on="0"/>
        <pt x="473" y="450" on="1"/>
        <pt x="503" y="450" on="0"/>
        <pt x="570" y="343" on="0"/>
        <pt x="570" y="225" on="1"/>
        <pt x="570" y="107" on="0"/>
        <pt x="483" y="0" on="0"/>
        <pt x="410" y="0" on="1"/>
        <pt x="337" y="0" on="0"/>
        <pt x="294" y="54" on="1"/>
        <pt x="260" y="95" on="0"/>
        <pt x="252" y="175" on="1"/>
        <pt x="250" y="175" on="1"/>
        <pt x="250" y="1200" on="1"/>
        <pt x="510" y="1500" on="1"/>
        <pt x="750" y="1300" on="1"/>
        <pt x="990" y="1500" on="1"/>
        <pt x="1250" y="1200" on="1"/>
        <pt x="1250" y="-187" on="1"/>
        <pt x="1250" y="-240" on="0"/>
        <pt x="1235" y="-284" on="1"/>
        <pt x="1212" y="-350" on="0"/>
        <pt x="1155" y="-396" on="1"/>
        <pt x="1169" y="-415" on="0"/>
        <pt x="1183" y="-425" on="1"/>
        <pt x="1220" y="-450" on="0"/>
        <pt x="1300" y="-450" on="1"/>
        <pt x="1300" y="-600" on="1"/>
        <pt x="1180" y="-600" on="0"/>
        <pt x="1126" y="-560" on="1"/>
        <pt x="1084" y="-529" on="0"/>
      </contour>
    </TTGlyph>
    <TTGlyph name="uni17AF" xMin="100" yMin="0" xMax="1250" yMax="1900">
      <contour>
        <pt x="225" y="750" on="1"/>
        <pt x="214" y="750" on="0"/>
        <pt x="200" y="731" on="0"/>
        <pt x="200" y="675" on="1"/>
        <pt x="200" y="619" on="0"/>
        <pt x="214" y="600" on="0"/>
        <pt x="225" y="600" on="1"/>
        <pt x="250" y="600" on="1"/>
        <pt x="250" y="750" on="1"/>
      </contour>
      <contour>
        <pt x="1080" y="1100" on="1"/>
        <pt x="1080" y="1350" on="0"/>
        <pt x="750" y="1350" on="1"/>
        <pt x="420" y="1350" on="0"/>
        <pt x="420" y="1100" on="1"/>
        <pt x="250" y="1100" on="1"/>
        <pt x="250" y="1700" on="1"/>
        <pt x="250" y="1750" on="0"/>
        <pt x="150" y="1750" on="1"/>
        <pt x="100" y="1750" on="1"/>
        <pt x="100" y="1900" on="1"/>
        <pt x="150" y="1900" on="1"/>
        <pt x="420" y="1900" on="0"/>
        <pt x="420" y="1700" on="1"/>
        <pt x="420" y="1378" on="1"/>
        <pt x="524" y="1500" on="0"/>
        <pt x="750" y="1500" on="1"/>
        <pt x="1250" y="1500" on="0"/>
        <pt x="1250" y="1100" on="1"/>
        <pt x="1250" y="0" on="1"/>
        <pt x="1050" y="0" on="1"/>
        <pt x="750" y="300" on="1"/>
        <pt x="450" y="0" on="1"/>
        <pt x="250" y="0" on="1"/>
        <pt x="250" y="452" on="1"/>
        <pt x="238" y="450" on="0"/>
        <pt x="225" y="450" on="1"/>
        <pt x="167" y="450" on="0"/>
        <pt x="100" y="547" on="0"/>
        <pt x="100" y="675" on="1"/>
        <pt x="100" y="803" on="0"/>
        <pt x="167" y="900" on="0"/>
        <pt x="260" y="900" on="1"/>
        <pt x="353" y="900" on="0"/>
        <pt x="420" y="803" on="0"/>
        <pt x="420" y="675" on="1"/>
        <pt x="420" y="200" on="1"/>
        <pt x="750" y="500" on="1"/>
        <pt x="1080" y="200" on="1"/>
      </contour>
    </TTGlyph>
    <TTGlyph name="uni17B0" xMin="250" yMin="-550" xMax="1250" yMax="1500">
      <contour>
        <pt x="904" y="-253" on="1"/>
        <pt x="957" y="-320" on="0"/>
        <pt x="1018" y="-320" on="1"/>
        <pt x="1070" y="-320" on="0"/>
        <pt x="1100" y="-254" on="0"/>
        <pt x="1102" y="-137" on="1"/>
        <pt x="1064" y="-197" on="0"/>
      </contour>
      <contour>
        <pt x="400" y="300" on="1"/>
        <pt x="400" y="150" on="1"/>
        <pt x="421" y="150" on="0"/>
        <pt x="450" y="173" on="0"/>
        <pt x="450" y="225" on="1"/>
        <pt x="450" y="277" on="0"/>
        <pt x="421" y="300" on="0"/>
      </contour>
      <contour>
        <pt x="816" y="-276" on="1"/>
        <pt x="676" y="-320" on="0"/>
        <pt x="580" y="-340" on="1"/>
        <pt x="580" y="-420" on="0"/>
        <pt x="690" y="-420" on="1"/>
        <pt x="793" y="-420" on="0"/>
      </contour>
      <contour>
        <pt x="1250" y="0" on="1"/>
        <pt x="1250" y="-260" on="0"/>
        <pt x="1154" y="-450" on="0"/>
        <pt x="1064" y="-450" on="1"/>
        <pt x="962" y="-450" on="0"/>
        <pt x="889" y="-352" on="1"/>
        <pt x="850" y="-550" on="0"/>
        <pt x="660" y="-550" on="1"/>
        <pt x="450" y="-550" on="0"/>
        <pt x="450" y="-340" on="1"/>
        <pt x="450" y="-220" on="0"/>
        <pt x="635" y="-195" on="0"/>
        <pt x="1009" y="-103" on="0"/>
        <pt x="1080" y="0" on="1"/>
        <pt x="1080" y="1160" on="1"/>
        <pt x="980" y="1285" on="1"/>
        <pt x="750" y="1120" on="1"/>
        <pt x="520" y="1285" on="1"/>
        <pt x="420" y="1160" on="1"/>
        <pt x="420" y="440" on="1"/>
        <pt x="443" y="450" on="0"/>
        <pt x="473" y="450" on="1"/>
        <pt x="503" y="450" on="0"/>
        <pt x="570" y="343" on="0"/>
        <pt x="570" y="225" on="1"/>
        <pt x="570" y="107" on="0"/>
        <pt x="483" y="0" on="0"/>
        <pt x="410" y="0" on="1"/>
        <pt x="337" y="0" on="0"/>
        <pt x="294" y="54" on="1"/>
        <pt x="260" y="95" on="0"/>
        <pt x="252" y="175" on="1"/>
        <pt x="250" y="175" on="1"/>
        <pt x="250" y="1200" on="1"/>
        <pt x="510" y="1500" on="1"/>
        <pt x="750" y="1300" on="1"/>
        <pt x="990" y="1500" on="1"/>
        <pt x="1250" y="1200" on="1"/>
      </contour>
    </TTGlyph>
    <TTGlyph name="uni17B1" xMin="250" yMin="0" xMax="1250" yMax="1900">
      <contour>
        <pt x="400" y="1664" on="1"/>
        <pt x="400" y="1638" on="0"/>
        <pt x="424" y="1638" on="1"/>
        <pt x="469" y="1638" on="0"/>
        <pt x="500" y="1659" on="1"/>
        <pt x="560" y="1639" on="0"/>
        <pt x="560" y="1579" on="1"/>
        <pt x="560" y="1500" on="0"/>
        <pt x="448" y="1500" on="1"/>
        <pt x="250" y="1500" on="0"/>
        <pt x="250" y="1685" on="1"/>
        <pt x="250" y="1790" on="0"/>
        <pt x="430" y="1900" on="0"/>
        <pt x="590" y="1900" on="1"/>
        <pt x="790" y="1900" on="0"/>
        <pt x="1250" y="1610" on="1"/>
        <pt x="1160" y="1500" on="1"/>
        <pt x="750" y="1750" on="0"/>
        <pt x="585" y="1750" on="1"/>
        <pt x="460" y="1750" on="0"/>
        <pt x="400" y="1690" on="0"/>
      </contour>
      <contour>
        <pt x="250" y="610" on="1"/>
        <pt x="1080" y="750" on="0"/>
        <pt x="1080" y="1100" on="1"/>
        <pt x="1080" y="1350" on="0"/>
        <pt x="750" y="1350" on="1"/>
        <pt x="420" y="1350" on="0"/>
        <pt x="420" y="1100" on="1"/>
        <pt x="420" y="979" on="0"/>
        <pt x="514" y="979" on="1"/>
        <pt x="559" y="979" on="0"/>
        <pt x="630" y="1000" on="1"/>
        <pt x="630" y="850" on="1"/>
        <pt x="591" y="821" on="0"/>
        <pt x="528" y="821" on="1"/>
        <pt x="250" y="821" on="0"/>
        <pt x="250" y="1100" on="1"/>
        <pt x="250" y="1500" on="0"/>
        <pt x="750" y="1500" on="1"/>
        <pt x="1250" y="1500" on="0"/>
        <pt x="1250" y="1100" on="1"/>
        <pt x="1250" y="680" on="0"/>
        <pt x="420" y="500" on="1"/>
        <pt x="420" y="400" on="1"/>
        <pt x="420" y="150" on="0"/>
        <pt x="530" y="150" on="1"/>
        <pt x="686" y="150" on="0"/>
        <pt x="1080" y="480" on="1"/>
        <pt x="1080" y="600" on="1"/>
        <pt x="1250" y="600" on="1"/>
        <pt x="1250" y="0" on="1"/>
        <pt x="1080" y="0" on="1"/>
        <pt x="1080" y="300" on="1"/>
        <pt x="736" y="0" on="0"/>
        <pt x="530" y="0" on="1"/>
        <pt x="250" y="0" on="0"/>
        <pt x="250" y="400" on="1"/>
      </contour>
    </TTGlyph>
    <TTGlyph name="uni17B2" xMin="250" yMin="0" xMax="1255" yMax="1500">
      <contour>
        <pt x="1250" y="405" on="1"/>
        <pt x="1250" y="0" on="0"/>
        <pt x="750" y="0" on="1"/>
        <pt x="250" y="0" on="0"/>
        <pt x="250" y="500" on="1"/>
        <pt x="250" y="1000" on="1"/>
        <pt x="250" y="1500" on="0"/>
        <pt x="750" y="1500" on="1"/>
        <pt x="1250" y="1500" on="0"/>
        <pt x="1250" y="1200" on="1"/>
        <pt x="1080" y="1200" on="1"/>
        <pt x="1080" y="1350" on="0"/>
        <pt x="750" y="1350" on="1"/>
        <pt x="420" y="1350" on="0"/>
        <pt x="420" y="1000" on="1"/>
        <pt x="420" y="500" on="1"/>
        <pt x="420" y="150" on="0"/>
        <pt x="750" y="150" on="1"/>
        <pt x="1080" y="150" on="0"/>
        <pt x="1080" y="405" on="1"/>
        <pt x="1085" y="405" on="1"/>
        <pt x="1085" y="580" on="0"/>
        <pt x="955" y="580" on="1"/>
        <pt x="865" y="580" on="1"/>
        <pt x="865" y="730" on="1"/>
        <pt x="955" y="730" on="1"/>
        <pt x="1085" y="730" on="0"/>
        <pt x="1085" y="843" on="1"/>
        <pt x="1085" y="955" on="0"/>
        <pt x="955" y="955" on="1"/>
        <pt x="875" y="955" on="1"/>
        <pt x="875" y="1105" on="1"/>
        <pt x="955" y="1105" on="1"/>
        <pt x="1255" y="1105" on="0"/>
        <pt x="1255" y="855" on="1"/>
        <pt x="1255" y="712" on="0"/>
        <pt x="1156" y="650" on="1"/>
        <pt x="1255" y="577" on="0"/>
        <pt x="1255" y="405" on="1"/>
      </contour>
    </TTGlyph>
    <TTGlyph name="uni17B3" xMin="250" yMin="0" xMax="1350" yMax="2100">
      <contour>
        <pt x="250" y="610" on="1"/>
        <pt x="1080" y="750" on="0"/>
        <pt x="1080" y="1100" on="1"/>
        <pt x="1080" y="1350" on="0"/>
        <pt x="750" y="1350" on="1"/>
        <pt x="420" y="1350" on="0"/>
        <pt x="420" y="1100" on="1"/>
        <pt x="420" y="979" on="0"/>
        <pt x="514" y="979" on="1"/>
        <pt x="559" y="979" on="0"/>
        <pt x="630" y="1000" on="1"/>
        <pt x="630" y="850" on="1"/>
        <pt x="591" y="821" on="0"/>
        <pt x="528" y="821" on="1"/>
        <pt x="250" y="821" on="0"/>
        <pt x="250" y="1100" on="1"/>
        <pt x="250" y="1500" on="0"/>
        <pt x="750" y="1500" on="1"/>
        <pt x="1250" y="1500" on="0"/>
        <pt x="1250" y="1100" on="1"/>
        <pt x="1250" y="680" on="0"/>
        <pt x="420" y="500" on="1"/>
        <pt x="420" y="400" on="1"/>
        <pt x="420" y="150" on="0"/>
        <pt x="530" y="150" on="1"/>
        <pt x="686" y="150" on="0"/>
        <pt x="1080" y="480" on="1"/>
        <pt x="1080" y="600" on="1"/>
        <pt x="1250" y="600" on="1"/>
        <pt x="1250" y="0" on="1"/>
        <pt x="1080" y="0" on="1"/>
        <pt x="1080" y="300" on="1"/>
        <pt x="736" y="0" on="0"/>
        <pt x="530" y="0" on="1"/>
        <pt x="250" y="0" on="0"/>
        <pt x="250" y="400" on="1"/>
      </contour>
      <contour>
        <pt x="1100" y="1701" on="1"/>
        <pt x="1100" y="1900" on="1"/>
        <pt x="1100" y="2100" on="0"/>
        <pt x="1300" y="2100" on="1"/>
        <pt x="1350" y="2100" on="1"/>
        <pt x="1350" y="1950" on="1"/>
        <pt x="1300" y="1950" on="1"/>
        <pt x="1250" y="1950" on="0"/>
        <pt x="1250" y="1900" on="1"/>
        <pt x="1250" y="1610" on="1"/>
        <pt x="1160" y="1500" on="1"/>
        <pt x="750" y="1750" on="0"/>
        <pt x="585" y="1750" on="1"/>
        <pt x="460" y="1750" on="0"/>
        <pt x="400" y="1690" on="0"/>
        <pt x="400" y="1664" on="1"/>
        <pt x="400" y="1638" on="0"/>
        <pt x="424" y="1638" on="1"/>
        <pt x="469" y="1638" on="0"/>
        <pt x="500" y="1659" on="1"/>
        <pt x="560" y="1639" on="0"/>
        <pt x="560" y="1579" on="1"/>
        <pt x="560" y="1500" on="0"/>
        <pt x="448" y="1500" on="1"/>
        <pt x="250" y="1500" on="0"/>
        <pt x="250" y="1685" on="1"/>
        <pt x="250" y="1790" on="0"/>
        <pt x="430" y="1900" on="0"/>
        <pt x="590" y="1900" on="1"/>
        <pt x="756" y="1900" on="0"/>
      </contour>
    </TTGlyph>
    <TTGlyph name="uni17B6" xMin="-250" yMin="0" xMax="350" yMax="1500">
      <contour>
        <pt x="-250" y="1500" on="1"/>
        <pt x="-50" y="1500" on="1"/>
        <pt x="350" y="1500" on="0"/>
        <pt x="350" y="1100" on="1"/>
        <pt x="350" y="0" on="1"/>
        <pt x="180" y="0" on="1"/>
        <pt x="180" y="1100" on="1"/>
        <pt x="180" y="1350" on="0"/>
        <pt x="-50" y="1350" on="1"/>
        <pt x="-250" y="1350" on="1"/>
      </contour>
    </TTGlyph>
    <TTGlyph name="uni17B7" xMin="-1150" yMin="1800" xMax="-250" yMax="2250">
      <contour>
        <pt x="-1150" y="2000" on="1"/>
        <pt x="-1150" y="2250" on="0"/>
        <pt x="-800" y="2250" on="1"/>
        <pt x="-600" y="2250" on="0"/>
        <pt x="-250" y="1980" on="0"/>
        <pt x="-250" y="1930" on="1"/>
        <pt x="-250" y="1800" on="1"/>
        <pt x="-900" y="1800" on="1"/>
        <pt x="-1150" y="1800" on="0"/>
      </contour>
      <contour>
        <pt x="-1000" y="2015" on="1"/>
        <pt x="-1000" y="1930" on="0"/>
        <pt x="-850" y="1930" on="1"/>
        <pt x="-400" y="1930" on="1"/>
        <pt x="-649" y="2100" on="0"/>
        <pt x="-800" y="2100" on="1"/>
        <pt x="-1000" y="2100" on="0"/>
      </contour>
    </TTGlyph>
    <TTGlyph name="uni17B7.a" xMin="-1150" yMin="1950" xMax="-250" yMax="2400">
      <contour>
        <pt x="-1150" y="2150" on="1"/>
        <pt x="-1150" y="2400" on="0"/>
        <pt x="-800" y="2400" on="1"/>
        <pt x="-600" y="2400" on="0"/>
        <pt x="-250" y="2130" on="0"/>
        <pt x="-250" y="2080" on="1"/>
        <pt x="-250" y="1950" on="1"/>
        <pt x="-900" y="1950" on="1"/>
        <pt x="-1150" y="1950" on="0"/>
      </contour>
      <contour>
        <pt x="-1000" y="2165" on="1"/>
        <pt x="-1000" y="2080" on="0"/>
        <pt x="-850" y="2080" on="1"/>
        <pt x="-400" y="2080" on="1"/>
        <pt x="-649" y="2250" on="0"/>
        <pt x="-800" y="2250" on="1"/>
        <pt x="-1000" y="2250" on="0"/>
      </contour>
    </TTGlyph>
    <TTGlyph name="uni17B7.r" xMin="-900" yMin="1800" xMax="0" yMax="2250">
      <contour>
        <pt x="-900" y="2000" on="1"/>
        <pt x="-900" y="2250" on="0"/>
        <pt x="-550" y="2250" on="1"/>
        <pt x="-350" y="2250" on="0"/>
        <pt x="0" y="1980" on="0"/>
        <pt x="0" y="1930" on="1"/>
        <pt x="0" y="1800" on="1"/>
        <pt x="-650" y="1800" on="1"/>
        <pt x="-900" y="1800" on="0"/>
      </contour>
      <contour>
        <pt x="-750" y="2015" on="1"/>
        <pt x="-750" y="1930" on="0"/>
        <pt x="-600" y="1930" on="1"/>
        <pt x="-150" y="1930" on="1"/>
        <pt x="-399" y="2100" on="0"/>
        <pt x="-550" y="2100" on="1"/>
        <pt x="-750" y="2100" on="0"/>
      </contour>
    </TTGlyph>
    <TTGlyph name="uni17B717CD" xMin="-1150" yMin="1800" xMax="0" yMax="2368">
      <contour>
        <pt x="-1000" y="2015" on="1"/>
        <pt x="-1000" y="1930" on="0"/>
        <pt x="-850" y="1930" on="1"/>
        <pt x="-400" y="1930" on="1"/>
        <pt x="-649" y="2100" on="0"/>
        <pt x="-800" y="2100" on="1"/>
        <pt x="-1000" y="2100" on="0"/>
      </contour>
      <contour>
        <pt x="-256" y="1951" on="1"/>
        <pt x="-250" y="1939" on="0"/>
        <pt x="-250" y="1930" on="1"/>
        <pt x="-250" y="1800" on="1"/>
        <pt x="-900" y="1800" on="1"/>
        <pt x="-1150" y="1800" on="0"/>
        <pt x="-1150" y="2000" on="1"/>
        <pt x="-1150" y="2250" on="0"/>
        <pt x="-800" y="2250" on="1"/>
        <pt x="-628" y="2250" on="0"/>
        <pt x="-474" y="2150" on="1"/>
        <pt x="-465" y="2300" on="0"/>
        <pt x="-325" y="2300" on="1"/>
        <pt x="-260" y="2300" on="0"/>
        <pt x="-205" y="2265" on="1"/>
        <pt x="-126" y="2271" on="0"/>
        <pt x="-97" y="2368" on="1"/>
        <pt x="0" y="2310" on="1"/>
        <pt x="-50" y="2190" on="0"/>
        <pt x="-180" y="2160" on="1"/>
        <pt x="-257" y="2190" on="0"/>
        <pt x="-285" y="2190" on="1"/>
        <pt x="-345" y="2190" on="0"/>
        <pt x="-345" y="2130" on="1"/>
        <pt x="-345" y="2060" on="0"/>
        <pt x="-295" y="2060" on="1"/>
        <pt x="-255" y="2060" on="0"/>
        <pt x="-255" y="2080" on="1"/>
        <pt x="-285" y="2100" on="1"/>
        <pt x="-220" y="2150" on="1"/>
        <pt x="-125" y="2091" on="0"/>
        <pt x="-125" y="2041" on="1"/>
        <pt x="-125" y="1961" on="0"/>
      </contour>
    </TTGlyph>
    <TTGlyph name="uni17B717CD.r" xMin="-900" yMin="1800" xMax="250" yMax="2368">
      <contour>
        <pt x="-750" y="2015" on="1"/>
        <pt x="-750" y="1930" on="0"/>
        <pt x="-600" y="1930" on="1"/>
        <pt x="-150" y="1930" on="1"/>
        <pt x="-399" y="2100" on="0"/>
        <pt x="-550" y="2100" on="1"/>
        <pt x="-750" y="2100" on="0"/>
      </contour>
      <contour>
        <pt x="-6" y="1951" on="1"/>
        <pt x="0" y="1939" on="0"/>
        <pt x="0" y="1930" on="1"/>
        <pt x="0" y="1800" on="1"/>
        <pt x="-650" y="1800" on="1"/>
        <pt x="-900" y="1800" on="0"/>
        <pt x="-900" y="2000" on="1"/>
        <pt x="-900" y="2250" on="0"/>
        <pt x="-550" y="2250" on="1"/>
        <pt x="-378" y="2250" on="0"/>
        <pt x="-224" y="2150" on="1"/>
        <pt x="-215" y="2300" on="0"/>
        <pt x="-75" y="2300" on="1"/>
        <pt x="-10" y="2300" on="0"/>
        <pt x="45" y="2265" on="1"/>
        <pt x="124" y="2271" on="0"/>
        <pt x="153" y="2368" on="1"/>
        <pt x="250" y="2310" on="1"/>
        <pt x="200" y="2190" on="0"/>
        <pt x="70" y="2160" on="1"/>
        <pt x="-7" y="2190" on="0"/>
        <pt x="-35" y="2190" on="1"/>
        <pt x="-95" y="2190" on="0"/>
        <pt x="-95" y="2130" on="1"/>
        <pt x="-95" y="2060" on="0"/>
        <pt x="-45" y="2060" on="1"/>
        <pt x="-5" y="2060" on="0"/>
        <pt x="-5" y="2080" on="1"/>
        <pt x="-35" y="2100" on="1"/>
        <pt x="30" y="2150" on="1"/>
        <pt x="125" y="2091" on="0"/>
        <pt x="125" y="2041" on="1"/>
        <pt x="125" y="1961" on="0"/>
      </contour>
    </TTGlyph>
    <TTGlyph name="uni17B8" xMin="-1150" yMin="1800" xMax="-250" yMax="2350">
      <contour>
        <pt x="-850" y="1930" on="1"/>
        <pt x="-400" y="1930" on="1"/>
        <pt x="-649" y="2100" on="0"/>
        <pt x="-800" y="2100" on="1"/>
        <pt x="-1000" y="2100" on="0"/>
        <pt x="-1000" y="2015" on="1"/>
        <pt x="-1000" y="1930" on="0"/>
      </contour>
      <contour>
        <pt x="-400" y="2095" on="1"/>
        <pt x="-400" y="2350" on="1"/>
        <pt x="-250" y="2350" on="1"/>
        <pt x="-250" y="1800" on="1"/>
        <pt x="-900" y="1800" on="1"/>
        <pt x="-1150" y="1800" on="0"/>
        <pt x="-1150" y="2000" on="1"/>
        <pt x="-1150" y="2250" on="0"/>
        <pt x="-800" y="2250" on="1"/>
        <pt x="-600" y="2250" on="0"/>
        <pt x="-425" y="2115" on="1"/>
        <pt x="-412" y="2105" on="0"/>
      </contour>
    </TTGlyph>
    <TTGlyph name="uni17B8.a" xMin="-1150" yMin="1950" xMax="-250" yMax="2500">
      <contour>
        <pt x="-850" y="2080" on="1"/>
        <pt x="-400" y="2080" on="1"/>
        <pt x="-649" y="2250" on="0"/>
        <pt x="-800" y="2250" on="1"/>
        <pt x="-1000" y="2250" on="0"/>
        <pt x="-1000" y="2165" on="1"/>
        <pt x="-1000" y="2080" on="0"/>
      </contour>
      <contour>
        <pt x="-400" y="2245" on="1"/>
        <pt x="-400" y="2500" on="1"/>
        <pt x="-250" y="2500" on="1"/>
        <pt x="-250" y="1950" on="1"/>
        <pt x="-900" y="1950" on="1"/>
        <pt x="-1150" y="1950" on="0"/>
        <pt x="-1150" y="2150" on="1"/>
        <pt x="-1150" y="2400" on="0"/>
        <pt x="-800" y="2400" on="1"/>
        <pt x="-600" y="2400" on="0"/>
        <pt x="-425" y="2265" on="1"/>
        <pt x="-412" y="2255" on="0"/>
      </contour>
    </TTGlyph>
    <TTGlyph name="uni17B8.r" xMin="-900" yMin="1800" xMax="0" yMax="2350">
      <contour>
        <pt x="-600" y="1930" on="1"/>
        <pt x="-150" y="1930" on="1"/>
        <pt x="-399" y="2100" on="0"/>
        <pt x="-550" y="2100" on="1"/>
        <pt x="-750" y="2100" on="0"/>
        <pt x="-750" y="2015" on="1"/>
        <pt x="-750" y="1930" on="0"/>
      </contour>
      <contour>
        <pt x="-150" y="2095" on="1"/>
        <pt x="-150" y="2350" on="1"/>
        <pt x="0" y="2350" on="1"/>
        <pt x="0" y="1800" on="1"/>
        <pt x="-650" y="1800" on="1"/>
        <pt x="-900" y="1800" on="0"/>
        <pt x="-900" y="2000" on="1"/>
        <pt x="-900" y="2250" on="0"/>
        <pt x="-550" y="2250" on="1"/>
        <pt x="-350" y="2250" on="0"/>
        <pt x="-175" y="2115" on="1"/>
        <pt x="-162" y="2105" on="0"/>
      </contour>
    </TTGlyph>
    <TTGlyph name="uni17B9" xMin="-1150" yMin="1800" xMax="-250" yMax="2350">
      <contour>
        <pt x="-410" y="2230" on="1"/>
        <pt x="-427" y="2230" on="0"/>
        <pt x="-439" y="2219" on="1"/>
        <pt x="-450" y="2209" on="0"/>
        <pt x="-450" y="2190" on="1"/>
        <pt x="-450" y="2173" on="0"/>
        <pt x="-439" y="2162" on="1"/>
        <pt x="-427" y="2150" on="0"/>
        <pt x="-410" y="2150" on="1"/>
        <pt x="-391" y="2150" on="0"/>
        <pt x="-381" y="2162" on="1"/>
        <pt x="-370" y="2173" on="0"/>
        <pt x="-370" y="2190" on="1"/>
        <pt x="-370" y="2209" on="0"/>
        <pt x="-381" y="2219" on="1"/>
        <pt x="-391" y="2230" on="0"/>
      </contour>
      <contour>
        <pt x="-850" y="1930" on="1"/>
        <pt x="-400" y="1930" on="1"/>
        <pt x="-649" y="2100" on="0"/>
        <pt x="-800" y="2100" on="1"/>
        <pt x="-1000" y="2100" on="0"/>
        <pt x="-1000" y="2015" on="1"/>
        <pt x="-1000" y="1930" on="0"/>
      </contour>
      <contour>
        <pt x="-570" y="2202" on="1"/>
        <pt x="-566" y="2267" on="0"/>
        <pt x="-527" y="2306" on="1"/>
        <pt x="-483" y="2350" on="0"/>
        <pt x="-410" y="2350" on="1"/>
        <pt x="-337" y="2350" on="0"/>
        <pt x="-293" y="2306" on="1"/>
        <pt x="-250" y="2263" on="0"/>
        <pt x="-250" y="2190" on="1"/>
        <pt x="-250" y="2117" on="0"/>
        <pt x="-293" y="2074" on="1"/>
        <pt x="-313" y="2054" on="0"/>
        <pt x="-338" y="2043" on="1"/>
        <pt x="-250" y="1965" on="0"/>
        <pt x="-250" y="1930" on="1"/>
        <pt x="-250" y="1800" on="1"/>
        <pt x="-900" y="1800" on="1"/>
        <pt x="-1150" y="1800" on="0"/>
        <pt x="-1150" y="2000" on="1"/>
        <pt x="-1150" y="2250" on="0"/>
        <pt x="-800" y="2250" on="1"/>
        <pt x="-680" y="2250" on="0"/>
      </contour>
    </TTGlyph>
    <TTGlyph name="uni17B9.a" xMin="-1150" yMin="1950" xMax="-250" yMax="2500">
      <contour>
        <pt x="-410" y="2380" on="1"/>
        <pt x="-427" y="2380" on="0"/>
        <pt x="-439" y="2369" on="1"/>
        <pt x="-450" y="2359" on="0"/>
        <pt x="-450" y="2340" on="1"/>
        <pt x="-450" y="2323" on="0"/>
        <pt x="-439" y="2312" on="1"/>
        <pt x="-427" y="2300" on="0"/>
        <pt x="-410" y="2300" on="1"/>
        <pt x="-391" y="2300" on="0"/>
        <pt x="-381" y="2312" on="1"/>
        <pt x="-370" y="2323" on="0"/>
        <pt x="-370" y="2340" on="1"/>
        <pt x="-370" y="2359" on="0"/>
        <pt x="-381" y="2369" on="1"/>
        <pt x="-391" y="2380" on="0"/>
      </contour>
      <contour>
        <pt x="-850" y="2080" on="1"/>
        <pt x="-400" y="2080" on="1"/>
        <pt x="-649" y="2250" on="0"/>
        <pt x="-800" y="2250" on="1"/>
        <pt x="-1000" y="2250" on="0"/>
        <pt x="-1000" y="2165" on="1"/>
        <pt x="-1000" y="2080" on="0"/>
      </contour>
      <contour>
        <pt x="-570" y="2352" on="1"/>
        <pt x="-566" y="2417" on="0"/>
        <pt x="-527" y="2456" on="1"/>
        <pt x="-483" y="2500" on="0"/>
        <pt x="-410" y="2500" on="1"/>
        <pt x="-337" y="2500" on="0"/>
        <pt x="-293" y="2456" on="1"/>
        <pt x="-250" y="2413" on="0"/>
        <pt x="-250" y="2340" on="1"/>
        <pt x="-250" y="2267" on="0"/>
        <pt x="-293" y="2224" on="1"/>
        <pt x="-313" y="2204" on="0"/>
        <pt x="-338" y="2193" on="1"/>
        <pt x="-250" y="2115" on="0"/>
        <pt x="-250" y="2080" on="1"/>
        <pt x="-250" y="1950" on="1"/>
        <pt x="-900" y="1950" on="1"/>
        <pt x="-1150" y="1950" on="0"/>
        <pt x="-1150" y="2150" on="1"/>
        <pt x="-1150" y="2400" on="0"/>
        <pt x="-800" y="2400" on="1"/>
        <pt x="-680" y="2400" on="0"/>
      </contour>
    </TTGlyph>
    <TTGlyph name="uni17B9.r" xMin="-900" yMin="1800" xMax="0" yMax="2350">
      <contour>
        <pt x="-160" y="2230" on="1"/>
        <pt x="-177" y="2230" on="0"/>
        <pt x="-189" y="2219" on="1"/>
        <pt x="-200" y="2209" on="0"/>
        <pt x="-200" y="2190" on="1"/>
        <pt x="-200" y="2173" on="0"/>
        <pt x="-189" y="2162" on="1"/>
        <pt x="-177" y="2150" on="0"/>
        <pt x="-160" y="2150" on="1"/>
        <pt x="-141" y="2150" on="0"/>
        <pt x="-131" y="2162" on="1"/>
        <pt x="-120" y="2173" on="0"/>
        <pt x="-120" y="2190" on="1"/>
        <pt x="-120" y="2209" on="0"/>
        <pt x="-131" y="2219" on="1"/>
        <pt x="-141" y="2230" on="0"/>
      </contour>
      <contour>
        <pt x="-600" y="1930" on="1"/>
        <pt x="-150" y="1930" on="1"/>
        <pt x="-399" y="2100" on="0"/>
        <pt x="-550" y="2100" on="1"/>
        <pt x="-750" y="2100" on="0"/>
        <pt x="-750" y="2015" on="1"/>
        <pt x="-750" y="1930" on="0"/>
      </contour>
      <contour>
        <pt x="-320" y="2202" on="1"/>
        <pt x="-316" y="2267" on="0"/>
        <pt x="-277" y="2306" on="1"/>
        <pt x="-233" y="2350" on="0"/>
        <pt x="-160" y="2350" on="1"/>
        <pt x="-87" y="2350" on="0"/>
        <pt x="-43" y="2306" on="1"/>
        <pt x="0" y="2263" on="0"/>
        <pt x="0" y="2190" on="1"/>
        <pt x="0" y="2117" on="0"/>
        <pt x="-43" y="2074" on="1"/>
        <pt x="-63" y="2054" on="0"/>
        <pt x="-88" y="2043" on="1"/>
        <pt x="0" y="1965" on="0"/>
        <pt x="0" y="1930" on="1"/>
        <pt x="0" y="1800" on="1"/>
        <pt x="-650" y="1800" on="1"/>
        <pt x="-900" y="1800" on="0"/>
        <pt x="-900" y="2000" on="1"/>
        <pt x="-900" y="2250" on="0"/>
        <pt x="-550" y="2250" on="1"/>
        <pt x="-430" y="2250" on="0"/>
      </contour>
    </TTGlyph>
</ttFont>
